<svg width='200' height='200' fill="#000000" xmlns="http://www.w3.org/2000/svg" xmlns:xlink="http://www.w3.org/1999/xlink" version="1.1" x="0px" y="0px" viewBox="0 0 128 128" enable-background="new 0 0 128 128" xml:space="preserve"><g><g><path fill="#000000" d="M89.6,32.8H38.4c-3.6,0-6.5,2.9-6.5,6.5v51.1c0,3.6,2.9,6.5,6.5,6.5h51.1c3.6,0,6.5-2.9,6.5-6.5V39.3    C96.1,35.7,93.1,32.8,89.6,32.8z"/><path fill="#000000" d="M115.4,84.2H101v4.9h14.4c1.4,0,2.5-1.1,2.5-2.5S116.7,84.2,115.4,84.2z"/><path fill="#000000" d="M118.1,68H101v4.9h17.1c2.2,0,4,1.8,4,4c0,1.4,1.1,2.5,2.5,2.5s2.5-1.1,2.5-2.5C127,72,123,68,118.1,68z"/><path fill="#000000" d="M101,51.8v4.9h14.4c1.4,0,2.5-1.1,2.5-2.5s-1.1-2.5-2.5-2.5H101z"/><path fill="#000000" d="M101,43.7h17.1c4.9,0,8.9-4,8.9-8.9c0-1.4-1.1-2.5-2.5-2.5s-2.5,1.1-2.5,2.5c0,2.2-1.8,4-4,4h-17.2    c0,0.2,0,0.4,0,0.5V43.7z"/><path fill="#000000" d="M89.2,12.6c0-1.4-1.1-2.5-2.5-2.5s-2.5,1.1-2.5,2.5v15.3h4.9V12.6z"/><path fill="#000000" d="M72.9,9.9c0-2.2,1.8-4,4-4c1.4,0,2.5-1.1,2.5-2.5S78.3,1,76.9,1C72,1,68,5,68,9.9v18h4.9V9.9z"/><path fill="#000000" d="M56.7,12.6c0-1.4-1.1-2.5-2.5-2.5s-2.5,1.1-2.5,2.5v15.3h4.9V12.6z"/><path fill="#000000" d="M34.8,5.9c2.2,0,4,1.8,4,4v18h4.9v-18c0-4.9-4-8.9-8.9-8.9c-1.4,0-2.5,1.1-2.5,2.5S33.4,5.9,34.8,5.9z"/><path fill="#000000" d="M10.2,41.3c0,1.4,1.1,2.5,2.5,2.5H27v-4.4c0-0.2,0-0.3,0-0.5H12.6C11.3,38.8,10.2,39.9,10.2,41.3z"/><path fill="#000000" d="M5.9,51.1c0-1.4-1.1-2.5-2.5-2.5S1,49.7,1,51.1C1,56,5,60,9.9,60H27v-4.9H9.9C7.7,55.1,5.9,53.3,5.9,51.1z    "/><path fill="#000000" d="M10.2,73.8c0,1.4,1.1,2.5,2.5,2.5H27v-4.9H12.6C11.3,71.3,10.2,72.4,10.2,73.8z"/><path fill="#000000" d="M1,93.2c0,1.4,1.1,2.5,2.5,2.5s2.5-1.1,2.5-2.5c0-2.2,1.8-4,4-4H27v-4.9H9.9C5,84.3,1,88.3,1,93.2z"/><path fill="#000000" d="M38.8,115.7c0,1.4,1.1,2.5,2.5,2.5s2.5-1.1,2.5-2.5v-13.8h-4.9V115.7z"/><path fill="#000000" d="M55.1,118.3c0,2.1-1.8,3.8-4,3.8c-1.4,0-2.5,1.1-2.5,2.5s1.1,2.5,2.5,2.5c4.9,0,8.9-3.9,8.9-8.7v-16.4    h-4.9V118.3z"/><path fill="#000000" d="M71.3,115.7c0,1.4,1.1,2.5,2.5,2.5s2.5-1.1,2.5-2.5v-13.8h-4.9V115.7z"/><path fill="#000000" d="M93.2,122.1c-2.2,0-4-1.7-4-3.8v-16.4h-4.9v16.4c0,4.8,4,8.7,8.9,8.7c1.4,0,2.5-1.1,2.5-2.5    S94.6,122.1,93.2,122.1z"/></g></g></svg>