<?xml version="1.0" encoding="UTF-8"?>
<svg width="70px" height="70px" viewBox="0 0 70 70" version="1.1" xmlns="http://www.w3.org/2000/svg" xmlns:xlink="http://www.w3.org/1999/xlink">
    <!-- Generator: Sketch 63.1 (92452) - https://sketch.com -->
    <title>Group 20</title>
    <desc>Created with Sketch.</desc>
    <defs>
        <path d="M38.2049821,38.15878 C40.1951891,37.5121308 43.2783023,38.9820621 44.3113293,40.0250585 C45.5066955,41.2317636 46.1485118,42.0856334 47.0280706,43.7804487 C47.4694025,44.6304412 48.3897679,47.108904 47.818476,48.1747334 C47.0963773,49.5240373 45.3390338,50.08237 40.5078916,50.6562118 C37.6132869,51 34.0001319,51 34.0001319,51 C34.0001319,51 30.3856462,51 27.4923722,50.6562118 C22.66123,50.0828008 20.903443,49.5240373 20.1813442,48.1747334 C19.6104959,47.108904 20.5304177,44.6304412 20.9717496,43.7804487 C21.851752,42.0856334 22.4931247,41.2317636 23.6884909,40.0250585 C24.7215179,38.9820621 27.8046311,37.5125616 29.7948382,38.15878 C31.3823022,38.4961059 31.4577056,39.3840099 34.0001319,39.3840099 C36.5425582,39.3840099 36.617518,38.4965367 38.2049821,38.15878 Z M45.55317,34.1325445 C47.2813689,33.5765533 49.9283942,34.8896481 50.8191233,35.8487329 C51.8499199,36.9585434 52.403061,37.7438809 53.1621098,39.3023936 L53.118,39.213 L53.094,39.163 L53.1192048,39.2138826 L53.1192048,39.2138826 L53.143,39.263 L53.1459532,39.2688281 L53.162,39.302 L53.1707831,39.3198373 L53.1707831,39.3198373 L53.219131,39.4239128 C53.6155402,40.2979377 54.3128445,42.4096562 53.8431569,43.3437544 C53.4535677,44.1199702 52.7146484,44.6112406 51.1965509,45 C50.9545779,43.9861849 50.5893119,43.0488185 50.3456614,42.5488608 C49.4696101,40.7479707 48.774724,39.7250338 47.4885347,38.3402683 C47.2943692,38.1313372 47.0813323,37.9419527 46.8594887,37.7655993 C46.5361591,37.5084534 46.1922807,37.279107 45.8370794,37.0714791 C45.448329,36.8438702 45.0457396,36.6427578 44.6326661,36.4677074 C44.4204679,36.3777932 43.1976026,36.0420267 43.0306957,35.7666373 C42.8923056,35.538594 43.2504424,35.2197679 43.5343519,35.0373333 C43.8379714,34.8418676 44.6733444,34.4157525 45.55317,34.1325445 Z M33.5,19 C37.6421524,19 41,22.0414378 41,26.7358404 C41,31.4298087 37.1163895,36 33.5,36 C29.7648456,36 26,31.430243 26,26.7358404 C26,22.0414378 29.3583044,19 33.5,19 Z M41.634758,17 C45.1501771,17 48,19.7709328 48,24.0481562 C48,27.4563991 45.9058796,30.7852495 43.5027627,32 C44.3400708,30.340564 44.8441558,28.4550976 44.8441558,26.5570499 C44.8441558,23.8863341 43.9503188,21.4633406 42.3279811,19.7340564 C41.3946163,18.7396963 40.2559622,18.0151844 39,17.5770065 C39.8033058,17.2043384 40.6937426,17 41.634758,17 Z" id="path-1"></path>
        <path d="M35.2049821,41.15878 C37.1951891,40.5121308 40.2783023,41.9820621 41.3113293,43.0250585 C42.5066955,44.2317636 43.1485118,45.0856334 44.0280706,46.7804487 C44.4694025,47.6304412 45.3897679,50.108904 44.818476,51.1747334 C44.0963773,52.5240373 42.3390338,53.08237 37.5078916,53.6562118 C34.6132869,54 31.0001319,54 31.0001319,54 C31.0001319,54 27.3856462,54 24.4923722,53.6562118 C19.66123,53.0828008 17.903443,52.5240373 17.1813442,51.1747334 C16.6104959,50.108904 17.5304177,47.6304412 17.9717496,46.7804487 C18.851752,45.0856334 19.4931247,44.2317636 20.6884909,43.0250585 C21.7215179,41.9820621 24.8046311,40.5125616 26.7948382,41.15878 C28.3823022,41.4961059 28.4577056,42.3840099 31.0001319,42.3840099 C33.5425582,42.3840099 33.617518,41.4965367 35.2049821,41.15878 Z M42.55317,37.1325445 C44.2813689,36.5765533 46.9283942,37.8896481 47.8191233,38.8487329 C48.8499199,39.9585434 49.403061,40.7438809 50.1621098,42.3023936 L50.118,42.213 L50.094,42.163 L50.1192048,42.2138826 L50.1192048,42.2138826 L50.143,42.263 L50.1459532,42.2688281 L50.162,42.302 L50.1707831,42.3198373 L50.1707831,42.3198373 L50.219131,42.4239128 C50.6155402,43.2979377 51.3128445,45.4096562 50.8431569,46.3437544 C50.4535677,47.1199702 49.7146484,47.6112406 48.1965509,48 C47.9545779,46.9861849 47.5893119,46.0488185 47.3456614,45.5488608 C46.4696101,43.7479707 45.774724,42.7250338 44.4885347,41.3402683 C44.2943692,41.1313372 44.0813323,40.9419527 43.8594887,40.7655993 C43.5361591,40.5084534 43.1922807,40.279107 42.8370794,40.0714791 C42.448329,39.8438702 42.0457396,39.6427578 41.6326661,39.4677074 C41.4204679,39.3777932 40.1976026,39.0420267 40.0306957,38.7666373 C39.8923056,38.538594 40.2504424,38.2197679 40.5343519,38.0373333 C40.8379714,37.8418676 41.6733444,37.4157525 42.55317,37.1325445 Z M30.5,22 C34.6421524,22 38,25.0414378 38,29.7358404 C38,34.4298087 34.1163895,39 30.5,39 C26.7648456,39 23,34.430243 23,29.7358404 C23,25.0414378 26.3583044,22 30.5,22 Z M38.634758,20 C42.1501771,20 45,22.7709328 45,27.0481562 C45,30.4563991 42.9058796,33.7852495 40.5027627,35 C41.3400708,33.340564 41.8441558,31.4550976 41.8441558,29.5570499 C41.8441558,26.8863341 40.9503188,24.4633406 39.3279811,22.7340564 C38.3946163,21.7396963 37.2559622,21.0151844 36,20.5770065 C36.8033058,20.2043384 37.6937426,20 38.634758,20 Z" id="path-3"></path>
    </defs>
    <g id="Actual-Version" stroke="none" stroke-width="1" fill="none" fill-rule="evenodd">
        <g id="27-Dashboard-/-01_01_HeaderVideo" transform="translate(-232.000000, -2412.000000)">
            <g id="Group-54" transform="translate(108.000000, 2332.000000)">
                <g id="Group-20" transform="translate(124.000000, 80.000000)">
                    <circle id="Oval" fill="#2B2B2B" cx="36.5" cy="33.5" r="33.5"></circle>
                    <mask id="mask-2" fill="white">
                        <use xlink:href="#path-1"></use>
                    </mask>
                    <use id="Mask" fill="#1F1F1F" xlink:href="#path-1"></use>
                    <mask id="mask-4" fill="white">
                        <use xlink:href="#path-3"></use>
                    </mask>
                    <path stroke="#DCBC65" d="M40.956111,43.3769391 C40.4135224,42.8291142 39.2592889,42.1646708 38.029424,41.7887881 C37.1109979,41.5080902 36.1421565,41.3800079 35.3090354,41.647833 C34.7623048,41.7641582 34.4154869,41.9559123 34.0669847,42.1445074 C33.3874266,42.5122564 32.7070694,42.8840099 31.0001319,42.8840099 C29.2934529,42.8840099 28.6128663,42.5121952 27.9332691,42.1444753 C27.5846324,41.9558333 27.2377411,41.7640577 26.6404246,41.634339 C25.8576617,41.3801767 24.888688,41.5083103 23.9701536,41.7890413 C22.7403834,42.1648951 21.5862611,42.8291512 21.043738,43.37691 C19.8870871,44.5445326 19.2669468,45.3710324 18.4154974,47.0108568 C18.0261896,47.7606526 17.1064962,49.9759697 17.6221069,50.938665 C18.3050875,52.2148732 20.071482,52.6279843 24.5513038,53.1596969 C27.4184136,53.5003762 31.0001319,53.5 31.0001319,53.5 C31.0001319,53.5 34.5805464,53.5003744 37.4489217,53.1597015 C41.9287467,52.627589 43.6947319,52.2148748 44.3776351,50.9388113 C44.8937888,49.97585 43.9736058,47.7606047 43.5843204,47.0108521 C42.733274,45.3709773 42.1127063,44.5445055 40.956111,43.3769391 Z M47.4527691,39.1890042 C46.9937398,38.6947484 46.0221886,38.1081646 44.9838085,37.7697537 C44.2038269,37.5155556 43.377503,37.392581 42.706299,37.6085188 C41.8783663,37.8750229 41.0908394,38.2737301 40.6351727,38.6311401 C40.8944651,38.7475872 41.3738259,38.8534932 41.8277587,39.0073392 C42.2605717,39.1907547 42.6823823,39.4015101 43.0897084,39.6399949 C43.4651292,39.8594418 43.8287119,40.1022735 44.1707149,40.3742704 C44.4120386,40.5661095 44.6435192,40.7725534 44.8547932,40.9998939 C46.178308,42.4248456 46.8938421,43.4770531 47.7952846,45.3301395 C48.0081964,45.7670229 48.311161,46.5247986 48.5521338,47.3815367 C49.5478696,47.0763275 50.1005575,46.7086717 50.3962849,46.1194657 C50.8217283,45.2733585 50.0997931,43.3768951 49.5649858,42.2233984 C48.9050688,40.9115759 48.3790757,40.1863152 47.4527691,39.1890042 Z M30.5,22.5 C28.522947,22.5 26.7343291,23.2381545 25.4609421,24.5515835 C24.2414031,25.8094715 23.5,27.5906124 23.5,29.7358404 C23.5,31.9583048 24.3907318,34.1496879 25.7196548,35.7912018 C27.0237721,37.4020753 28.7568158,38.5 30.5,38.5 C32.2018967,38.5 33.9486747,37.3813952 35.2701714,35.7490544 C36.5950566,34.112528 37.5,31.9396697 37.5,29.7358404 C37.5,27.5905512 36.7586622,25.8093664 35.5391156,24.5514707 C34.2657913,23.2381062 32.4772171,22.5 30.5,22.5 Z M38.634758,20.5 C38.2052875,20.5 37.787242,20.5461756 37.3847457,20.6345686 C38.2359337,21.0825715 39.0151943,21.6702521 39.6925389,22.3918611 C41.3963104,24.2079473 42.3441558,26.7499192 42.3441558,29.5570499 C42.3441558,30.9307096 42.0914639,32.2983273 41.6445517,33.5849602 C42.2669143,33.0097876 42.8294939,32.2882886 43.2881157,31.4773711 C44.0298976,30.1657805 44.5,28.6162549 44.5,27.0481562 C44.5,25.1015751 43.8761341,23.4843441 42.8450691,22.3426582 C41.7811749,21.1646208 40.2873961,20.5 38.634758,20.5 Z"></path>
                    <circle id="Oval" stroke="#DCBC65" cx="33.5" cy="36.5" r="33"></circle>
                </g>
            </g>
        </g>
    </g>
</svg>