<?xml version="1.0" encoding="UTF-8"?>
<svg width="116px" height="15px" viewBox="0 0 116 15" version="1.1" xmlns="http://www.w3.org/2000/svg" xmlns:xlink="http://www.w3.org/1999/xlink">
    <!-- Generator: Sketch 61.2 (89653) - https://sketch.com -->
    <title>Jira Software-blue</title>
    <desc>Created with Sketch.</desc>
    <defs>
        <linearGradient x1="67.6800148%" y1="40.3276956%" x2="40.820818%" y2="81.6596195%" id="linearGradient-1">
            <stop stop-color="#0052CC" offset="18%"></stop>
            <stop stop-color="#2684FF" offset="100%"></stop>
        </linearGradient>
        <linearGradient x1="32.6559851%" y1="59.1664468%" x2="59.3430302%" y2="17.9899763%" id="linearGradient-2">
            <stop stop-color="#0052CC" offset="18%"></stop>
            <stop stop-color="#2684FF" offset="100%"></stop>
        </linearGradient>
    </defs>
    <g id="01-Desktop" stroke="none" stroke-width="1" fill="none" fill-rule="evenodd">
        <g id="01-Desktop-/-01-HomePage-/-01_01_Home-Copy-4" transform="translate(-134.000000, -2416.000000)">
            <g id="Jira-Software-blue" transform="translate(134.000000, 2416.000000)">
                <path d="M21.5684211,1.77631579 L23.1315789,1.77631579 L23.1315789,9.71052632 C23.1315789,11.8125 22.2118421,13.2631579 20.0565789,13.2631579 C19.4192207,13.2728025 18.7849589,13.1726559 18.1815789,12.9671053 L18.1815789,11.4473684 C18.6962699,11.6469177 19.2440462,11.7473656 19.7960526,11.7434211 C21.1164474,11.7434211 21.5723684,10.9539474 21.5723684,9.81513158 L21.5684211,1.77631579 Z" id="Path" fill="#7E7E7E"></path>
                <path d="M25.9796053,1.16644737 C26.2616944,1.14626136 26.5386493,1.24955431 26.7386264,1.44953147 C26.9386036,1.64950863 27.0418965,1.92646354 27.0217105,2.20855263 C27.0217105,2.78409148 26.5551441,3.25065789 25.9796053,3.25065789 C25.4040664,3.25065789 24.9375,2.78409148 24.9375,2.20855263 C24.917314,1.92646354 25.0206069,1.64950863 25.2205841,1.44953147 C25.4205613,1.24955431 25.6975162,1.14626136 25.9796053,1.16644737 L25.9796053,1.16644737 Z M25.2157895,4.50197368 L26.7098684,4.50197368 L26.7098684,13.1861842 L25.2157895,13.1861842 L25.2157895,4.50197368 Z" id="Shape" fill="#7E7E7E"></path>
                <path d="M28.9657895,4.5 L30.4243421,4.5 L30.4243421,6.02763158 C30.9276316,5.00328947 31.8059211,4.27302632 33.4993421,4.37763158 L33.4993421,5.83618421 C31.5888158,5.63881579 30.4243421,6.21907895 30.4243421,8.05855263 L30.4243421,13.1901316 L28.9657895,13.1901316 L28.9657895,4.5 Z" id="Path" fill="#7E7E7E"></path>
                <path d="M40.4980263,11.6210526 C39.9414474,12.7677632 38.8993421,13.3578947 37.5631579,13.3578947 C35.2539474,13.3578947 34.0894737,11.3960526 34.0894737,8.84210526 C34.0894737,6.39276316 35.3052632,4.32631579 37.7368421,4.32631579 C39.0039474,4.32631579 39.9769737,4.89868421 40.5,6.02763158 L40.5,4.5 L41.9940789,4.5 L41.9940789,13.1842105 L40.5,13.1842105 L40.4980263,11.6210526 Z M37.9618421,11.9684211 C39.3,11.9684211 40.4980263,11.1177632 40.4980263,9.18947368 L40.4980263,8.48684211 C40.4980263,6.55855263 39.4046053,5.70789474 38.1296053,5.70789474 C36.4440789,5.70789474 35.5756579,6.81907895 35.5756579,8.83421053 C35.5835526,10.9263158 36.4164474,11.9684211 37.9638158,11.9684211 L37.9618421,11.9684211 Z" id="Shape" fill="#7E7E7E"></path>
                <path d="M50.8322368,13.3578947 C48.6256579,13.3578947 47.6013158,12.9236842 46.7151316,12.4717105 L46.7151316,10.875 C47.775,11.4315789 49.4072368,11.8302632 50.9171053,11.8302632 C52.6361842,11.8302632 53.2855263,11.1532895 53.2855263,10.1447368 C53.2855263,9.13618421 52.6598684,8.59934211 50.4888158,8.07828947 C47.9230263,7.45263158 46.7723684,6.56644737 46.7723684,4.69144737 C46.7723684,2.91513158 48.1263158,1.60065789 50.7848684,1.60065789 C52.4348684,1.60065789 53.4947368,1.99539474 54.2763158,2.43355263 L54.2763158,3.99671053 C53.1897994,3.39800705 51.9638723,3.09833598 50.7236842,3.12828947 C49.2296053,3.12828947 48.3434211,3.64934211 48.3434211,4.69144737 C48.3434211,5.62894737 49.0736842,6.09868421 51.0868421,6.60197368 C53.5006579,7.20986842 54.8565789,7.98355263 54.8565789,10.0401316 C54.8447368,12.0197368 53.6644737,13.3578947 50.8322368,13.3578947 Z" id="Path" fill="#7E7E7E"></path>
                <path d="M56.1651316,8.82434211 C56.1651316,6.21907895 57.6927632,4.32631579 60.2980263,4.32631579 C62.9032895,4.32631579 64.3973684,6.21907895 64.3973684,8.82434211 C64.3973684,11.4296053 62.8855263,13.3638158 60.2980263,13.3638158 C57.7105263,13.3638158 56.1651316,11.4296053 56.1651316,8.82434211 Z M57.6236842,8.82434211 C57.6236842,10.4743421 58.4407895,11.9684211 60.2980263,11.9684211 C62.1552632,11.9684211 62.9388158,10.4743421 62.9388158,8.82434211 C62.9388158,7.17434211 62.1394737,5.72368421 60.2980263,5.72368421 C58.4565789,5.72368421 57.6315789,7.17434211 57.6315789,8.82434211 L57.6236842,8.82434211 Z" id="Shape" fill="#7E7E7E"></path>
                <path d="M68.2006579,4.5 L70.4407895,4.5 L70.4407895,5.88157895 L68.2006579,5.88157895 L68.2006579,13.1842105 L66.7421053,13.1842105 L66.7421053,5.88157895 L65.3289474,5.88157895 L65.3289474,4.5 L66.7361842,4.5 L66.7361842,3.55263158 C66.7361842,1.93815789 67.6401316,0.842707362 69.4993421,0.842707362 C69.8397213,0.840865475 70.1786407,0.887383828 70.5059211,0.980921053 L70.5059211,2.3625 C70.1969035,2.30373605 69.8829748,2.27465634 69.5684211,2.27565789 C68.6486842,2.27565789 68.1868421,2.81447368 68.1868421,3.59605263 L68.2006579,4.5 Z" id="Path" fill="#7E7E7E"></path>
                <path d="M75.4953947,11.7256579 C75.8111936,11.7162353 76.1252576,11.6752417 76.4328947,11.6032895 L76.4328947,13.0440789 C76.1056366,13.1377214 75.766702,13.1842418 75.4263158,13.182299 C73.5671053,13.182299 72.6631579,12.0888158 72.6631579,10.4723684 L72.6631579,5.88947368 L71.25,5.88947368 L71.25,4.50789474 L72.6572368,4.50789474 L72.6572368,2.65855263 L74.1157895,2.65855263 L74.1157895,4.5 L76.425,4.5 L76.425,5.88157895 L74.1157895,5.88157895 L74.1157895,10.4407895 C74.1236842,11.2046053 74.5756579,11.7256579 75.4953947,11.7256579 Z" id="Path" fill="#7E7E7E"></path>
                <polygon id="Path" fill="#7E7E7E" points="76.8513158 4.5 78.5013158 4.5 81.0019737 11.8638158 83.5361842 4.5 84.9611842 4.5 87.4973684 11.8638158 90 4.5 91.65 4.5 88.4546053 13.1842105 86.5440789 13.1842105 85.05 8.98223684 84.2605263 6.30789474 83.4710526 8.98223684 81.9572368 13.1842105 80.0467105 13.1842105"></polygon>
                <path d="M98.4730263,11.6210526 C97.9164474,12.7677632 96.8743421,13.3578947 95.5381579,13.3578947 C93.2289474,13.3578947 92.0644737,11.3960526 92.0644737,8.84210526 C92.0644737,6.39276316 93.2802632,4.32631579 95.7118421,4.32631579 C96.9789474,4.32631579 97.9519737,4.89868421 98.475,6.02763158 L98.475,4.5 L99.9690789,4.5 L99.9690789,13.1842105 L98.475,13.1842105 L98.4730263,11.6210526 Z M95.9368421,11.9684211 C97.275,11.9684211 98.4730263,11.1177632 98.4730263,9.18947368 L98.4730263,8.48684211 C98.4730263,6.55855263 97.3796053,5.70789474 96.1046053,5.70789474 C94.4269737,5.72368421 93.5526316,6.82697368 93.5526316,8.84210526 C93.5526316,10.9263158 94.3914474,11.9684211 95.9388158,11.9684211 L95.9368421,11.9684211 Z" id="Shape" fill="#7E7E7E"></path>
                <path d="M102.225,4.5 L103.683553,4.5 L103.683553,6.02763158 C104.186842,5.00328947 105.065132,4.27302632 106.758553,4.37763158 L106.758553,5.83618421 C104.848026,5.63881579 103.683553,6.21907895 103.683553,8.05855263 L103.683553,13.1901316 L102.225,13.1901316 L102.225,4.5 Z" id="Path" fill="#7E7E7E"></path>
                <path d="M112.020395,13.3578947 C108.771711,13.3578947 107.348684,11.4828947 107.348684,8.81842105 C107.348684,6.19539474 108.807237,4.32039474 111.448026,4.32039474 C114.122368,4.32039474 115.198026,6.17960526 115.198026,8.81842105 L115.198026,9.49539474 L108.860526,9.49539474 C109.069737,10.9717105 110.025,11.9269737 112.073684,11.9269737 C112.974655,11.9261526 113.868485,11.7671603 114.714474,11.4572368 L114.714474,12.8388158 C114.001974,13.2236842 112.906579,13.3578947 112.020395,13.3578947 Z M108.842763,8.22631579 L113.684211,8.22631579 C113.597368,6.61184211 112.867105,5.69013158 111.375,5.69013158 C109.798026,5.68223684 108.998684,6.71052632 108.842763,8.21644737 L108.842763,8.22631579 Z" id="Shape" fill="#7E7E7E"></path>
                <path d="M14.2894737,7.05789474 L7.85526316,0.623684211 L7.23157895,0 L7.23157895,0 L2.38815789,4.84342105 L2.38815789,4.84342105 L0.173684211,7.05789474 C-0.0572000353,7.28906648 -0.0572000353,7.66356509 0.173684211,7.89473684 L4.59868421,12.3197368 L7.23157895,14.9526316 L12.075,10.1092105 L12.15,10.0342105 L14.2894737,7.89473684 C14.5203579,7.66356509 14.5203579,7.28906648 14.2894737,7.05789474 Z M7.23157895,9.68684211 L5.02105263,7.47631579 L7.23157895,5.26578947 L9.44210526,7.47631579 L7.23157895,9.68684211 Z" id="Shape" fill="#2684FF" fill-rule="nonzero" opacity="0.699999988"></path>
                <path d="M7.23157895,5.26578947 C5.78429176,3.81833131 5.7772382,1.4739038 7.21578947,0.0177631579 L2.37828947,4.85328947 L5.01118421,7.48618421 L7.23157895,5.26578947 Z" id="Path" fill="url(#linearGradient-1)" fill-rule="nonzero" opacity="0.699999988"></path>
                <path d="M9.44802632,7.47039474 L7.23157895,9.68684211 C7.93013742,10.3849851 8.32261843,11.3321197 8.32261843,12.3197368 C8.32261843,13.307354 7.93013742,14.2544885 7.23157895,14.9526316 L7.23157895,14.9526316 L12.0809211,10.1032895 L9.44802632,7.47039474 Z" id="Path" fill="url(#linearGradient-2)" fill-rule="nonzero" opacity="0.699999988"></path>
            </g>
        </g>
    </g>
</svg>