<?xml version="1.0" encoding="UTF-8"?>
<svg width="126px" height="16px" viewBox="0 0 126 16" version="1.1" xmlns="http://www.w3.org/2000/svg" xmlns:xlink="http://www.w3.org/1999/xlink">
    <!-- Generator: Sketch 61.2 (89653) - https://sketch.com -->
    <title>liquidplanner</title>
    <desc>Created with Sketch.</desc>
    <g id="01-Desktop" stroke="none" stroke-width="1" fill="none" fill-rule="evenodd">
        <g id="01-Desktop-/-01-HomePage-/-01_01_Home-Copy-4" transform="translate(-279.000000, -2507.000000)" fill-rule="nonzero">
            <g id="liquidplanner" transform="translate(279.000000, 2507.000000)">
                <polygon id="Path" fill="#7E7E7E" points="18.757874 1 16 1 16 13 25 13 25 10.6 18.757874 10.6"></polygon>
                <rect id="Rectangle" fill="#7E7E7E" x="26" y="3" width="2" height="10"></rect>
                <rect id="Rectangle" fill="#7E7E7E" x="26" y="0" width="2" height="2"></rect>
                <path d="M36.2977726,4.47327719 C35.5935742,3.52378254 34.4918868,2.97683056 33.3317702,3.00075343 C31.0750293,3.00075343 29,4.81123346 29,8.10027217 L29,8.13648177 C29,11.4315554 31.116061,13.2360005 33.3317702,13.2360005 C34.5192914,13.2526956 35.6347888,12.6512236 36.2977726,11.6367431 L36.2977726,16 L39,16 L39,3.18180144 L36.2977726,3.18180144 L36.2977726,4.47327719 Z M36.3329426,8.13648177 C36.3329426,9.77194872 35.2837046,10.8582367 34.0234467,10.8582367 C32.7631887,10.8582367 31.6787808,9.77194872 31.6787808,8.13648177 L31.6787808,8.10027217 C31.6787808,6.44066548 32.7456038,5.3785172 34.0234467,5.3785172 C35.3012896,5.3785172 36.3329426,6.46480521 36.3329426,8.10027217 L36.3329426,8.13648177 Z" id="Shape" fill="#7E7E7E"></path>
                <path d="M46.2158709,8.47747748 C46.2158709,9.7987988 45.537996,10.4594595 44.4788164,10.4594595 C43.4196369,10.4594595 42.7901816,9.78078078 42.7901816,8.46546547 L42.7901816,3 L40,3 L40,9.35435435 C40,11.6066066 41.2104909,13 43.3349025,13 C44.5004342,12.9882725 45.5823688,12.3973241 46.2158709,11.4264264 L46.2158709,12.8198198 L49,12.8198198 L49,3 L46.2158709,3 L46.2158709,8.47747748 Z" id="Path" fill="#7E7E7E"></path>
                <rect id="Rectangle" fill="#7E7E7E" x="50" y="0" width="2" height="2"></rect>
                <rect id="Rectangle" fill="#7E7E7E" x="50" y="3" width="2" height="10"></rect>
                <path d="M60.3020528,4.63657058 C59.5968267,3.73111757 58.4949004,3.20930175 57.3343109,3.23120012 C55.0762463,3.23120012 53,4.95911462 53,8.0981593 L53,8.13271759 C53,11.277522 55.1173021,12.9996768 57.3343109,12.9996768 C58.5225285,13.0156105 59.6386802,12.4415681 60.3020528,11.4733523 L60.3020528,12.8268853 L63,12.8268853 L63,0 L60.3020528,0 L60.3020528,4.63657058 Z M60.3372434,8.13271759 C60.3372434,9.69360035 59.28739,10.7303491 58.026393,10.7303491 C56.7653959,10.7303491 55.6803519,9.69360035 55.6803519,8.13271759 L55.6803519,8.0981593 C55.6803519,6.51423767 56.7478006,5.50052783 58.026393,5.50052783 C59.3049853,5.50052783 60.3372434,6.53727653 60.3372434,8.0981593 L60.3372434,8.13271759 Z" id="Shape" fill="#7E7E7E"></path>
                <path d="M70.0031357,1 L65,1 L65,13 L66.5059816,13 L66.5059816,8.7676815 L69.7510885,8.7676815 C72.59292,8.7676815 74.9999851,7.42997658 74.9999851,4.83325527 C75.0062713,2.43887588 73.0214001,1 70.0031357,1 Z M69.8141003,7.53114754 L66.5122828,7.53114754 L66.5122828,2.25339578 L69.8897145,2.25339578 C72.0447175,2.25339578 73.475085,3.1470726 73.475085,4.87822014 C73.475085,6.46885246 72.0258139,7.53114754 69.8141003,7.53114754 L69.8141003,7.53114754 Z" id="Shape" fill="#7E7E7E"></path>
                <rect id="Rectangle" fill="#7E7E7E" x="76" y="0" width="1" height="13"></rect>
                <path d="M82.6094545,3.00002519 C81.6055372,2.99696913 80.6144585,3.27205619 79.7127273,3.80407595 L80.0690909,4.98249451 C80.8190033,4.52259629 81.646026,4.27490609 82.4872727,4.2582581 C83.984,4.2582581 84.8596364,5.15434721 84.8596364,6.89742465 L84.8596364,7.23499247 C84.063067,6.95236864 83.2361251,6.81378698 82.4058182,6.82377349 C80.3694545,6.82377349 79,7.9101281 79,9.96622297 C79,12.0223178 80.4967273,12.9981957 81.9781818,12.9981957 C83.1052226,13.037965 84.1786669,12.4183309 84.8596364,11.334907 L84.8596364,12.795655 L86,12.795655 L86,6.89128706 C86,4.34418446 84.7629091,3.00002519 82.6094545,3.00002519 Z M84.8749091,9.25426176 C84.8749091,10.7886609 83.6734545,11.8750155 82.2072727,11.8750155 C81.128,11.8750155 80.2014545,11.1630543 80.2014545,9.92939739 C80.2014545,8.69574047 81.0363636,7.9101281 82.528,7.9101281 C83.320898,7.91152928 84.1095317,8.05001191 84.8698182,8.32134707 L84.8749091,9.25426176 Z" id="Shape" fill="#7E7E7E"></path>
                <path d="M92.9349318,3.0013204 C91.7975263,2.96447638 90.7386822,3.70110093 90.1922485,4.90937078 L90.1922485,3.20575437 L89,3.20575437 L89,12.9752201 L90.1922485,12.9752201 L90.1922485,7.39974823 C90.1477447,6.60039147 90.3820189,5.81504643 90.838134,5.23458054 C91.294249,4.65411464 91.9304425,4.33167588 92.5920964,4.34562862 C94.0043736,4.34562862 94.8077342,5.47930791 94.8077342,7.29443376 L94.8077342,13 L96,13 L96,6.9103457 C96.0050997,4.58723241 94.8742545,3.0013204 92.9349318,3.0013204 Z" id="Path" fill="#7E7E7E"></path>
                <path d="M101.932067,3.0013204 C100.79549,2.96447638 99.7374165,3.70110093 99.1913806,4.90937078 L99.1913806,3.20575437 L98,3.20575437 L98,12.9752201 L99.1913806,12.9752201 L99.1913806,7.39974823 C99.1468216,6.59929652 99.3816037,5.81293525 99.8385223,5.23226117 C100.295441,4.6515871 100.932541,4.32991805 101.594595,4.34562862 C103.005844,4.34562862 103.808619,5.47930791 103.808619,7.29443376 L103.808619,13 L105,13 L105,6.9103457 C105,4.58723241 103.869978,3.0013204 101.932067,3.0013204 Z" id="Path" fill="#7E7E7E"></path>
                <path d="M111.569886,3 C108.935052,3 107,5.22331589 107,7.99942344 C107,10.9820685 109.135859,12.9988469 111.758523,12.9988469 C113.279095,13.0317598 114.728922,12.3585776 115.683392,11.1764568 L114.794972,10.3928291 C114.040342,11.2624602 112.941433,11.7576761 111.788948,11.7474724 C109.975571,11.7515298 108.488824,10.3131244 108.436076,8.50361802 L115.99373,8.50361802 C116.00209,8.35591974 116.00209,8.20786806 115.99373,8.06016977 C116.011985,5.25976369 114.387272,3 111.569886,3 Z M108.436076,7.46485568 C108.618628,5.59386854 109.872152,4.20277745 111.533375,4.20277745 C113.431917,4.20277745 114.429868,5.72143584 114.575909,7.46485568 L108.436076,7.46485568 Z" id="Shape" fill="#7E7E7E"></path>
                <path d="M118.336009,5.73720566 L118.336009,3.16873247 L117,3.16873247 L117,13 L118.336009,13 L118.336009,9.08494863 C118.336009,6.11748931 119.93578,4.57765223 121.896789,4.57765223 L122,4.57765223 L122,3.0004102 C120.368465,2.97566514 118.900013,4.07251635 118.336009,5.73720566 L118.336009,5.73720566 Z" id="Path" fill="#7E7E7E"></path>
                <path d="M10.1235798,10.6493177 C9.45171176,11.1215866 8.86747871,11.5182924 6.32022264,10.4887463 C4.36382219,9.64500652 1.95843064,9.9116256 0.355203248,11.1499227 C-0.0996025223,11.5062937 -0.12033247,12.0907009 0.308464605,12.4675527 C0.748651189,12.8321639 1.46723597,12.8488796 1.93263247,12.5053342 C2.84319953,11.8046933 4.21202673,11.6649449 5.30949947,12.160578 C8.1547144,13.3081912 9.86067489,13.2798551 11.613374,12.0708469 C12.0742193,11.7354189 12.1306392,11.1673999 11.7419053,10.7768303 C11.3335011,10.3881419 10.6171516,10.3316987 10.1235798,10.6493177 L10.1235798,10.6493177 Z" id="Path" fill="#FFFFFF"></path>
                <path d="M10.1123358,5.64829717 C9.44140293,6.11982369 8.85798307,6.51119071 6.31427249,5.48797815 C4.36059513,4.64556448 1.95855162,4.9117645 0.357555734,6.14811529 C-0.10039152,6.5044559 -0.121144297,7.0914979 0.310882146,7.46838956 C0.75045604,7.83242766 1.46804063,7.84911715 1.93278935,7.50611168 C2.84208901,6.80657205 4.20901095,6.66704331 5.30495613,7.16189732 C8.14621085,8.30770678 9.84979683,8.27941519 11.6000564,7.07230728 C12.0785628,6.73504158 12.1355975,6.15045924 11.7284088,5.75674827 C11.3138908,5.37453928 10.5991728,5.32657613 10.1123358,5.64829717 L10.1123358,5.64829717 Z" id="Path" fill="#FFFFFF"></path>
                <path d="M10.1123358,1.64636659 C9.45307133,2.11356107 8.86965147,2.51468764 6.32010669,1.49063509 C4.36585649,0.645515085 1.96177636,0.909995881 0.357555734,2.14659502 C-0.10039152,2.50322816 -0.121144297,3.09075208 0.310882146,3.46795315 C0.75045604,3.83229009 1.46804063,3.84899329 1.93278935,3.50570624 C2.84208901,2.80559233 4.20901095,2.66594905 5.30495613,3.1612093 C8.14621085,4.30795939 9.84979683,4.27964457 11.6000564,3.07154571 C12.0785628,2.73400314 12.1355975,2.1489409 11.7284088,1.75490672 C11.3138908,1.37238397 10.5991728,1.32438144 10.1123358,1.64636659 Z" id="Path" fill="#FFFFFF"></path>
                <path d="M124.536432,4.00044582 L124.536432,4.00044582 C123.926189,3.98561191 123.367827,4.34208056 123.124433,4.90189214 C122.881039,5.46170371 123.001168,6.11317877 123.428219,6.54935759 C123.85527,6.98553641 124.504048,7.11940364 125.068864,6.88788418 C125.63368,6.65636472 126.001857,6.10564549 125.999917,5.49521242 C126.004083,5.10112062 125.850804,4.72166215 125.574092,4.44103286 C125.29738,4.16040357 124.920119,4.00181153 124.526016,4.00044582 L124.536432,4.00044582 Z M124.536432,6.76081619 C124.209935,6.7526701 123.900236,6.61436511 123.676244,6.37667443 C123.452253,6.13898375 123.33255,5.82162539 123.343769,5.49521242 C123.326223,4.82023599 123.856414,4.25747715 124.531224,4.23481689 L124.531224,4.23481689 C125.205286,4.26024347 125.731704,4.82627199 125.708262,5.50042066 C125.720921,5.82320171 125.604368,6.13770953 125.384417,6.37428391 C125.164466,6.61085829 124.859272,6.74997322 124.536432,6.76081619 Z" id="Shape" fill="#7E7E7E"></path>
                <path d="M124.676724,5.02263671 L124.676724,5.02263671 C124.83324,4.97173401 124.944069,4.77536591 124.943966,4.54913151 C124.952004,4.39466012 124.905191,4.24461108 124.818966,4.14847327 C124.689522,4.03802521 124.538867,3.98710218 124.387931,4.00277936 C124.25792,4.00471116 124.128215,4.0209488 124,4.051344 L124,5.99392942 L124.219828,5.99392942 L124.219828,5.16226004 L124.37069,5.16226004 C124.442356,5.14660145 124.51536,5.17478109 124.571343,5.23971262 C124.627327,5.30464414 124.660963,5.40014968 124.663793,5.50221249 C124.674147,5.6747598 124.706258,5.84332591 124.758621,6 L125,6 C124.95401,5.84729563 124.924936,5.68555356 124.913793,5.52042422 C124.87931,5.20475409 124.797414,5.05298961 124.676724,5.02263671 Z M124.383621,4.90122512 L124.224138,4.90122512 L124.224138,4.23953196 C124.277223,4.23387039 124.330536,4.23387039 124.383621,4.23953196 C124.62931,4.23953196 124.715517,4.40950818 124.715517,4.57948441 C124.715517,4.74946063 124.568966,4.89515454 124.383621,4.89515454 L124.383621,4.90122512 Z" id="Shape" fill="#7E7E7E"></path>
            </g>
        </g>
    </g>
</svg>