<svg xmlns="http://www.w3.org/2000/svg" width="137" height="19" viewBox="0 0 137 19">
    <path fill="#DCBC65" fill-rule="nonzero" d="M120.733 0l2.064 2.071 12.067 11.853V0h2.103l-.003 18.49.001.414-2.108-2.068-12.022-11.831V18.89h-2.102V0zm-3.984 9.439a9.466 9.466 0 0 1-.716 3.645 9.088 9.088 0 0 1-2.09 3.038 9.914 9.914 0 0 1-6.863 2.77 9.699 9.699 0 0 1-3.685-.707 9.773 9.773 0 0 1-3.15-2.049 9.211 9.211 0 0 1-2.862-6.683 9.221 9.221 0 0 1 .716-3.646 9.11 9.11 0 0 1 2.104-3.059A9.922 9.922 0 0 1 107.037 0a9.815 9.815 0 0 1 3.715.707 9.567 9.567 0 0 1 3.148 2.027c.9.863 1.612 1.9 2.09 3.045.493 1.16.75 2.403.759 3.66zm-9.669 7.432a7.237 7.237 0 0 0 2.827-.558 7.598 7.598 0 0 0 2.419-1.632 7.277 7.277 0 0 0 2.147-5.242 7.496 7.496 0 0 0-.565-2.876 7.38 7.38 0 0 0-4.008-4.006 7.518 7.518 0 0 0-5.704-.02 7.017 7.017 0 0 0-2.383 1.61 7.503 7.503 0 0 0-1.624 2.423 7.586 7.586 0 0 0-.551 2.869c.008 2.99 1.809 5.69 4.587 6.88.904.373 1.876.56 2.855.552zM93.4 0l-2.06 2.063H77.62L79.677 0h13.722zm0 16.829l-2.06 2.062H77.62l2.058-2.062h13.722zm0-8.469l-2.06 2.063H77.62l2.058-2.063h13.722zM55.331 18.891V0h2.2v8.348h13.81V0h2.25v18.891h-2.236v-8.474H57.531v8.474h-2.2zm-14.001 0V2.062h-7.8V0h17.817v2.062H43.57v16.83h-2.24zm-11.783-1.628l-2.103 1.628V2.11L29.547 0v17.263zm-8.379 1.628l-9.438-15.2-9.438 15.2H0L11.73 0l11.73 18.891h-2.292z"/>
</svg>
