<?xml version="1.0" encoding="UTF-8"?>
<svg width="89px" height="70px" viewBox="0 0 89 70" version="1.1" xmlns="http://www.w3.org/2000/svg" xmlns:xlink="http://www.w3.org/1999/xlink">
    <title>icons8-queue</title>
    <g id="Page-1" stroke="none" stroke-width="1" fill="none" fill-rule="evenodd">
        <g id="30-Smart-Infrastructure-/-06-Device-Manager-/-06_10_Device-Page-Copy-28" transform="translate(-1109.000000, -454.000000)" fill-rule="nonzero">
            <g id="icons8-queue" transform="translate(1109.000000, 454.000000)">
                <path d="M72.9691211,6.0807601 C68.6138115,6.0807601 65.0831354,9.61143618 65.0831354,13.9667458 C65.0831354,18.3220555 68.6138115,21.8527316 72.9691211,21.8527316 C77.3244308,21.8527316 80.8551069,18.3220555 80.8551069,13.9667458 C80.8551069,9.61143618 77.3244308,6.0807601 72.9691211,6.0807601 Z M49.3111639,17.9097387 C44.9558542,17.9097387 41.4251781,21.4404148 41.4251781,25.7957245 C41.4251781,30.1510341 44.9558542,33.6817102 49.3111639,33.6817102 C53.6664736,33.6817102 57.1971496,30.1510341 57.1971496,25.7957245 C57.1971496,21.4404148 53.6664736,17.9097387 49.3111639,17.9097387 Z M25.6532067,29.7387173 C21.297897,29.7387173 17.7672209,33.2693934 17.7672209,37.6247031 C17.7672209,41.9800128 21.297897,45.5106888 25.6532067,45.5106888 C30.0085163,45.5106888 33.5391924,41.9800128 33.5391924,37.6247031 C33.5391924,33.2693934 30.0085163,29.7387173 25.6532067,29.7387173 Z M72.9691211,29.7387173 C68.7304038,29.7387173 61.0983113,31.5868099 58.2830144,35.0448147 C64.1107579,36.6890427 70.194855,39.9510689 72.2452113,45.5106888 L88.7410926,45.5106888 L88.7410926,37.8249322 C88.7410926,32.5807517 78.2330166,29.7387173 72.9691211,29.7387173 Z M49.3111639,41.567696 C45.0724466,41.567696 37.4403525,43.4157886 34.6250556,46.8737933 C40.452799,48.5180213 46.5368978,51.7800475 48.5872541,57.3396675 L65.0831354,57.3396675 L65.0831354,49.6539108 C65.0831354,44.4097303 54.5750594,41.567696 49.3111639,41.567696 Z M25.6532067,53.3966746 C20.3893112,53.3966746 9.88123515,56.2387089 9.88123515,61.4828895 L9.88123515,69.1686461 L41.4251781,69.1686461 L41.4251781,61.4828895 C41.4251781,56.2387089 30.9171021,53.3966746 25.6532067,53.3966746 Z" id="Shape" fill="#333433"></path>
                <path d="M63.087886,1.77635684e-14 C58.7325763,1.77635684e-14 55.2019002,3.53067608 55.2019002,7.88598575 C55.2019002,12.2412954 58.7325763,15.7719715 63.087886,15.7719715 C67.4431957,15.7719715 70.9738717,12.2412954 70.9738717,7.88598575 C70.9738717,3.53067608 67.4431957,1.77635684e-14 63.087886,1.77635684e-14 Z M39.4299287,11.8289786 C35.0746191,11.8289786 31.543943,15.3596547 31.543943,19.7149644 C31.543943,24.070274 35.0746191,27.6009501 39.4299287,27.6009501 C43.7852384,27.6009501 47.3159145,24.070274 47.3159145,19.7149644 C47.3159145,15.3596547 43.7852384,11.8289786 39.4299287,11.8289786 Z M15.7719715,23.6579572 C11.4166618,23.6579572 7.88598575,27.1886333 7.88598575,31.543943 C7.88598575,35.8992527 11.4166618,39.4299287 15.7719715,39.4299287 C20.1272812,39.4299287 23.6579572,35.8992527 23.6579572,31.543943 C23.6579572,27.1886333 20.1272812,23.6579572 15.7719715,23.6579572 Z M63.087886,23.6579572 C58.8491686,23.6579572 51.2170762,25.5060498 48.4017792,28.9640546 C54.2295227,30.6082826 60.3136199,33.8703088 62.3639762,39.4299287 L78.8598575,39.4299287 L78.8598575,31.7441721 C78.8598575,26.4999916 68.3517815,23.6579572 63.087886,23.6579572 Z M39.4299287,35.4869359 C35.1912114,35.4869359 27.5591173,37.3350285 24.7438204,40.7930332 C30.5715639,42.4372612 36.6556626,45.6992874 38.7060189,51.2589074 L55.2019002,51.2589074 L55.2019002,43.5731507 C55.2019002,38.3289702 44.6938242,35.4869359 39.4299287,35.4869359 Z M15.7719715,47.3159145 C10.508076,47.3159145 4.26325641e-14,50.1579488 4.26325641e-14,55.4021294 L4.26325641e-14,63.087886 L31.543943,63.087886 L31.543943,55.4021294 C31.543943,50.1579488 21.035867,47.3159145 15.7719715,47.3159145 Z" id="Shape-Copy" fill="#DCBC65"></path>
            </g>
        </g>
    </g>
</svg>