<?xml version="1.0" encoding="UTF-8"?>
<svg width="64px" height="14px" viewBox="0 0 64 14" version="1.1" xmlns="http://www.w3.org/2000/svg" xmlns:xlink="http://www.w3.org/1999/xlink">
    <!-- Generator: Sketch 61.2 (89653) - https://sketch.com -->
    <title>Trello-icon-blue</title>
    <desc>Created with Sketch.</desc>
    <defs>
        <linearGradient x1="50.031746%" y1="100.015863%" x2="50.031746%" y2="3.46240239e-13%" id="linearGradient-1">
            <stop stop-color="#0052CC" offset="18%"></stop>
            <stop stop-color="#2684FF" offset="100%"></stop>
        </linearGradient>
    </defs>
    <g id="01-Desktop" stroke="none" stroke-width="1" fill="none" fill-rule="evenodd">
        <g id="01-Desktop-/-01-HomePage-/-01_01_Home-Copy-4" transform="translate(-134.000000, -2455.000000)">
            <g id="Trello-icon-blue" transform="translate(134.000000, 2455.000000)">
                <polygon id="Path" fill="#7E7E7E" points="28.1552885 0.990865385 28.1552885 2.62860577 24.0144231 2.62860577 24.0144231 13.4978365 22.3009615 13.4978365 22.3009615 2.62644231 18.7875 2.62644231 18.7875 0.990865385"></polygon>
                <path d="M28.9903846,3.97860577 L30.5891827,3.97860577 L30.5891827,5.653125 C31.1408654,4.53028846 32.1036058,3.72980769 33.9598558,3.84447115 L33.9598558,5.44326923 C31.865625,5.22692308 30.5891827,5.86298077 30.5891827,7.87932692 L30.5891827,13.5043269 L28.9903846,13.5043269 L28.9903846,3.97860577 Z" id="Path" fill="#7E7E7E"></path>
                <path d="M39.7298077,13.6882212 C36.16875,13.6882212 34.6088942,11.6329327 34.6088942,8.71225962 C34.6088942,5.83701923 36.2076923,3.78173077 39.1024038,3.78173077 C42.0338942,3.78173077 43.2129808,5.81971154 43.2129808,8.71225962 L43.2129808,9.45432692 L36.2661058,9.45432692 C36.4954327,11.0725962 37.5425481,12.1197115 39.7882212,12.1197115 C40.7758235,12.1188115 41.7555995,11.9445315 42.6829327,11.6048077 L42.6829327,13.1192308 C41.9019231,13.5367788 40.7012019,13.6882212 39.7298077,13.6882212 Z M36.2466346,8.06322115 L41.5579327,8.06322115 C41.4627404,6.29350962 40.6622596,5.28317308 39.0266827,5.28317308 C37.29375,5.27451923 36.4175481,6.39735577 36.2466346,8.05240385 L36.2466346,8.06322115 Z" id="Shape" fill="#7E7E7E"></path>
                <path d="M47.7086538,13.5540865 C46.1466346,13.5540865 45.1579327,12.8120192 45.1579327,11.0596154 L45.1579327,0 L46.7956731,0 L46.7956731,10.8713942 C46.7956731,11.7367788 47.3668269,12.0331731 48.0721154,12.0331731 C48.2310112,12.035807 48.3899272,12.0293059 48.5480769,12.0137019 L48.5480769,13.4783654 C48.2723625,13.5374692 47.9904944,13.5628955 47.7086538,13.5540865 Z" id="Path" fill="#7E7E7E"></path>
                <path d="M52.6759615,13.5540865 C51.1139423,13.5540865 50.1252404,12.8120192 50.1252404,11.0596154 L50.1252404,0 L51.7629808,0 L51.7629808,10.8713942 C51.7629808,11.7367788 52.3341346,12.0331731 53.0394231,12.0331731 C53.1983189,12.035807 53.3572348,12.0293059 53.5153846,12.0137019 L53.5153846,13.4783654 C53.2396702,13.5374692 52.9578021,13.5628955 52.6759615,13.5540865 Z" id="Path" fill="#7E7E7E"></path>
                <path d="M54.4283654,8.71875 C54.4283654,5.86298077 56.1028846,3.78822115 58.9586538,3.78822115 C61.8144231,3.78822115 63.4521635,5.86298077 63.4521635,8.71875 C63.4521635,11.5745192 61.7949519,13.6947115 58.9586538,13.6947115 C56.1223558,13.6947115 54.4283654,11.5745192 54.4283654,8.71875 Z M56.0271635,8.71875 C56.0271635,10.5274038 56.9228365,12.1651442 58.9586538,12.1651442 C60.9944712,12.1651442 61.8533654,10.5274038 61.8533654,8.71875 C61.8533654,6.91009615 60.9879808,5.31129808 58.9608173,5.31129808 C56.9336538,5.31129808 56.0336538,6.91009615 56.0336538,8.71875 L56.0271635,8.71875 Z" id="Shape" fill="#7E7E7E"></path>
                <g id="Layer_2-2" opacity="0.699999988" transform="translate(0.000000, 0.216346)" fill="url(#linearGradient-1)" fill-rule="nonzero">
                    <g id="Layer_1-2">
                        <path d="M11.9336538,0.110336538 L1.70480769,0.110336538 C0.763268402,0.110336538 0,0.873604941 0,1.81514423 L0,12.0439904 C0,12.9855297 0.763268402,13.7487981 1.70480769,13.7487981 L11.9336538,13.7487981 C12.8718118,13.7440358 13.6298077,12.9821605 13.6298077,12.0439904 L13.6298077,1.81514423 C13.6298077,0.87697415 12.8718118,0.115098823 11.9336538,0.110336538 Z M5.93221154,10.4408654 C5.92746769,10.8891343 5.56271711,11.2500119 5.11442308,11.2500119 L2.59615385,11.2500119 C2.14617471,11.252406 1.77879378,10.8908258 1.77403846,10.4408654 L1.77403846,10.4408654 L1.77403846,2.70216346 C1.77403846,2.4845207 1.86078873,2.27585458 2.01509093,2.1223645 C2.16939312,1.96887443 2.37851413,1.88322345 2.59615385,1.88436354 L5.11442308,1.88436354 C5.56607517,1.88436354 5.93221154,2.25051137 5.93221154,2.70216346 L5.93221154,10.4408654 Z M11.8665865,7.03125 C11.8665865,7.4829021 11.5004502,7.84903846 11.0487981,7.84903846 L8.52403846,7.84903846 C8.07238637,7.84903846 7.70624713,7.4829021 7.70624713,7.03125 L7.70624713,2.70432692 C7.70567522,2.48706133 7.79158102,2.27849741 7.94500845,2.12466409 C8.09843588,1.97083077 8.30677211,1.884375 8.52403846,1.884375 L11.0487981,1.884375 C11.5004502,1.884375 11.8665865,2.25051137 11.8665865,2.70216346 L11.8665865,2.70216346 L11.8665865,7.03125 Z" id="Shape"></path>
                    </g>
                </g>
            </g>
        </g>
    </g>
</svg>