<?xml version="1.0" encoding="UTF-8"?>
<svg width="70px" height="70px" viewBox="0 0 70 70" version="1.1" xmlns="http://www.w3.org/2000/svg" xmlns:xlink="http://www.w3.org/1999/xlink">
    <!-- Generator: Sketch 63.1 (92452) - https://sketch.com -->
    <title>Group 53</title>
    <desc>Created with Sketch.</desc>
    <defs>
        <path d="M40.85516,35.15878 C42.9164458,34.5121308 46.1096703,35.9820621 47.1795911,37.0250585 C48.4176489,38.2317636 49.0823872,39.0856334 49.9933589,40.7804487 C50.4504526,41.6304412 51.4036882,44.108904 50.811993,45.1747334 C50.064105,46.5240373 48.2439993,47.08237 43.2403163,47.6562118 C40.2423329,48 36.5001366,48 36.5001366,48 C36.5001366,48 32.7565622,48 29.7599569,47.6562118 C24.7562739,47.0828008 22.9357088,46.5240373 22.1878208,45.1747334 C21.596585,44.108904 22.5493612,41.6304412 23.0064549,40.7804487 C23.917886,39.0856334 24.5821649,38.2317636 25.8202227,37.0250585 C26.8901435,35.9820621 30.0833679,34.5125616 32.1446538,35.15878 C33.788813,35.4961059 33.8669094,36.3840099 36.5001366,36.3840099 C39.1333638,36.3840099 39.2110008,35.4965367 40.85516,35.15878 Z M36.5,16 C40.6421524,16 44,19.0414378 44,23.7358404 C44,28.4298087 40.1163895,33 36.5,33 C32.7648456,33 29,28.430243 29,23.7358404 C29,19.0414378 32.3583044,16 36.5,16 Z" id="path-1"></path>
        <path d="M38.5053379,38.15878 C40.6377026,37.5121308 43.9410382,38.9820621 45.0478529,40.0250585 C46.3286023,41.2317636 47.0162626,42.0856334 47.9586471,43.7804487 C48.4315027,44.6304412 49.4176084,47.108904 48.80551,48.1747334 C48.0318328,49.5240373 46.1489647,50.08237 40.972741,50.6562118 C37.8713788,51 34.0001413,51 34.0001413,51 C34.0001413,51 30.1274781,51 27.0275416,50.6562118 C21.8513179,50.0828008 19.9679746,49.5240373 19.1942974,48.1747334 C18.5826742,47.108904 19.5683047,44.6304412 20.0411603,43.7804487 C20.98402,42.0856334 21.671205,41.2317636 22.9519545,40.0250585 C24.0587692,38.9820621 27.3621048,37.5125616 29.4944695,38.15878 C31.1953237,38.4961059 31.2761131,39.3840099 34.0001413,39.3840099 C36.7241695,39.3840099 36.8044836,38.4965367 38.5053379,38.15878 Z M33.5,19 C37.6421524,19 41,22.0414378 41,26.7358404 C41,31.4298087 37.1163895,36 33.5,36 C29.7648456,36 26,31.430243 26,26.7358404 C26,22.0414378 29.3583044,19 33.5,19 Z" id="path-3"></path>
    </defs>
    <g id="Actual-Version" stroke="none" stroke-width="1" fill="none" fill-rule="evenodd">
        <g id="27-Dashboard-/-01_01_HeaderVideo" transform="translate(-520.000000, -2412.000000)">
            <g id="Group-54" transform="translate(108.000000, 2332.000000)">
                <g id="Group-53" transform="translate(412.000000, 80.000000)">
                    <circle id="Oval" fill="#2B2B2B" cx="36.5" cy="33.5" r="33.5"></circle>
                    <mask id="mask-2" fill="white">
                        <use xlink:href="#path-1"></use>
                    </mask>
                    <use id="Mask" fill="#1A1A1A" xlink:href="#path-1"></use>
                    <mask id="mask-4" fill="white">
                        <use xlink:href="#path-3"></use>
                    </mask>
                    <path stroke="#DCBC65" d="M44.7049756,40.388975 C44.1201649,39.8378841 42.8766888,39.1696148 41.55095,38.7914425 C40.5526573,38.5066756 39.5002777,38.3795452 38.6027266,38.6492037 C38.0103382,38.7668406 37.6341809,38.9603148 37.2565077,39.1510707 C36.5349569,39.5155128 35.8124771,39.8840099 34.0001413,39.8840099 C32.188078,39.8840099 31.4653548,39.5154509 30.7437619,39.1510374 C30.3659401,38.9602326 29.9896997,38.7667363 29.3494561,38.6372892 C28.4995194,38.3797138 27.4470015,38.506897 26.4485975,38.7916958 C25.1229597,39.1698392 23.8796034,39.8379209 23.2948614,40.388947 C22.0553465,41.5568015 21.3905597,42.3833496 20.478097,44.0235254 C20.0649886,44.7661181 19.0779546,46.9674097 19.6279664,47.9258737 C20.3629694,49.2077291 22.2518437,49.6241116 27.0825938,50.1592518 C30.1580885,50.5003293 34.0001413,50.5 34.0001413,50.5 C34.0001413,50.5 37.8407936,50.5003278 40.917653,50.1592558 C45.7484053,49.6237133 47.6368373,49.2077303 48.3717554,47.9260229 C48.9223512,46.967286 47.9347894,44.7660653 47.5217077,44.0235205 C46.6096761,42.3832929 45.9444317,41.556774 44.7049756,40.388975 Z M33.5,19.5 C31.522947,19.5 29.7343291,20.2381545 28.4609421,21.5515835 C27.2414031,22.8094715 26.5,24.5906124 26.5,26.7358404 C26.5,28.9583048 27.3907318,31.1496879 28.7196548,32.7912018 C30.0237721,34.4020753 31.7568158,35.5 33.5,35.5 C35.2018967,35.5 36.9486747,34.3813952 38.2701714,32.7490544 C39.5950566,31.112528 40.5,28.9396697 40.5,26.7358404 C40.5,24.5905512 39.7586622,22.8093664 38.5391156,21.5514707 C37.2657913,20.2381062 35.4772171,19.5 33.5,19.5 Z"></path>
                    <circle id="Oval" stroke="#DCBC65" cx="33.5" cy="36.5" r="33"></circle>
                </g>
            </g>
        </g>
    </g>
</svg>