<?xml version="1.0" encoding="UTF-8"?>
<svg width="12px" height="12px" viewBox="0 0 12 12" version="1.1" xmlns="http://www.w3.org/2000/svg" xmlns:xlink="http://www.w3.org/1999/xlink">
    <title>icon / 24-cont / info / shapes-24</title>
    <defs>
        <path d="M7.6348754,10.0488554 C8.25089186,9.8498864 9.20518882,10.302173 9.52493527,10.6230949 C9.89492956,10.9943888 10.093587,11.257118 10.3658314,11.7785996 C10.5024341,12.0401358 10.7873091,12.8027397 10.6104807,13.1306872 C10.3869739,13.5458576 9.84303426,13.7176523 8.34768072,13.894219 C7.45173166,14 6.33337415,14 6.33337415,14 C6.33337415,14 5.21460478,14 4.31906759,13.894219 C2.82371405,13.7177849 2.2796371,13.5458576 2.05613035,13.1306872 C1.8794392,12.8027397 2.16417692,12.0401358 2.30077963,11.7785996 C2.57316133,11.257118 2.77168146,10.9943888 3.14167574,10.6230949 C3.4614222,10.302173 4.41571916,9.85001896 5.03173562,10.0488554 C5.52309353,10.152648 5.54643268,10.4258492 6.33337415,10.4258492 C7.12031562,10.4258492 7.14351749,10.1527805 7.6348754,10.0488554 Z M6.33333333,4 C7.62200296,4 8.66666667,4.95417657 8.66666667,6.42693032 C8.66666667,7.89954781 7.4584323,9.33333333 6.33333333,9.33333333 C5.1712853,9.33333333 4,7.89968406 4,6.42693032 C4,4.95417657 5.04480581,4 6.33333333,4 Z M12.6666667,2 L12.666,3.333 L14,3.33333333 L14,4.66666667 L12.666,4.666 L12.6666667,6 L11.3333333,6 L11.333,4.666 L10,4.66666667 L10,3.33333333 L11.333,3.333 L11.3333333,2 L12.6666667,2 Z" id="path-1"></path>
    </defs>
    <g id="Page-1" stroke="none" stroke-width="1" fill="none" fill-rule="evenodd">
        <g id="30-Smart-Infrastructure-/-06-Device-Manager-/-06_10_Device-Page-Copy-35" transform="translate(-1188.000000, -148.000000)">
            <g id="Components-/-Buttons-/-Ghost-/-36-/-Icon-+-Text" transform="translate(1178.000000, 136.000000)">
                <g id="icon-/-24-cont-/-info-/-shapes-24" transform="translate(8.000000, 10.000000)">
                    <mask id="mask-2" fill="white">
                        <use xlink:href="#path-1"></use>
                    </mask>
                    <use id="user" fill="#DCBC65" xlink:href="#path-1"></use>
                </g>
            </g>
        </g>
    </g>
</svg>