<?xml version="1.0" encoding="UTF-8"?>
<svg width="124px" height="124px" viewBox="0 0 124 124" version="1.1" xmlns="http://www.w3.org/2000/svg" xmlns:xlink="http://www.w3.org/1999/xlink">
    <title>Group 2</title>
    <defs>
        <path d="M26.1253314,37.3174204 C28.9814077,36.3949279 33.4058754,38.4918928 34.8883363,39.9798038 C36.6037643,41.7012571 37.5248124,42.9193651 38.7870364,45.3371436 C39.4203763,46.5497203 40.7411604,50.0854294 39.9213195,51.6059134 C38.8850609,53.5307945 36.3631588,54.327297 29.4301561,55.1459246 C28.988247,55.198099 28.5346678,55.2447229 28.0769028,55.2863868 L27.5260546,55.3340405 C24.214658,55.6061313 20.8414607,55.6333404 20.1999352,55.6360613 L19.9822235,55.6360613 C19.2156976,55.6328113 14.5507119,55.5946241 10.7520406,55.1459246 C3.81903786,54.3279116 1.2964993,53.5307945 0.260240714,51.6059134 C-0.558963709,50.0854294 0.7611839,46.5497203 1.39452376,45.3371436 C2.65738435,42.9193651 3.57779584,41.7012571 5.29322391,39.9798038 C6.77568474,38.4918928 11.2001525,36.3955424 14.0562288,37.3174204 C16.3343427,37.7986406 16.4425515,39.0653009 20.0910984,39.0653009 C23.7396452,39.0653009 23.8472175,37.7992552 26.1253314,37.3174204 Z M20.0909091,9.27272727 C26.0656501,9.27272727 30.9090909,13.6966368 30.9090909,20.5248587 C30.9090909,27.3524489 25.307277,34 20.0909091,34 C14.7032318,34 9.27272727,27.3530807 9.27272727,20.5248587 C9.27272727,13.6966368 14.116827,9.27272727 20.0909091,9.27272727 Z M49.4545455,0 L49.4539091,6.181 L55.6363636,6.18181818 L55.6363636,12.3636364 L49.4539091,12.363 L49.4545455,18.5454545 L43.2727273,18.5454545 L43.2719091,12.363 L37.0909091,12.3636364 L37.0909091,6.18181818 L43.2719091,6.181 L43.2727273,0 L49.4545455,0 Z" id="path-1"></path>
        <path d="M30.4889678,41.6810567 C33.3450441,40.7585642 37.7695118,42.8555292 39.2519726,44.3434401 C40.9674007,46.0648935 41.8884487,47.2830015 43.1506728,49.70078 C43.7840126,50.9133567 45.1047968,54.4490658 44.2849558,55.9695498 C43.2486972,57.8944308 40.7267952,58.6909334 33.7937924,59.509561 C33.3518833,59.5617353 32.8983041,59.6083592 32.4405391,59.6500231 L31.8896909,59.6976768 C28.5782943,59.9697677 25.2050971,59.9969768 24.5635716,59.9996977 L24.3458599,59.9996977 C23.5793339,59.9964477 18.9143483,59.9582605 15.115677,59.509561 C8.18267422,58.691548 5.66013566,57.8944308 4.62387708,55.9695498 C3.80467266,54.4490658 5.12482026,50.9133567 5.75816012,49.70078 C7.02102071,47.2830015 7.9414322,46.0648935 9.65686027,44.3434401 C11.1393211,42.8555292 15.5637888,40.7591788 18.4198652,41.6810567 C20.6979791,42.162277 20.8061879,43.4289372 24.4547347,43.4289372 C28.1032815,43.4289372 28.2108538,42.1628916 30.4889678,41.6810567 Z M24.4545455,13.6363636 C30.4292865,13.6363636 35.2727273,18.0602732 35.2727273,24.8884951 C35.2727273,31.7160853 29.6709134,38.3636364 24.4545455,38.3636364 C19.0668682,38.3636364 13.6363636,31.716717 13.6363636,24.8884951 C13.6363636,18.0602732 18.4804633,13.6363636 24.4545455,13.6363636 Z M53.8181818,4.36363636 L53.8175455,10.5446364 L60,10.5454545 L60,16.7272727 L53.8175455,16.7266364 L53.8181818,22.9090909 L47.6363636,22.9090909 L47.6355455,16.7266364 L41.4545455,16.7272727 L41.4545455,10.5454545 L47.6355455,10.5446364 L47.6363636,4.36363636 L53.8181818,4.36363636 Z" id="path-3"></path>
    </defs>
    <g id="Organization" stroke="none" stroke-width="1" fill="none" fill-rule="evenodd">
        <g id="10-Organization-/-Services-/-Add-emloyee_new_user" transform="translate(-658.000000, -288.000000)">
            <g id="Group-3" transform="translate(440.000000, 96.000000)">
                <g id="Active-Search" transform="translate(24.000000, 72.000000)">
                    <g id="Group-2" transform="translate(194.000000, 120.000000)">
                        <circle id="Oval" stroke="#DCBC65" cx="62" cy="62" r="61.5"></circle>
                        <g id="Group-7" transform="translate(32.000000, 32.000000)">
                            <mask id="mask-2" fill="white">
                                <use xlink:href="#path-1"></use>
                            </mask>
                            <use id="user" fill="#1F1F1F" xlink:href="#path-1"></use>
                            <mask id="mask-4" fill="white">
                                <use xlink:href="#path-3"></use>
                            </mask>
                            <path stroke="#DCBC65" d="M14.3018869,42.3764391 C15.6666079,41.9618084 17.1049519,41.7820331 18.2662788,42.1568836 C19.1267736,42.3414149 19.6414855,42.6222934 20.1581997,42.9002253 C21.1102845,43.4123358 22.0640886,43.9289372 24.4547347,43.9289372 C26.8457353,43.9289372 27.799217,43.4124267 28.7512444,42.9002769 C29.2677508,42.6224187 29.7823445,42.3415731 30.5924319,42.1702348 C31.8038489,41.7817936 33.2420164,41.9614896 34.6065979,42.3760779 C36.4114077,42.9244167 38.1019761,43.8976236 38.8978,44.6963731 C40.5742368,46.3786984 41.4739334,47.5694068 42.707484,49.9322615 C43.2881556,51.0440009 44.6088748,54.3152922 43.8446997,55.7325381 C42.8476026,57.5846756 40.3172956,58.2358123 33.7351667,59.0130098 C33.2976027,59.0646712 32.8484824,59.1108271 32.3974453,59.1518837 L32.3974453,59.1518837 L31.8487449,59.1993562 C28.6577077,59.4615574 25.4089759,59.4950674 24.632865,59.4993656 C23.7664577,59.4972297 20.9252242,59.4745561 17.9341404,59.2656467 L17.9341404,59.2656467 L17.3147663,59.2198021 L16.6931352,59.1681389 C16.1791798,59.1228996 15.6693271,59.0714822 15.1742647,59.0130053 C8.59213884,58.2363917 6.06122949,57.584674 5.06405433,55.7323916 C4.30061599,54.3154123 5.62065215,51.0440491 6.20134643,49.9322662 C7.43549274,47.569462 8.33456903,46.3787255 10.0110618,44.6963442 C10.8068046,43.8976759 12.4972117,42.924737 14.3018869,42.3764391 Z M24.4545455,14.1363636 C27.3691001,14.1363636 30.0040191,15.236181 31.8804586,17.18789 C33.6768171,19.0563059 34.7727273,21.7007904 34.7727273,24.8884951 C34.7727273,28.1464449 33.4484449,31.3598299 31.5058051,33.7795845 C29.5523709,36.2127848 26.9661515,37.8636364 24.4545455,37.8636364 C21.8817178,37.8636364 19.3162556,36.2419668 17.3886108,33.8408899 C15.4402711,31.4140355 14.1363636,28.1737689 14.1363636,24.8884951 C14.1363636,21.7008808 15.2323674,19.0564593 17.0287156,17.1880542 C18.9052478,15.2362487 21.5402332,14.1363636 24.4545455,14.1363636 Z M53.3181303,4.86363636 L53.317494,11.0445702 L59.5,11.0453884 L59.5,16.2272213 L53.317494,16.2265849 L53.3181304,22.4090909 L48.1362975,22.4090909 L48.1354793,16.2265849 L41.9545455,16.2272212 L41.9545455,11.0453884 L48.1354793,11.0445702 L48.1362975,4.86363636 L53.3181303,4.86363636 Z"></path>
                        </g>
                    </g>
                </g>
            </g>
        </g>
    </g>
</svg>