<?xml version="1.0" encoding="UTF-8"?>
<svg width="20px" height="20px" viewBox="0 0 20 20" version="1.1" xmlns="http://www.w3.org/2000/svg" xmlns:xlink="http://www.w3.org/1999/xlink">
    <!-- Generator: Sketch 53.2 (72643) - https://sketchapp.com -->
    <title>icons / img-import</title>
    <desc>Created with Sketch.</desc>
    <g id="Professional-/-Personal-Profiles" stroke="none" stroke-width="1" fill="none" fill-rule="evenodd">
        <g id="01-Profiles-/-02-PersonalProfile-/-01_01_PersonalProfile" transform="translate(-876.000000, -513.000000)">
            <g id="Group-14" transform="translate(422.000000, 431.000000)">
                <g id="Group-10">
                    <g id="icons-/-img-import" transform="translate(452.000000, 80.000000)">
                        <rect id="Rectangle" x="0" y="0" width="24" height="24"></rect>
                        <g transform="translate(2.000000, 2.000000)" fill="#515252" fill-rule="nonzero">
                            <path d="M17.5,0 L2.5,0 C1.12121583,0 0,1.12121583 0,2.5 L0,17.5 C0,18.8787842 1.12121583,20 2.5,20 L17.5,20 C18.8787842,20 20,18.8787842 20,17.5 L20,2.5 C20,1.12121583 18.8787842,0 17.5,0 Z M2.5,1.66666667 L17.5,1.66666667 C17.9595947,1.66666667 18.3333333,2.04040526 18.3333333,2.5 L18.3333333,8.40494792 L15.5891927,5.66080729 C15.2636719,5.3354899 14.7363281,5.3354899 14.4108073,5.66080729 L8.54166667,11.5299479 L6.42252604,9.41080729 C6.09700521,9.0854899 5.56966146,9.0854899 5.24414062,9.41080729 L1.66666667,12.9882813 L1.66666667,2.5 C1.66666667,2.04040526 2.04040526,1.66666667 2.5,1.66666667 Z M17.5,18.3333333 L2.5,18.3333333 C2.04040526,18.3333333 1.66666667,17.9595947 1.66666667,17.5 L1.66666667,15.3450521 L5.83333333,11.1783854 L10.6608073,16.0054525 C10.8237711,16.1688232 11.0365804,16.25 11.25,16.25 C11.4634196,16.25 11.6762289,16.1688232 11.8391927,16.0058594 C12.1645101,15.6803385 12.1645101,15.1529948 11.8391927,14.827474 L9.72005208,12.7083333 L15,7.42879229 L18.3333333,10.7621256 L18.3333333,17.5 C18.3333333,17.9595947 17.9595947,18.3333333 17.5,18.3333333 Z" id="Shape"></path>
                            <path d="M7,5.5 C7,6.32836914 6.32836914,7 5.5,7 C4.67163086,7 4,6.32836914 4,5.5 C4,4.67163086 4.67163086,4 5.5,4 C6.32836914,4 7,4.67163086 7,5.5 Z" id="Path"></path>
                        </g>
                    </g>
                </g>
            </g>
        </g>
    </g>
</svg>