<?xml version="1.0" encoding="UTF-8"?>
<svg width="129px" height="117px" viewBox="0 0 129 117" version="1.1" xmlns="http://www.w3.org/2000/svg" xmlns:xlink="http://www.w3.org/1999/xlink">
    <!-- Generator: Sketch 58 (84663) - https://sketch.com -->
    <title>Shape</title>
    <desc>Created with Sketch.</desc>
    <g id="Page-1" stroke="none" stroke-width="1" fill="none" fill-rule="evenodd">
        <g id="27-Dashboard-/-05-Creator-Copy-2" transform="translate(-332.000000, -977.000000)" fill="#383838">
            <g id="Group-5" transform="translate(108.000000, 844.000000)">
                <path d="M230.412929,168 L325,146.274573 L323.689257,140.419044 C323.32508,138.752326 321.665114,137.705198 320.034005,138.073859 L231.388562,158.295096 C229.742919,158.663886 228.708942,160.330604 229.072909,161.997194 C229.524286,163.988246 229.961341,166.008949 230.412929,168 L230.412929,168 L230.412929,168 Z M230.201854,153.310485 L319.236819,133.193719 C323.483364,132.236554 327.715494,134.919633 328.668966,139.18382 L338,180.592092 L332.424569,180.592092 L328.19223,161.838734 L234.376115,183.202757 L240.182811,208.917918 L240.702792,211.195131 C240.905019,212.108937 241.815037,212.703449 242.739471,212.485875 L243.432639,212.326407 L243.432639,217.808819 L243.331526,217.839089 C239.807188,218.636786 236.297266,216.388752 235.48836,212.864386 L224.207346,162.797242 C223.73061,160.665085 224.077403,158.6637 225.232893,156.807245 C226.388382,154.950686 228.078477,153.790336 230.201645,153.311701 L230.201645,153.311701 L230.201854,153.310485 Z M253.881026,182 C249.536452,182 246,185.601433 246,190.007893 L246,242.006907 C246,246.41324 249.536452,250 253.881026,250 L345.104778,250 C349.449352,250 353,246.398694 353,242.006907 L353,190.007893 C353,185.601433 349.449352,182 345.104778,182 L253.881026,182 L253.881026,182 Z M343,205.774394 C343,202.258082 343,198.741918 343,195.225479 C343,194.539715 342.481635,194 341.823501,194 C334.2745,194 326.7255,194 319.176499,194 C318.532139,194 318,194.554339 318,195.225479 C318,198.741918 318,202.258082 318,205.774394 C318,206.445661 318.532139,207 319.176499,207 C326.7255,207 334.2745,207 341.823501,207 C342.453681,207 343,206.460159 343,205.774394 L343,205.774394 Z M326.199266,238 C325.536181,238 325,237.434504 325,236.749989 L325,234.250118 C325,233.565496 325.536181,233 326.199266,233 L341.815016,233 C342.464023,233 343,233.565496 343,234.250118 L343,236.749989 C343,237.434504 342.464023,238 341.815016,238 L326.199266,238 L326.199266,238 L326.199266,238 Z M303.184984,238 C302.535977,238 302,237.432797 302,236.746217 L302,234.253632 C302,233.552114 302.535977,233 303.184984,233 L318.815016,233 C319.463819,233 320,233.567074 320,234.253632 L320,236.746217 C320,237.432797 319.463819,238 318.815016,238 L303.184984,238 L303.184984,238 Z M281.18478,238 C280.535977,238 280,237.432797 280,236.746217 L280,234.253632 C280,233.552114 280.535977,233 281.18478,233 L296.81522,233 C297.463819,233 298,233.567074 298,234.253632 L298,236.746217 C298,237.432797 297.463819,238 296.81522,238 L281.18478,238 L281.18478,238 Z M259.184984,238 C258.536181,238 258,237.432797 258,236.746217 L258,234.253632 C258,233.552114 258.536181,233 259.184984,233 L274.81522,233 C275.464023,233 276,233.567074 276,234.253632 L276,236.746217 C276,237.432797 275.464023,238 274.81522,238 L259.184984,238 Z" id="Shape"></path>
            </g>
        </g>
    </g>
</svg>