<?xml version="1.0" encoding="UTF-8"?>
<svg width="129px" height="110px" viewBox="0 0 129 110" version="1.1" xmlns="http://www.w3.org/2000/svg" xmlns:xlink="http://www.w3.org/1999/xlink">
    <!-- Generator: Sketch 58 (84663) - https://sketch.com -->
    <title>Group 11</title>
    <desc>Created with Sketch.</desc>
    <g id="Page-1" stroke="none" stroke-width="1" fill="none" fill-rule="evenodd">
        <g id="27-Dashboard-/-05-Creator-Copy-2" transform="translate(-332.000000, -1392.000000)" fill="#383838">
            <g id="Group-11" transform="translate(332.000000, 1392.000000)">
                <path d="M-8.52651283e-14,77.7777778 L129,77.7777778 L129,81.1111111 C129,84.7944444 126.184024,87.7777778 122.707317,87.7777778 L6.29268293,87.7777778 C2.81597561,87.7777778 -8.52651283e-14,84.7944444 -8.52651283e-14,81.1111111 L-8.52651283e-14,77.7777778 Z" id="Path"></path>
                <path d="M122.707317,-2.20268248e-13 C126.184024,-2.20268248e-13 129,3.40204678 129,7.60233918 L129,72.2222222 L-1.70530257e-13,72.2222222 L-1.70530257e-13,7.60233918 C-1.70530257e-13,3.40204678 2.81597561,-2.20268248e-13 6.29268293,-2.20268248e-13 L122.707317,-2.20268248e-13 Z M72.5625,18.1651376 L65.4777061,18.1651376 L54.421875,55.5045872 L61.5066689,55.5045872 L72.5625,18.1651376 Z M49.3828125,22.2018349 C40.550313,26.8851085 29.278275,33.188212 29.2265625,33.2166777 L29.2265625,33.2166777 L29.2265625,39.4438728 C29.278275,39.4723384 40.550313,45.7767974 49.3828125,50.4587156 L49.3828125,50.4587156 L49.3828125,42.687599 C45.5095443,40.5323442 41.2510177,38.161564 37.9659795,36.3302752 C41.2510177,34.4989865 45.5095443,32.1282062 49.3828125,29.974307 L49.3828125,29.974307 Z M78.609375,22.2018349 L78.609375,29.974307 L79.3761274,30.38052 C83.2301897,32.4224464 87.362629,34.613442 90.5978186,36.3302752 C87.1469497,38.161564 82.67521,40.5323442 78.609375,42.687599 L78.609375,42.687599 L78.609375,50.4587156 L78.9338814,50.2947471 C88.1564089,45.6310307 99.7197673,39.4720074 99.7734375,39.4438728 L99.7734375,39.4438728 L99.7734375,33.2166777 C99.4442173,33.0418472 87.774907,26.8306519 78.609375,22.2018349 L78.609375,22.2018349 Z" id="Combined-Shape"></path>
                <path d="M79.0579937,103.777778 L71.8760502,103.777778 L69.9349843,94.4444444 L59.0650157,94.4444444 L57.1239498,103.777778 L49.9420063,103.777778 C48.1626959,103.777778 46.7068966,105.177778 46.7068966,106.888889 C46.7068966,108.6 48.1626959,110 49.9420063,110 L79.0579937,110 C80.8373041,110 82.2931034,108.6 82.2931034,106.888889 C82.2931034,105.177778 80.8373041,103.777778 79.0579937,103.777778 Z" id="Path"></path>
            </g>
        </g>
    </g>
</svg>