<?xml version="1.0" encoding="UTF-8"?>
<svg width="16px" height="18px" viewBox="0 0 16 18" version="1.1" xmlns="http://www.w3.org/2000/svg" xmlns:xlink="http://www.w3.org/1999/xlink">
    <!-- Generator: Sketch 55.2 (78181) - https://sketchapp.com -->
    <title>icon / 24-cont / actions / show-24</title>
    <desc>Created with Sketch.</desc>
    <defs>
        <path d="M17,19 L7,19 L7,9 L17,9 L17,19 Z M14.8571429,3 L9.14285714,3 L8,4 L4,4 L4,6 L20,6 L20,4 L16,4 L14.8571429,3 Z M19,7 L5,7 L5,19 C5,20.1 6.05,21 7.33333333,21 L16.6666667,21 C17.95,21 19,20.1 19,19 L19,7 Z" id="path-1"></path>
    </defs>
    <g id="Page-1" stroke="none" stroke-width="1" fill="none" fill-rule="evenodd">
        <g id="25-Admin-/-02-list-of-questions-/-01-list" transform="translate(-1356.000000, -239.000000)">
            <g id="icon-/-24-cont-/-actions-/-delete-trash-24" transform="translate(1352.000000, 236.000000)">
                <mask id="mask-2" fill="white">
                    <use xlink:href="#path-1"></use>
                </mask>
                <use id="Delete" fill="#7E7E7E" fill-rule="nonzero" xlink:href="#path-1"></use>
                <g id="Colors-/-Dark-Theme-/-Grayscale-/-Filled-/-$base-gray" mask="url(#mask-2)" fill="#7E7E7E" fill-rule="evenodd">
                    <rect id="Dark-Theme-/-Grayscale-/-Filled-/-$base-gray" x="0" y="0" width="24" height="24" rx="2"></rect>
                </g>
            </g>
        </g>
    </g>
</svg>