<?xml version="1.0" encoding="UTF-8"?>
<svg width="24px" height="29px" viewBox="0 0 24 29" version="1.1" xmlns="http://www.w3.org/2000/svg" xmlns:xlink="http://www.w3.org/1999/xlink">
    <!-- Generator: Sketch 56.3 (81716) - https://sketch.com -->
    <title>Group 29</title>
    <desc>Created with Sketch.</desc>
    <defs>
        <path d="M31.1657487,12.1257156 C31.4868301,12.4117302 31.6670234,12.7995498 31.6666672,13.2038108 L31.6666672,33.4761914 C31.6666672,34.3177682 30.8999367,35.0000009 29.9541279,35.0000009 L10.0458715,35.0000009 C9.1000628,35.0000009 8.33333333,34.3177682 8.33333333,33.4761914 L8.33333333,8.19047758 C8.33333333,7.34890083 9.1000628,6.66666714 10.0458715,6.66666714 L24.3198773,6.66666714 C24.7742073,6.66635019 25.2100596,6.82668549 25.5314981,7.11238236 L31.1657487,12.1257156 Z M28.3331419,13.781614 L24.78053,10.6888745 C24.6711597,10.5999331 24.3938768,10.3703086 23.9486813,10.0000009 C23.3287912,10.0000009 22.9590749,10.0000009 22.8395326,10.0000009 L12.8898942,10.0000009 C12.2143243,10.0000009 12.0360269,10.0000009 11.6666667,10.0000009 L11.6666667,30.5661433 C11.6666667,31.1739461 11.6666667,31.6666676 11.6666667,31.6666676 L25.9295037,31.6666676 C26.6050736,31.6666676 27.6367392,31.6666676 28.3331423,31.6666676 L28.3331419,14.7213452 C28.3333333,14.4293802 28.3333333,14.0059172 28.3331419,13.781614 Z M21.6666667,18.3333333 L15,18.3333333 C14.0795254,18.3333333 13.3333333,17.5871412 13.3333333,16.6666667 C13.3333333,15.7461921 14.0795254,15 15,15 L21.6666667,15 C22.5871412,15 23.3333333,15.7461921 23.3333333,16.6666667 C23.3333333,17.5871412 22.5871412,18.3333333 21.6666667,18.3333333 Z M25,23.3333333 L15,23.3333333 C14.0795254,23.3333333 13.3333333,22.5871412 13.3333333,21.6666667 C13.3333333,20.7461921 14.0795254,20 15,20 L25,20 C25.9204746,20 26.6666667,20.7461921 26.6666667,21.6666667 C26.6666667,22.5871412 25.9204746,23.3333333 25,23.3333333 Z M25,28.3333333 L15,28.3333333 C14.0795254,28.3333333 13.3333333,27.5871412 13.3333333,26.6666667 C13.3333333,25.7461921 14.0795254,25 15,25 L25,25 C25.9204746,25 26.6666667,25.7461921 26.6666667,26.6666667 C26.6666667,27.5871412 25.9204746,28.3333333 25,28.3333333 Z" id="path-1"></path>
    </defs>
    <g id="Page-1" stroke="none" stroke-width="1" fill="none" fill-rule="evenodd">
        <g id="27-Dashboard-/-03-Creator-Copy-3" transform="translate(-1020.000000, -1372.000000)">
            <g id="Group-36" transform="translate(964.000000, 1330.000000)">
                <g id="Group-32" transform="translate(20.000000, 36.000000)">
                    <g id="Group-29" transform="translate(28.000000, 0.000000)">
                        <rect id="Rectangle" x="0" y="0" width="40" height="40"></rect>
                        <mask id="mask-2" fill="white">
                            <use xlink:href="#path-1"></use>
                        </mask>
                        <use id="Mask" fill="#7E7E7E" fill-rule="nonzero" xlink:href="#path-1"></use>
                    </g>
                </g>
            </g>
        </g>
    </g>
</svg>