<?xml version="1.0" encoding="UTF-8"?>
<svg width="14px" height="14px" viewBox="0 0 14 14" version="1.1" xmlns="http://www.w3.org/2000/svg" xmlns:xlink="http://www.w3.org/1999/xlink">
    <!-- Generator: Sketch 52.6 (67491) - http://www.bohemiancoding.com/sketch -->
    <title>icons / edit</title>
    <desc>Created with Sketch.</desc>
    <g id="Page-1" stroke="none" stroke-width="1" fill="none" fill-rule="evenodd">
        <g id="icons-/-small-/-edit" transform="translate(-5.000000, -5.000000)">
            <g id="icons-/-edit">
                <rect id="Rectangle" x="0" y="0" width="24" height="24"></rect>
                <path d="M14,6.96117645 L15.3121905,5.63768177 C15.7146597,5.22962782 16.2642988,4.99990042 16.8378892,5.00000003 L16.843429,5.00000003 C17.7153013,5.00045911 18.5012145,5.52478714 18.8352758,6.32887598 C19.1693372,7.13296483 18.9858875,8.05877237 18.3703345,8.67527616 L17.0435332,10 L14,6.96117645 Z M12.7810399,8 L5.12398076,15.7077383 C5.04442173,15.7876438 4.99984668,15.8956867 5.0000004,16.0082471 L5.0000004,18.5726067 C4.99993435,18.6859786 5.04510161,18.794726 5.12555193,18.874892 C5.20600224,18.9550581 5.31513524,19.0000657 5.42890914,18.9999999 L8.00236163,18.9999999 C8.11611605,19.0000177 8.22521168,18.9549739 8.30561727,18.8747908 L16,11.2075864 L12.7810399,8 Z" id="Shape" fill="#838383" fill-rule="nonzero"></path>
            </g>
        </g>
    </g>
</svg>