<svg xmlns="http://www.w3.org/2000/svg" width="19" height="18" viewBox="0 0 19 18">
    <g fill="none" fill-rule="evenodd">
        <path d="M-4-4h25v25H-4z"/>
        <path fill="#7E7E7E" fill-rule="nonzero" d="M9 13.933c-4.333 0-7.743-4.288-7.886-4.47a.533.533 0 0 1 0-.658C1.257 8.622 4.667 4.333 9 4.333c4.334 0 7.743 4.289 7.886 4.471a.533.533 0 0 1 0 .658c-.143.183-3.552 4.471-7.886 4.471zm-6.766-4.8C3.097 10.1 5.84 12.867 9 12.867s5.903-2.766 6.766-3.734C14.903 8.166 12.16 5.4 9 5.4c-3.167 0-5.906 2.765-6.766 3.733zM9 11.8a2.67 2.67 0 0 1-2.667-2.667A2.67 2.67 0 0 1 9 6.467a2.67 2.67 0 0 1 2.667 2.666A2.67 2.67 0 0 1 9 11.8zm0-4.267c-.882 0-1.6.718-1.6 1.6 0 .882.718 1.6 1.6 1.6.882 0 1.6-.718 1.6-1.6 0-.882-.718-1.6-1.6-1.6z"/>
        <path fill="#DB4B4B" stroke="#282828" d="M16.218.868l1.414 1.414-14.85 14.85-1.414-1.414L16.218.868z"/>
    </g>
</svg>
