<?xml version="1.0" encoding="UTF-8"?>
<svg width="37px" height="30px" viewBox="0 0 37 30" version="1.1" xmlns="http://www.w3.org/2000/svg" xmlns:xlink="http://www.w3.org/1999/xlink">
    <!-- Generator: Sketch 56.3 (81716) - https://sketch.com -->
    <title>outline-school-24px</title>
    <desc>Created with Sketch.</desc>
    <g id="Page-1" stroke="none" stroke-width="1" fill="none" fill-rule="evenodd">
        <g id="27-Dashboard-/-03-Creator-Copy-3" transform="translate(-806.000000, -1371.000000)">
            <g id="Group-35" transform="translate(756.000000, 1330.000000)">
                <g id="Group-33" transform="translate(41.000000, 36.000000)">
                    <g id="outline-school-24px" transform="translate(7.000000, 0.000000)">
                        <polygon id="Path" points="0 0 40 0 40 40 0 40"></polygon>
                        <path d="M19.5211479,5.26119207 L3.27681284,14.1217384 C2.79196451,14.3862012 2.61330667,14.9936378 2.8777694,15.4784862 C2.96977186,15.6471573 3.10841707,15.785754 3.27712047,15.8776973 L8.33333333,18.6333333 L8.33333333,28.0398356 C8.33333333,28.405708 8.53314274,28.7423722 8.85430549,28.9176353 L19.5209722,34.7385877 C19.8195418,34.9015214 20.1804582,34.9015214 20.4790278,34.7385877 L31.1456945,28.9176353 C31.4668573,28.7423722 31.6666667,28.405708 31.6666667,28.0398356 L31.6666667,18.6333333 L35,16.8166667 L35,27.3333333 C35,27.8856181 35.4477153,28.3333333 36,28.3333333 L37.3333333,28.3333333 C37.8856181,28.3333333 38.3333333,27.8856181 38.3333333,27.3333333 L38.3333333,15 L20.4788521,5.26119207 C20.1803746,5.09838617 19.8196254,5.09838617 19.5211479,5.26119207 Z M31.3666667,15 L20,21.2 L8.63333333,15 L20,8.8 L31.3666667,15 Z M28.3333333,26.65 L20,31.2 L11.6666667,26.65 L11.6666667,20.45 L19.5207789,24.7383453 C19.8194499,24.9014196 20.1805501,24.9014196 20.4792211,24.7383453 L28.3333333,20.45 L28.3333333,26.65 Z" id="Shape" fill="#7E7E7E" fill-rule="nonzero"></path>
                    </g>
                </g>
            </g>
        </g>
    </g>
</svg>