<svg width="24" height="24" viewBox="0 0 24 24" fill="none" xmlns="http://www.w3.org/2000/svg">
<path d="M19.8186 3L20.4766 3.67887L4.65797 20L4 19.3211L19.8186 3Z" fill="#7E7E7E"/>
<path fill-rule="evenodd" clip-rule="evenodd" d="M12.0153 5C15.5283 5 19.6615 7.86474 20.9597 11.3402C20.9975 11.4415 21.0078 11.5472 20.9944 11.648C21.0078 11.7488 20.9975 11.8545 20.9597 11.9558C19.6615 15.4313 15.5283 18.296 12.0153 18.296C8.48598 18.296 4.29417 15.3709 3.03816 11.8656C3.03256 11.8502 3.02755 11.8345 3.02315 11.8185C3.00749 11.762 2.99999 11.7046 3 11.648C2.99999 11.5914 3.00749 11.534 3.02315 11.4775C3.02755 11.4615 3.03256 11.4458 3.03816 11.4304C4.29417 7.9251 8.48598 5 12.0153 5ZM4.1614 11.648C5.34334 14.5872 9.00943 17.096 12.0153 17.096C15.0341 17.096 18.6841 14.5985 19.8694 11.648C18.6841 8.6975 15.0341 6.2 12.0153 6.2C9.00943 6.2 5.34334 8.70882 4.1614 11.648ZM9.43174 11.6477C9.43174 10.1236 10.5817 8.8877 11.9999 8.8877C13.4181 8.8877 14.5681 10.1236 14.5681 11.6477C14.5681 13.1718 13.4181 14.4077 11.9999 14.4077C10.5817 14.4077 9.43174 13.1718 9.43174 11.6477ZM13.4508 11.6479C13.4508 10.7865 12.8007 10.0879 11.9992 10.0879C11.1977 10.0879 10.5476 10.7865 10.5476 11.6479C10.5476 12.5093 11.1977 13.2079 11.9992 13.2079C12.8007 13.2079 13.4508 12.5093 13.4508 11.6479Z" fill="#43484D"/>
<mask id="mask0" mask-type="alpha" maskUnits="userSpaceOnUse" x="3" y="5" width="18" height="14">
<path fill-rule="evenodd" clip-rule="evenodd" d="M12.0153 5C15.5283 5 19.6615 7.86474 20.9597 11.3402C20.9975 11.4415 21.0078 11.5472 20.9944 11.648C21.0078 11.7488 20.9975 11.8545 20.9597 11.9558C19.6615 15.4313 15.5283 18.296 12.0153 18.296C8.48598 18.296 4.29417 15.3709 3.03816 11.8656C3.03256 11.8502 3.02755 11.8345 3.02315 11.8185C3.00749 11.762 2.99999 11.7046 3 11.648C2.99999 11.5914 3.00749 11.534 3.02315 11.4775C3.02755 11.4615 3.03256 11.4458 3.03816 11.4304C4.29417 7.9251 8.48598 5 12.0153 5ZM4.1614 11.648C5.34334 14.5872 9.00943 17.096 12.0153 17.096C15.0341 17.096 18.6841 14.5985 19.8694 11.648C18.6841 8.6975 15.0341 6.2 12.0153 6.2C9.00943 6.2 5.34334 8.70882 4.1614 11.648ZM9.43174 11.6477C9.43174 10.1236 10.5817 8.8877 11.9999 8.8877C13.4181 8.8877 14.5681 10.1236 14.5681 11.6477C14.5681 13.1718 13.4181 14.4077 11.9999 14.4077C10.5817 14.4077 9.43174 13.1718 9.43174 11.6477ZM13.4508 11.6479C13.4508 10.7865 12.8007 10.0879 11.9992 10.0879C11.1977 10.0879 10.5476 10.7865 10.5476 11.6479C10.5476 12.5093 11.1977 13.2079 11.9992 13.2079C12.8007 13.2079 13.4508 12.5093 13.4508 11.6479Z" fill="white"/>
</mask>
<g mask="url(#mask0)">
<rect x="0.767578" y="-0.400391" width="22.3321" height="24" fill="#7E7E7E"/>
</g>
</svg>
