<svg xmlns="http://www.w3.org/2000/svg" xmlns:xlink="http://www.w3.org/1999/xlink" width="15" height="15" viewBox="0 0 15 15">
    <defs>
        <path id="a" d="M7.5 15C3.375 15 0 11.625 0 7.5S3.375 0 7.5 0 15 3.375 15 7.5 11.625 15 7.5 15zm0-13.75c-3.438 0-6.25 2.813-6.25 6.25 0 3.438 2.813 6.25 6.25 6.25 3.438 0 6.25-2.813 6.25-6.25 0-3.438-2.813-6.25-6.25-6.25zm0 7.5c-.375 0-.625-.25-.625-.625V3.75c0-.375.25-.625.625-.625s.625.25.625.625v4.375c0 .313-.25.625-.625.625zm0 1.188c.375 0 .688.312.688.687a.694.694 0 0 1-.688.688.694.694 0 0 1-.688-.688c0-.375.313-.688.688-.688z"/>
    </defs>
    <g fill="none" fill-rule="evenodd" transform="rotate(180 7.5 7.5)">
        <mask id="b" fill="#fff">
            <use xlink:href="#a"/>
        </mask>
        <use fill="#DCBC65" fill-rule="nonzero" xlink:href="#a"/>
        <g fill="#7E7E7E" mask="url(#b)">
            <path d="M0 0h15v15H0z"/>
        </g>
    </g>
</svg>

