<?xml version="1.0" encoding="UTF-8"?>
<svg width="115px" height="114px" viewBox="0 0 115 114" version="1.1" xmlns="http://www.w3.org/2000/svg" xmlns:xlink="http://www.w3.org/1999/xlink">
    <!-- Generator: Sketch 58 (84663) - https://sketch.com -->
    <title>Combined Shape</title>
    <desc>Created with Sketch.</desc>
    <g id="Page-1" stroke="none" stroke-width="1" fill="none" fill-rule="evenodd">
        <g id="27-Dashboard-/-05-Creator-Copy-2" transform="translate(-932.000000, -1649.000000)" fill="#383838">
            <path d="M967.874451,1733 C968.847107,1733 969.635599,1733.76852 969.635599,1734.71654 L969.635599,1761.28354 C969.635599,1761.73877 969.450059,1762.17536 969.119794,1762.49726 C968.789529,1762.81916 968.341593,1763 967.874528,1763 L933.761148,1763 C932.788493,1763 932,1762.23148 932,1761.28346 L932,1734.71654 C932,1733.76852 932.788493,1733 933.761148,1733 L967.874451,1733 Z M1045.62677,1733 C1046.38518,1733 1047,1733.61482 1047,1734.37323 L1047,1761.62677 C1047,1762.38518 1046.38518,1763 1045.62677,1763 L1010.73763,1763 C1009.97922,1763 1009.3644,1762.38518 1009.3644,1761.62677 L1009.3644,1734.37323 C1009.3644,1733.61482 1009.97922,1733 1010.73763,1733 L1045.62677,1733 Z M992.718989,1686 L992.718989,1705.37501 L1029.95117,1705.37501 C1030.87766,1705.37498 1031.63758,1706.06853 1031.71125,1706.95069 L1031.71711,1707.09147 L1031.71711,1726 L1025.28753,1726 L1025.28753,1711.625 L953.720873,1711.625 L953.720873,1726 L947.291301,1726 L947.291301,1707.09147 C947.291301,1706.63624 947.477326,1706.19965 947.808469,1705.87775 C948.09822,1705.59609 948.478304,1705.42242 948.88253,1705.38341 L949.057054,1705.37501 L986.289417,1705.37501 L986.289417,1686 L992.718989,1686 Z M1006.56085,1649 C1007.53351,1649 1008.322,1649.76852 1008.322,1650.71654 L1008.322,1677.28354 C1008.322,1677.73877 1008.13646,1678.17536 1007.8062,1678.49726 C1007.47593,1678.81916 1007.028,1679 1006.56093,1679 L972.447552,1679 C971.474896,1679 970.686404,1678.23148 970.686404,1677.28346 L970.686404,1650.71654 C970.686404,1649.76852 971.474896,1649 972.447552,1649 L1006.56085,1649 Z" id="Combined-Shape"></path>
        </g>
    </g>
</svg>