<?xml version="1.0" encoding="UTF-8"?>
<svg width="213px" height="210px" viewBox="0 0 213 210" version="1.1" xmlns="http://www.w3.org/2000/svg" xmlns:xlink="http://www.w3.org/1999/xlink">
    <title>Group 201</title>
    <defs>
        <polygon id="path-1" points="0.120309463 0.510588635 198.383416 0.510588635 198.383416 115 0.120309463 115"></polygon>
        <polygon id="path-3" points="0 0.28865 31.9058196 0.28865 31.9058196 22.7155667 0 22.7155667"></polygon>
        <polygon id="path-5" points="0 209 212 209 212 0 0 0"></polygon>
    </defs>
    <g id="Page-1" stroke="none" stroke-width="1" fill="none" fill-rule="evenodd">
        <g id="42-User-profile-/-01_01_My-payments" transform="translate(-614.000000, -264.000000)">
            <g id="Group-201" transform="translate(614.000000, 264.000000)">
                <g id="Group-3" transform="translate(14.000000, 94.000000)">
                    <mask id="mask-2" fill="white">
                        <use xlink:href="#path-1"></use>
                    </mask>
                    <g id="Clip-2"></g>
                    <path d="M113.227778,114.264505 L1.39420032,49.6844231 C-0.492825079,48.5950824 -0.255920317,46.6918956 1.92234,45.4332143 L77.9144384,1.55123626 C80.0926987,0.293186813 83.3891495,0.156703297 85.2755432,1.24604396 L197.109753,65.8261264 C198.996778,66.9148352 198.760505,68.8186538 196.580981,70.0767033 L120.589515,113.959313 C118.411254,115.217363 115.114803,115.354478 113.227778,114.264505" id="Fill-1" fill="#1F1F1F" mask="url(#mask-2)"></path>
                </g>
                <path d="M15,96.0985643 L15,99.8531791 C15.0295772,101.413058 15.7262144,102.880185 16.9338446,104.163685 C17.9835202,105.279854 19.419587,106.257521 21.1388397,107.035893 C23.8561652,108.266124 27.2801967,109 31,109 C33.2680039,109 35.42588,108.727381 37.3804916,108.235415 C38.1916618,108.031734 38.9669617,107.789825 39.7007276,107.514699 C40.0833432,107.371183 40.454002,107.219519 40.812704,107.057201 C42.5269223,106.287603 43.9623599,105.32059 45.0183284,104.215075 C46.2549066,102.919667 46.9697935,101.43374 46.9981121,99.8531791 C47,99.8531791 47,96.0985643 47,96.0985643 C46.9546903,94.5361782 46.2429499,93.0677985 45.0183284,91.7855515 C43.9629892,90.6800365 42.5269223,89.7123974 40.812704,88.9421718 C40.454002,88.7817343 40.0833432,88.6288172 39.7007276,88.4853008 C38.9663324,88.2101755 38.1916618,87.9682657 37.3804916,87.7645852 C35.42588,87.2726185 33.2680039,87 31,87 C27.2801967,87 23.8561652,87.7338765 21.1388397,88.9647334 C19.419587,89.7424795 17.9835202,90.7201459 16.9338446,91.8363149 C15.7388004,93.1066545 15.0440511,94.5574863 15.0031465,96.0985643 L15,96.0985643 Z" id="Fill-4" fill="#1F1F1F"></path>
                <path d="M20,95.2710849 L20,98.6846079 C20.0268599,100.103061 20.6583811,101.436644 21.7521432,102.603607 C22.7041098,103.618303 24.0052557,104.506942 25.5637574,105.214609 C28.0261276,106.332897 31.1287641,107 34.5,107 C36.5557231,107 38.5108775,106.752254 40.2823849,106.305439 C41.0169732,106.120097 41.7203291,105.900434 42.3849567,105.649568 C42.7316374,105.519143 43.0676991,105.381229 43.3931418,105.233954 C44.9466463,104.5344 46.2471675,103.655122 47.2041313,102.65041 C48.3247534,101.472214 48.9731401,100.121782 48.9981261,98.6846079 C49,98.6846079 49,95.2710849 49,95.2710849 C48.9593978,93.8513838 48.3141343,92.5159287 47.2041313,91.3502137 C46.2477922,90.3448782 44.9466463,89.4655996 43.3931418,88.7654217 C43.0676991,88.6187713 42.7316374,88.4802334 42.3849567,88.3498081 C41.7197045,88.0995663 41.0169732,87.8799026 40.2823849,87.6945615 C38.5108775,87.2477456 36.5557231,87 34.5,87 C31.1287641,87 28.0261276,87.6664795 25.5637574,88.7853911 C24.0052557,89.4930575 22.7041098,90.3816968 21.7521432,91.396393 C20.6696248,92.5514993 20.0399776,93.8694811 20.0031232,95.2710849 L20,95.2710849 Z" id="Fill-6" fill="#1F1F1F"></path>
                <path d="M20,95.2710849 L20,98.6846079 C20.0268599,100.103061 20.6583811,101.436644 21.7521432,102.603607 C22.7041098,103.618303 24.0052557,104.506942 25.5637574,105.214609 C28.0261276,106.332897 31.1287641,107 34.5,107 C36.5557231,107 38.5108775,106.752254 40.2823849,106.305439 C41.0169732,106.120097 41.7203291,105.900434 42.3849567,105.649568 C42.7316374,105.519143 43.0676991,105.381229 43.3931418,105.233954 C44.9466463,104.5344 46.2471675,103.655122 47.2041313,102.65041 C48.3247534,101.472214 48.9731401,100.121782 48.9981261,98.6846079 C49,98.6846079 49,95.2710849 49,95.2710849 C48.9593978,93.8513838 48.3141343,92.5159287 47.2041313,91.3502137 C46.2477922,90.3448782 44.9466463,89.4655996 43.3931418,88.7654217 C43.0676991,88.6187713 42.7316374,88.4802334 42.3849567,88.3498081 C41.7197045,88.0995663 41.0169732,87.8799026 40.2823849,87.6945615 C38.5108775,87.2477456 36.5557231,87 34.5,87 C31.1287641,87 28.0261276,87.6664795 25.5637574,88.7853911 C24.0052557,89.4930575 22.7041098,90.3816968 21.7521432,91.396393 C20.6696248,92.5514993 20.0399776,93.8694811 20.0031232,95.2710849 L20,95.2710849 Z" id="Stroke-8" stroke="#DBBB64" stroke-linecap="round"></path>
                <path d="M43,88 L43,105 C44.6305524,104.277254 45.9955745,103.369634 47,102.332538 L47,90.6681066 C45.9962301,89.6303664 44.6305524,88.7227464 43,88" id="Fill-10" fill="#1F1F1F"></path>
                <path d="M43,88 L43,105 C44.6305524,104.277254 45.9955745,103.369634 47,102.332538 L47,90.6681066 C45.9962301,89.6303664 44.6305524,88.7227464 43,88 Z" id="Stroke-12" stroke="#DBBB64" stroke-linecap="round"></path>
                <path d="M21,90.7017131 L21,102.298287 C21.9983612,103.348236 23.3644707,104.267748 25,105 L25,88 C23.3644707,88.7322521 21.9983612,89.6517643 21,90.7017131" id="Fill-14" fill="#1F1F1F"></path>
                <path d="M21,90.7017131 L21,102.298287 C21.9983612,103.348236 23.3644707,104.267748 25,105 L25,88 C23.3644707,88.7322521 21.9983612,89.6517643 21,90.7017131 Z" id="Stroke-16" stroke="#DBBB64" stroke-linecap="round"></path>
                <path d="M40,87 L40,106 C40.6987522,105.810777 41.3677956,105.586513 42,105.331031 L42,87.6689692 C41.3672014,87.4128496 40.6987522,87.1885856 40,87" id="Fill-18" fill="#1F1F1F"></path>
                <path d="M40,87 L40,106 C40.6987522,105.810777 41.3677956,105.586513 42,105.331031 L42,87.6689692 C41.3672014,87.4128496 40.6987522,87.1885856 40,87 Z" id="Stroke-20" stroke="#DBBB64" stroke-linecap="round"></path>
                <path d="M49,95.5 C49,90.8052729 42.5080128,87 34.5,87 C26.4919872,87 20,90.8052729 20,95.5 C20,100.194727 26.4919872,104 34.5,104 C42.5080128,104 49,100.194727 49,95.5" id="Fill-22" fill="#1F1F1F"></path>
                <path d="M49,95.5 C49,90.8052729 42.5080128,87 34.5,87 C26.4919872,87 20,90.8052729 20,95.5 C20,100.194727 26.4919872,104 34.5,104 C42.5080128,104 49,100.194727 49,95.5 Z" id="Stroke-24" stroke="#DBBB64" stroke-linecap="round"></path>
                <path d="M22,95 C22,96.3183537 23.0544594,97.6723561 24.9689029,98.8118181 C26.6591949,99.8190558 28.7756906,100.502215 31.1037096,100.811386 C32.0394633,100.936481 33.0099448,101 34,101 C34.8827151,101 35.7490134,100.949444 36.5894238,100.850275 C37.0162589,100.800367 37.435517,100.737496 37.8465667,100.66231 C38.6882399,100.509344 39.4958169,100.306471 40.2598264,100.054337 C41.2694554,99.7218321 42.2020521,99.3057146 43.0310971,98.8118181 C44.9455406,97.6723561 46,96.3183537 46,95 C46,93.6816463 44.9455406,92.3282921 43.0310971,91.1881819 C40.6614049,89.7764935 37.4538279,89 34,89 C32.5673244,89 31.1782163,89.1335206 29.8724546,89.3908394 C29.0402526,89.5548234 28.2421468,89.7687156 27.4901342,90.0305715 C27.1308603,90.1550178 26.7823204,90.2904829 26.445146,90.4369666 C25.9242305,90.6625257 25.4310971,90.9133629 24.9689029,91.1881819 C24.2162589,91.6367074 23.5962115,92.1182889 23.1207577,92.6173706 C22.3883189,93.3873825 22,94.2001728 22,95" id="Fill-26" fill="#1F1F1F"></path>
                <path d="M22,95 C22,96.3183537 23.0544594,97.6723561 24.9689029,98.8118181 C26.6591949,99.8190558 28.7756906,100.502215 31.1037096,100.811386 C32.0394633,100.936481 33.0099448,101 34,101 C34.8827151,101 35.7490134,100.949444 36.5894238,100.850275 C37.0162589,100.800367 37.435517,100.737496 37.8465667,100.66231 C38.6882399,100.509344 39.4958169,100.306471 40.2598264,100.054337 C41.2694554,99.7218321 42.2020521,99.3057146 43.0310971,98.8118181 C44.9455406,97.6723561 46,96.3183537 46,95 C46,93.6816463 44.9455406,92.3282921 43.0310971,91.1881819 C40.6614049,89.7764935 37.4538279,89 34,89 C32.5673244,89 31.1782163,89.1335206 29.8724546,89.3908394 C29.0402526,89.5548234 28.2421468,89.7687156 27.4901342,90.0305715 C27.1308603,90.1550178 26.7823204,90.2904829 26.445146,90.4369666 C25.9242305,90.6625257 25.4310971,90.9133629 24.9689029,91.1881819 C24.2162589,91.6367074 23.5962115,92.1182889 23.1207577,92.6173706 C22.3883189,93.3873825 22,94.2001728 22,95 Z" id="Stroke-28" stroke="#DBBB64" stroke-linecap="round"></path>
                <path d="M24,93.0641836 L31.7051709,100.82144 C32.6083634,100.939866 33.5450752,101 34.5006798,101 C35.3520698,101 36.1888332,100.951525 37,100.858256 L27.2087103,91 C26.7053115,91.2129226 26.2293376,91.4510033 25.7838357,91.7111738 C25.0567718,92.1351783 24.4589096,92.5910904 24,93.0641836" id="Fill-30" fill="#1F1F1F"></path>
                <path d="M24,93.0641836 L31.7051709,100.82144 C32.6083634,100.939866 33.5450752,101 34.5006798,101 C35.3520698,101 36.1888332,100.951525 37,100.858256 L27.2087103,91 C26.7053115,91.2129226 26.2293376,91.4510033 25.7838357,91.7111738 C25.0567718,92.1351783 24.4589096,92.5910904 24,93.0641836 Z" id="Stroke-32" stroke="#DBBB64" stroke-linecap="round"></path>
                <path d="M28,90.6243243 L38.5426947,101 C39.3995056,100.850719 40.2222497,100.652731 41,100.406671 L30.4251669,90 C29.5779975,90.1600345 28.7655377,90.3687752 28,90.6243243" id="Fill-34" fill="#1F1F1F"></path>
                <path d="M28,90.6243243 L38.5426947,101 C39.3995056,100.850719 40.2222497,100.652731 41,100.406671 L30.4251669,90 C29.5779975,90.1600345 28.7655377,90.3687752 28,90.6243243 Z" id="Stroke-36" stroke="#DBBB64" stroke-linecap="round"></path>
                <path d="M31,115.098823 L31,118.853545 C31.0295772,120.413469 31.7262144,121.880637 32.9338446,123.164174 C33.9835202,124.280375 35.419587,125.257442 37.1388397,126.036464 C39.8561652,127.266729 43.2801967,128 47,128 C49.2680039,128 51.42588,127.728 53.3804916,127.23602 C54.1916618,127.032333 54.9669617,126.791044 55.7007276,126.515284 C56.0833432,126.371763 56.454002,126.220095 56.812704,126.057773 C58.5269223,125.288152 59.9623599,124.321112 61.0183284,123.216192 C62.2549066,121.919494 62.9697935,120.434151 62.9981121,118.853545 C63,118.853545 63,115.098823 63,115.098823 C62.9553196,113.536393 62.2429499,112.067971 61.0183284,110.785688 C59.9629892,109.679515 58.5269223,108.712475 56.812704,107.942227 C56.454002,107.781158 56.0833432,107.628864 55.7007276,107.485343 C54.9663324,107.21021 54.1916618,106.968293 53.3804916,106.764607 C51.42588,106.272626 49.2680039,106 47,106 C43.2801967,106 39.8561652,106.733897 37.1388397,107.964163 C35.419587,108.742558 33.9835202,109.719625 32.9338446,110.836453 C31.7388004,112.106828 31.0440511,113.557702 31.0031465,115.098823 L31,115.098823 Z" id="Fill-38" fill="#1F1F1F"></path>
                <path d="M31,115.098823 L31,118.853545 C31.0295772,120.413469 31.7262144,121.880637 32.9338446,123.164174 C33.9835202,124.280375 35.419587,125.257442 37.1388397,126.036464 C39.8561652,127.266729 43.2801967,128 47,128 C49.2680039,128 51.42588,127.728 53.3804916,127.23602 C54.1916618,127.032333 54.9669617,126.791044 55.7007276,126.515284 C56.0833432,126.371763 56.454002,126.220095 56.812704,126.057773 C58.5269223,125.288152 59.9623599,124.321112 61.0183284,123.216192 C62.2549066,121.919494 62.9697935,120.434151 62.9981121,118.853545 C63,118.853545 63,115.098823 63,115.098823 C62.9553196,113.536393 62.2429499,112.067971 61.0183284,110.785688 C59.9629892,109.679515 58.5269223,108.712475 56.812704,107.942227 C56.454002,107.781158 56.0833432,107.628864 55.7007276,107.485343 C54.9663324,107.21021 54.1916618,106.968293 53.3804916,106.764607 C51.42588,106.272626 49.2680039,106 47,106 C43.2801967,106 39.8561652,106.733897 37.1388397,107.964163 C35.419587,108.742558 33.9835202,109.719625 32.9338446,110.836453 C31.7388004,112.106828 31.0440511,113.557702 31.0031465,115.098823 L31,115.098823 Z" id="Stroke-40" stroke="#DBBB64" stroke-linecap="round"></path>
                <path d="M24,116.098823 L24,119.854172 C24.0295772,121.413469 24.7262144,122.880637 25.9338446,124.164801 C26.9835202,125.281002 28.419587,126.257442 30.1388397,127.036464 C32.8561652,128.267356 36.2801967,129 40,129 C42.2680039,129 44.42588,128.728 46.3804916,128.23602 C47.1916618,128.03296 47.9669617,127.791044 48.7007276,127.515284 C49.0833432,127.371763 49.454002,127.220095 49.812704,127.0584 C51.5269223,126.288152 52.9623599,125.321112 54.0183284,124.216192 C55.2549066,122.920121 55.9697935,121.434151 55.9981121,119.854172 C56,119.854172 56,116.098823 56,116.098823 C55.9553196,114.536393 55.2429499,113.067971 54.0183284,111.785688 C52.9629892,110.680141 51.5269223,109.712475 49.812704,108.942227 C49.454002,108.781785 49.0833432,108.628864 48.7007276,108.485343 C47.9663324,108.21021 47.1916618,107.968293 46.3804916,107.764607 C44.42588,107.272626 42.2680039,107 40,107 C36.2801967,107 32.8561652,107.733897 30.1388397,108.964789 C28.419587,109.742558 26.9835202,110.720252 25.9338446,111.836453 C24.7388004,113.106828 24.0440511,114.557702 24.0031465,116.098823 L24,116.098823 Z" id="Fill-42" fill="#1F1F1F"></path>
                <path d="M36,114.271343 L36,117.684973 C36.0262353,119.102846 36.6577564,120.437094 37.7521432,121.604094 C38.7041098,122.618822 40.0052557,123.506865 41.5631327,124.215177 C44.0261276,125.3335 47.1287641,126 50.5,126 C52.5550984,126 54.5108775,125.752871 56.2823849,125.305417 C57.0169732,125.12007 57.7203291,124.901023 58.3849567,124.65015 C58.7316374,124.51972 59.0676991,124.381802 59.3925171,124.234523 C60.9460216,123.534324 62.2471675,122.655642 63.2041313,121.650899 C64.3247534,120.472666 64.9725154,119.121568 64.9981261,117.684973 C65,117.684973 65,114.271343 65,114.271343 C64.9593978,112.850974 64.3141343,111.516101 63.2041313,110.349725 C62.2477922,109.344358 60.9460216,108.465676 59.3925171,107.765477 C59.0676991,107.618822 58.7316374,107.48028 58.3849567,107.34985 C57.7197045,107.099601 57.0169732,106.87993 56.2823849,106.694583 C54.5108775,106.247753 52.5550984,106 50.5,106 C47.1287641,106 44.0261276,106.6665 41.5631327,107.785447 C40.0052557,108.493135 38.7041098,109.381802 37.7521432,110.39653 C36.6690001,111.551672 36.0399776,112.869695 36.0031232,114.271343 L36,114.271343 Z" id="Fill-44" fill="#1F1F1F"></path>
                <path d="M36,114.271343 L36,117.684973 C36.0262353,119.102846 36.6577564,120.437094 37.7521432,121.604094 C38.7041098,122.618822 40.0052557,123.506865 41.5631327,124.215177 C44.0261276,125.3335 47.1287641,126 50.5,126 C52.5550984,126 54.5108775,125.752871 56.2823849,125.305417 C57.0169732,125.12007 57.7203291,124.901023 58.3849567,124.65015 C58.7316374,124.51972 59.0676991,124.381802 59.3925171,124.234523 C60.9460216,123.534324 62.2471675,122.655642 63.2041313,121.650899 C64.3247534,120.472666 64.9725154,119.121568 64.9981261,117.684973 C65,117.684973 65,114.271343 65,114.271343 C64.9593978,112.850974 64.3141343,111.516101 63.2041313,110.349725 C62.2477922,109.344358 60.9460216,108.465676 59.3925171,107.765477 C59.0676991,107.618822 58.7316374,107.48028 58.3849567,107.34985 C57.7197045,107.099601 57.0169732,106.87993 56.2823849,106.694583 C54.5108775,106.247753 52.5550984,106 50.5,106 C47.1287641,106 44.0261276,106.6665 41.5631327,107.785447 C40.0052557,108.493135 38.7041098,109.381802 37.7521432,110.39653 C36.6690001,111.551672 36.0399776,112.869695 36.0031232,114.271343 L36,114.271343 Z" id="Stroke-46" stroke="#DBBB64" stroke-linecap="round"></path>
                <path d="M60,107 L60,124 C61.6302852,123.277254 62.9957391,122.369634 64,121.332538 L64,109.668107 C62.9957391,108.630366 61.6302852,107.722746 60,107" id="Fill-48" fill="#1F1F1F"></path>
                <path d="M60,107 L60,124 C61.6302852,123.277254 62.9957391,122.369634 64,121.332538 L64,109.668107 C62.9957391,108.630366 61.6302852,107.722746 60,107 Z" id="Stroke-50" stroke="#DBBB64" stroke-linecap="round"></path>
                <path d="M57,106 L57,125 C57.6987522,124.810777 58.3677956,124.58715 59,124.331031 L59,106.668969 C58.3672014,106.413487 57.6987522,106.189223 57,106" id="Fill-52" fill="#1F1F1F"></path>
                <path d="M57,106 L57,125 C57.6987522,124.810777 58.3677956,124.58715 59,124.331031 L59,106.668969 C58.3672014,106.413487 57.6987522,106.189223 57,106 Z" id="Stroke-54" stroke="#DBBB64" stroke-linecap="round"></path>
                <path d="M65,114.5 C65,109.805273 58.5080128,106 50.5,106 C42.4919872,106 36,109.805273 36,114.5 C36,119.194727 42.4919872,123 50.5,123 C58.5080128,123 65,119.194727 65,114.5" id="Fill-56" fill="#1F1F1F"></path>
                <path d="M65,114.5 C65,109.805273 58.5080128,106 50.5,106 C42.4919872,106 36,109.805273 36,114.5 C36,119.194727 42.4919872,123 50.5,123 C58.5080128,123 65,119.194727 65,114.5 Z" id="Stroke-58" stroke="#DBBB64" stroke-linecap="round"></path>
                <path d="M44,109.624324 L54.5433375,120 C55.3995056,119.851351 56.2222497,119.652731 57,119.406671 L46.4258096,109 C45.5786403,109.160035 44.7655377,109.368775 44,109.624324" id="Fill-60" fill="#1F1F1F"></path>
                <path d="M44,109.624324 L54.5433375,120 C55.3995056,119.851351 56.2222497,119.652731 57,119.406671 L46.4258096,109 C45.5786403,109.160035 44.7655377,109.368775 44,109.624324 Z" id="Stroke-62" stroke="#DBBB64" stroke-linecap="round"></path>
                <path d="M39,107.271085 L39,110.684608 C39.0268599,112.102437 39.6577564,113.436644 40.7527678,114.603607 C41.7041098,115.618303 43.0052557,116.506318 44.5637574,117.214609 C47.0261276,118.332897 50.1287641,119 53.5,119 C55.5550984,119 57.5108775,118.752254 59.2823849,118.304815 C60.0169732,118.119473 60.7203291,117.89981 61.3849567,117.649568 C61.7316374,117.519143 62.0676991,117.381229 62.3931418,117.233954 C63.9460216,116.5344 65.2477922,115.655122 66.2041313,114.65041 C67.3247534,113.472214 67.9731401,112.121158 67.9981261,110.684608 C68,110.684608 68,107.271085 68,107.271085 C67.9593978,105.85076 67.3141343,104.515305 66.2041313,103.34959 C65.2477922,102.344254 63.9460216,101.4656 62.3931418,100.764798 C62.0676991,100.618771 61.7316374,100.480233 61.3849567,100.349808 C60.7197045,100.099566 60.0169732,99.8799026 59.2823849,99.6945615 C57.5108775,99.2477456 55.5550984,99 53.5,99 C50.1287641,99 47.0261276,99.6664795 44.5637574,100.785391 C43.0052557,101.493058 41.7041098,102.381697 40.7527678,103.396393 C39.6696248,104.551499 39.0399776,105.869481 39.0031232,107.271085 L39,107.271085 Z" id="Fill-64" fill="#1F1F1F"></path>
                <path d="M39,107.271085 L39,110.684608 C39.0268599,112.102437 39.6577564,113.436644 40.7527678,114.603607 C41.7041098,115.618303 43.0052557,116.506318 44.5637574,117.214609 C47.0261276,118.332897 50.1287641,119 53.5,119 C55.5550984,119 57.5108775,118.752254 59.2823849,118.304815 C60.0169732,118.119473 60.7203291,117.89981 61.3849567,117.649568 C61.7316374,117.519143 62.0676991,117.381229 62.3931418,117.233954 C63.9460216,116.5344 65.2477922,115.655122 66.2041313,114.65041 C67.3247534,113.472214 67.9731401,112.121158 67.9981261,110.684608 C68,110.684608 68,107.271085 68,107.271085 C67.9593978,105.85076 67.3141343,104.515305 66.2041313,103.34959 C65.2477922,102.344254 63.9460216,101.4656 62.3931418,100.764798 C62.0676991,100.618771 61.7316374,100.480233 61.3849567,100.349808 C60.7197045,100.099566 60.0169732,99.8799026 59.2823849,99.6945615 C57.5108775,99.2477456 55.5550984,99 53.5,99 C50.1287641,99 47.0261276,99.6664795 44.5637574,100.785391 C43.0052557,101.493058 41.7041098,102.381697 40.7527678,103.396393 C39.6696248,104.551499 39.0399776,105.869481 39.0031232,107.271085 L39,107.271085 Z" id="Stroke-66" stroke="#DBBB64" stroke-linecap="round"></path>
                <path d="M62,101 L62,118 C63.6298967,117.277898 64.9962301,116.370278 66,115.332538 L66,103.668107 C64.9962301,102.630366 63.6298967,101.723391 62,101" id="Fill-68" fill="#1F1F1F"></path>
                <path d="M62,101 L62,118 C63.6298967,117.277898 64.9962301,116.370278 66,115.332538 L66,103.668107 C64.9962301,102.630366 63.6298967,101.723391 62,101 Z" id="Stroke-70" stroke="#DBBB64" stroke-linecap="round"></path>
                <path d="M40,103.701713 L40,115.298287 C40.9985248,116.348236 42.3642026,117.267748 44,118 L44,101 C42.3642026,101.732252 40.9985248,102.651764 40,103.701713" id="Fill-72" fill="#1F1F1F"></path>
                <path d="M40,103.701713 L40,115.298287 C40.9985248,116.348236 42.3642026,117.267748 44,118 L44,101 C42.3642026,101.732252 40.9985248,102.651764 40,103.701713 Z" id="Stroke-74" stroke="#DBBB64" stroke-linecap="round"></path>
                <path d="M59,100 L59,119 C59.6987522,118.810777 60.3677956,118.586513 61,118.331031 L61,100.668969 C60.3672014,100.413487 59.6987522,100.189223 59,100" id="Fill-76" fill="#1F1F1F"></path>
                <path d="M59,100 L59,119 C59.6987522,118.810777 60.3677956,118.586513 61,118.331031 L61,100.668969 C60.3672014,100.413487 59.6987522,100.189223 59,100 Z" id="Stroke-78" stroke="#DBBB64" stroke-linecap="round"></path>
                <path d="M68,107.5 C68,102.805273 61.5080128,99 53.5,99 C45.4919872,99 39,102.805273 39,107.5 C39,112.194727 45.4919872,116 53.5,116 C61.5080128,116 68,112.194727 68,107.5" id="Fill-80" fill="#1F1F1F"></path>
                <path d="M68,107.5 C68,102.805273 61.5080128,99 53.5,99 C45.4919872,99 39,102.805273 39,107.5 C39,112.194727 45.4919872,116 53.5,116 C61.5080128,116 68,112.194727 68,107.5 Z" id="Stroke-82" stroke="#DBBB64" stroke-linecap="round"></path>
                <path d="M37,101.271709 L37,104.685232 C37.0262353,106.103061 37.6577564,107.437268 38.7521432,108.604231 C39.7041098,109.618303 41.0052557,110.506942 42.5637574,111.214609 C45.0261276,112.333521 48.1287641,113 51.5,113 C53.5550984,113 55.5108775,112.752254 57.2823849,112.305439 C58.0169732,112.120097 58.7203291,111.900434 59.3849567,111.650192 C59.7316374,111.519767 60.0676991,111.381853 60.3925171,111.234578 C61.9460216,110.535024 63.2471675,109.655746 64.2041313,108.65041 C65.3247534,107.472838 65.9725154,106.121782 65.9981261,104.685232 C66,104.685232 66,101.271709 66,101.271709 C65.9593978,99.8513838 65.3141343,98.5159287 64.2041313,97.3502137 C63.2477922,96.3448782 61.9460216,95.4655996 60.3925171,94.7654217 C60.0676991,94.6193953 59.7316374,94.4808574 59.3849567,94.3504322 C58.7197045,94.1001903 58.0169732,93.8799026 57.2823849,93.6951855 C55.5108775,93.2477456 53.5550984,93 51.5,93 C48.1287641,93 45.0261276,93.6671035 42.5637574,94.7853911 C41.0052557,95.4930575 39.7041098,96.3816968 38.7521432,97.3970171 C37.6690001,98.5514993 37.0399776,99.8701052 37.0031232,101.271709 L37,101.271709 Z" id="Fill-84" fill="#1F1F1F"></path>
                <path d="M37,101.271709 L37,104.685232 C37.0262353,106.103061 37.6577564,107.437268 38.7521432,108.604231 C39.7041098,109.618303 41.0052557,110.506942 42.5637574,111.214609 C45.0261276,112.333521 48.1287641,113 51.5,113 C53.5550984,113 55.5108775,112.752254 57.2823849,112.305439 C58.0169732,112.120097 58.7203291,111.900434 59.3849567,111.650192 C59.7316374,111.519767 60.0676991,111.381853 60.3925171,111.234578 C61.9460216,110.535024 63.2471675,109.655746 64.2041313,108.65041 C65.3247534,107.472838 65.9725154,106.121782 65.9981261,104.685232 C66,104.685232 66,101.271709 66,101.271709 C65.9593978,99.8513838 65.3141343,98.5159287 64.2041313,97.3502137 C63.2477922,96.3448782 61.9460216,95.4655996 60.3925171,94.7654217 C60.0676991,94.6193953 59.7316374,94.4808574 59.3849567,94.3504322 C58.7197045,94.1001903 58.0169732,93.8799026 57.2823849,93.6951855 C55.5108775,93.2477456 53.5550984,93 51.5,93 C48.1287641,93 45.0261276,93.6671035 42.5637574,94.7853911 C41.0052557,95.4930575 39.7041098,96.3816968 38.7521432,97.3970171 C37.6690001,98.5514993 37.0399776,99.8701052 37.0031232,101.271709 L37,101.271709 Z" id="Stroke-86" stroke="#DBBB64" stroke-linecap="round"></path>
                <path d="M38,97.7017131 L38,109.298287 C38.9983612,110.348236 40.3644707,111.267748 42,112 L42,95 C40.3644707,95.7322521 38.9983612,96.6517643 38,97.7017131" id="Fill-88" fill="#1F1F1F"></path>
                <path d="M38,97.7017131 L38,109.298287 C38.9983612,110.348236 40.3644707,111.267748 42,112 L42,95 C40.3644707,95.7322521 38.9983612,96.6517643 38,97.7017131 Z" id="Stroke-90" stroke="#DBBB64" stroke-linecap="round"></path>
                <path d="M57,94 L57,113 C57.6987522,112.810777 58.3677956,112.586513 59,112.331031 L59,94.6689692 C58.3672014,94.4134867 57.6987522,94.1885856 57,94" id="Fill-92" fill="#1F1F1F"></path>
                <path d="M57,94 L57,113 C57.6987522,112.810777 58.3677956,112.586513 59,112.331031 L59,94.6689692 C58.3672014,94.4134867 57.6987522,94.1885856 57,94 Z" id="Stroke-94" stroke="#DBBB64" stroke-linecap="round"></path>
                <path d="M66,101.5 C66,96.8052729 59.5080128,93 51.5,93 C43.4919872,93 37,96.8052729 37,101.5 C37,106.194727 43.4919872,110 51.5,110 C59.5080128,110 66,106.194727 66,101.5" id="Fill-96" fill="#1F1F1F"></path>
                <path d="M66,101.5 C66,96.8052729 59.5080128,93 51.5,93 C43.4919872,93 37,96.8052729 37,101.5 C37,106.194727 43.4919872,110 51.5,110 C59.5080128,110 66,106.194727 66,101.5 Z" id="Stroke-98" stroke="#DBBB64" stroke-linecap="round"></path>
                <path d="M18,88.2710849 L18,91.6846079 C18.0262353,93.1030609 18.6577564,94.4366439 19.7521432,95.603607 C20.7034851,96.6183032 22.0052557,97.5069425 23.5631327,98.2146089 C26.0261276,99.3328965 29.1281394,100 32.5,100 C34.5550984,100 36.5108775,99.7522544 38.2823849,99.3048145 C39.0169732,99.1200974 39.7197045,98.9004337 40.3849567,98.6495678 C40.7316374,98.5191426 41.0676991,98.3812287 41.3925171,98.2339543 C42.9460216,97.5344004 44.2471675,96.6551218 45.2041313,95.6504103 C46.3247534,94.4722144 46.9725154,93.1211582 46.9981261,91.6846079 C47,91.6846079 47,88.2710849 47,88.2710849 C46.9593978,86.8513838 46.3141343,85.5159287 45.2041313,84.3502137 C44.2477922,83.3442541 42.9460216,82.4655996 41.3925171,81.7654217 C41.0676991,81.6187713 40.7316374,81.4802334 40.3849567,81.3498081 C39.7197045,81.0995663 39.0169732,80.8799026 38.2823849,80.6945615 C36.5108775,80.2477456 34.5550984,80 32.5,80 C29.1281394,80 26.0261276,80.6664795 23.5631327,81.7853911 C22.0052557,82.4930575 20.7034851,83.3816968 19.7521432,84.396393 C18.6690001,85.5514993 18.0399776,86.8694811 18.0031232,88.2710849 L18,88.2710849 Z" id="Fill-100" fill="#1F1F1F"></path>
                <path d="M18,88.2710849 L18,91.6846079 C18.0262353,93.1030609 18.6577564,94.4366439 19.7521432,95.603607 C20.7034851,96.6183032 22.0052557,97.5069425 23.5631327,98.2146089 C26.0261276,99.3328965 29.1281394,100 32.5,100 C34.5550984,100 36.5108775,99.7522544 38.2823849,99.3048145 C39.0169732,99.1200974 39.7197045,98.9004337 40.3849567,98.6495678 C40.7316374,98.5191426 41.0676991,98.3812287 41.3925171,98.2339543 C42.9460216,97.5344004 44.2471675,96.6551218 45.2041313,95.6504103 C46.3247534,94.4722144 46.9725154,93.1211582 46.9981261,91.6846079 C47,91.6846079 47,88.2710849 47,88.2710849 C46.9593978,86.8513838 46.3141343,85.5159287 45.2041313,84.3502137 C44.2477922,83.3442541 42.9460216,82.4655996 41.3925171,81.7654217 C41.0676991,81.6187713 40.7316374,81.4802334 40.3849567,81.3498081 C39.7197045,81.0995663 39.0169732,80.8799026 38.2823849,80.6945615 C36.5108775,80.2477456 34.5550984,80 32.5,80 C29.1281394,80 26.0261276,80.6664795 23.5631327,81.7853911 C22.0052557,82.4930575 20.7034851,83.3816968 19.7521432,84.396393 C18.6690001,85.5514993 18.0399776,86.8694811 18.0031232,88.2710849 L18,88.2710849 Z" id="Stroke-102" stroke="#DBBB64" stroke-linecap="round"></path>
                <path d="M20,84.7017131 L20,96.2976412 C20.9985248,97.3482357 22.3642026,98.2677479 24,99 L24,82 C22.3642026,82.7322521 20.9985248,83.6517643 20,84.7017131" id="Fill-104" fill="#1F1F1F"></path>
                <path d="M20,84.7017131 L20,96.2976412 C20.9985248,97.3482357 22.3642026,98.2677479 24,99 L24,82 C22.3642026,82.7322521 20.9985248,83.6517643 20,84.7017131 Z" id="Stroke-106" stroke="#DBBB64" stroke-linecap="round"></path>
                <path d="M47,88.5 C47,83.8052729 40.5080128,80 32.5,80 C24.4919872,80 18,83.8052729 18,88.5 C18,93.1947271 24.4919872,97 32.5,97 C40.5080128,97 47,93.1947271 47,88.5" id="Fill-108" fill="#1F1F1F"></path>
                <path d="M47,88.5 C47,83.8052729 40.5080128,80 32.5,80 C24.4919872,80 18,83.8052729 18,88.5 C18,93.1947271 24.4919872,97 32.5,97 C40.5080128,97 47,93.1947271 47,88.5 Z" id="Stroke-110" stroke="#DBBB64" stroke-linecap="round"></path>
                <g id="Group-114" transform="translate(0.000000, 101.000000)">
                    <mask id="mask-4" fill="white">
                        <use xlink:href="#path-3"></use>
                    </mask>
                    <g id="Clip-113"></g>
                    <path d="M-6.2745098e-05,9.5634 L-6.2745098e-05,13.3916222 C0.029427451,14.9811778 0.724015686,16.4768167 1.92809412,17.7852611 C2.97468235,18.9237611 4.40652549,19.9197889 6.12072157,20.7132889 C8.8300549,21.9674278 12.2440157,22.7155667 15.9528784,22.7155667 C18.2142118,22.7155667 20.3657412,22.43765 22.3146039,21.9361222 C23.1233882,21.7284833 23.8964078,21.4825111 24.6280157,21.2014 C25.0095059,21.0550944 25.3790745,20.9004833 25.7367216,20.7350111 C27.445898,19.9504556 28.8771137,18.96465 29.9299765,17.8382889 C31.1629176,16.5170667 31.875702,15.0022611 31.9039373,13.3916222 C31.9058196,13.3916222 31.9058196,9.5634 31.9058196,9.5634 C31.8606431,7.97128889 31.1509961,6.47373333 29.9299765,5.16656667 C28.8777412,4.03956667 27.445898,3.05312222 25.7367216,2.26856667 C25.3790745,2.10437222 25.0095059,1.94848333 24.6280157,1.80281667 C23.8957804,1.52170556 23.1233882,1.27509444 22.3146039,1.06809444 C20.3657412,0.565927778 18.2142118,0.28865 15.9528784,0.28865 C12.2440157,0.28865 8.8300549,1.03615 6.12072157,2.29092778 C4.40652549,3.08378889 2.97468235,4.08045556 1.92809412,5.21831667 C0.736564706,6.51334444 0.0438588235,7.99237222 0.0030745098,9.5634 L-6.2745098e-05,9.5634 Z" id="Fill-112" fill="#1F1F1F" mask="url(#mask-4)"></path>
                </g>
                <path d="M4,109.271085 L4,112.684608 C4.0262353,114.102437 4.65775643,115.436644 5.7521432,116.603607 C6.70348512,117.618303 8.00525568,118.506942 9.56313273,119.214609 C12.025503,120.332897 15.1281394,121 18.5,121 C20.5550984,121 22.5108775,120.752254 24.2823849,120.304815 C25.0169732,120.120097 25.7197045,119.89981 26.3849567,119.649568 C26.7316374,119.519143 27.0676991,119.381229 27.3925171,119.233954 C28.9460216,118.5344 30.2471675,117.655122 31.2035067,116.65041 C32.3247534,115.472214 32.9725154,114.121158 32.9981261,112.684608 C33,112.684608 33,109.271085 33,109.271085 C32.9587731,107.851384 32.3141343,106.515305 31.2035067,105.34959 C30.2477922,104.344254 28.9460216,103.4656 27.3925171,102.765422 C27.0676991,102.618771 26.7316374,102.480233 26.3849567,102.349808 C25.7197045,102.099566 25.0169732,101.879903 24.2823849,101.694561 C22.5108775,101.247746 20.5550984,101 18.5,101 C15.1281394,101 12.025503,101.666479 9.56313273,102.785391 C8.00525568,103.493058 6.70348512,104.381697 5.7521432,105.396393 C4.66900013,106.551499 4.03935295,107.869481 4.0024986,109.271085 L4,109.271085 Z" id="Fill-115" fill="#1F1F1F"></path>
                <path d="M4,109.271085 L4,112.684608 C4.0262353,114.102437 4.65775643,115.436644 5.7521432,116.603607 C6.70348512,117.618303 8.00525568,118.506942 9.56313273,119.214609 C12.025503,120.332897 15.1281394,121 18.5,121 C20.5550984,121 22.5108775,120.752254 24.2823849,120.304815 C25.0169732,120.120097 25.7197045,119.89981 26.3849567,119.649568 C26.7316374,119.519143 27.0676991,119.381229 27.3925171,119.233954 C28.9460216,118.5344 30.2471675,117.655122 31.2035067,116.65041 C32.3247534,115.472214 32.9725154,114.121158 32.9981261,112.684608 C33,112.684608 33,109.271085 33,109.271085 C32.9587731,107.851384 32.3141343,106.515305 31.2035067,105.34959 C30.2477922,104.344254 28.9460216,103.4656 27.3925171,102.765422 C27.0676991,102.618771 26.7316374,102.480233 26.3849567,102.349808 C25.7197045,102.099566 25.0169732,101.879903 24.2823849,101.694561 C22.5108775,101.247746 20.5550984,101 18.5,101 C15.1281394,101 12.025503,101.666479 9.56313273,102.785391 C8.00525568,103.493058 6.70348512,104.381697 5.7521432,105.396393 C4.66900013,106.551499 4.03935295,107.869481 4.0024986,109.271085 L4,109.271085 Z" id="Stroke-117" stroke="#DBBB64" stroke-linecap="round"></path>
                <path d="M24,101 L24,120 C24.6987522,119.810777 25.3677956,119.586513 26,119.331031 L26,101.668969 C25.3672014,101.41285 24.6987522,101.188586 24,101" id="Fill-119" fill="#1F1F1F"></path>
                <path d="M24,101 L24,120 C24.6987522,119.810777 25.3677956,119.586513 26,119.331031 L26,101.668969 C25.3672014,101.41285 24.6987522,101.188586 24,101 Z" id="Stroke-121" stroke="#DBBB64" stroke-linecap="round"></path>
                <path d="M33,109.5 C33,104.805273 26.5080128,101 18.5,101 C10.4919872,101 4,104.805273 4,109.5 C4,114.194727 10.4919872,118 18.5,118 C26.5080128,118 33,114.194727 33,109.5" id="Fill-123" fill="#1F1F1F"></path>
                <path d="M33,109.5 C33,104.805273 26.5080128,101 18.5,101 C10.4919872,101 4,104.805273 4,109.5 C4,114.194727 10.4919872,118 18.5,118 C26.5080128,118 33,114.194727 33,109.5 Z" id="Stroke-125" stroke="#DBBB64" stroke-linecap="round"></path>
                <polygon id="Fill-127" fill="#1F1F1F" points="176 149 162 140.994133 162 136 176 144.005867"></polygon>
                <polygon id="Stroke-129" stroke="#DBBB64" stroke-linecap="round" points="176 149 162 140.994133 162 136 176 144.005867"></polygon>
                <path d="M176,143.840711 L179,142 L179,145.634412 C179,146.577942 178.52648,147.449962 177.757009,147.922058 L176,149 L176,143.840711 Z" id="Fill-131" fill="#1F1F1F"></path>
                <path d="M176,143.840711 L179,142 L179,145.634412 C179,146.577942 178.52648,147.449962 177.757009,147.922058 L176,149 L176,143.840711 Z" id="Stroke-133" stroke="#DBBB64" stroke-linecap="round"></path>
                <polygon id="Fill-135" fill="#1F1F1F" points="175.90541 144 162 135.820444 165.095233 134 179 142.179556"></polygon>
                <polygon id="Stroke-137" stroke="#DBBB64" stroke-linecap="round" points="175.90541 144 162 135.820444 165.095233 134 179 142.179556"></polygon>
                <polygon id="Fill-139" fill="#1F1F1F" points="119 117 105 108.994528 105 104 119 112.006113"></polygon>
                <polygon id="Stroke-141" stroke="#DBBB64" stroke-linecap="round" points="119 117 105 108.994528 105 104 119 112.006113"></polygon>
                <path d="M119,111.841199 L122,110 L122,113.63473 C122,114.578171 121.525955,115.450109 120.757267,115.92216 L119,117 L119,111.841199 Z" id="Fill-143" fill="#1F1F1F"></path>
                <path d="M119,111.841199 L122,110 L122,113.63473 C122,114.578171 121.525955,115.450109 120.757267,115.92216 L119,117 L119,111.841199 Z" id="Stroke-145" stroke="#DBBB64" stroke-linecap="round"></path>
                <polygon id="Fill-147" fill="#1F1F1F" points="118.904884 112 105 103.820325 108.095116 102 122 110.179675"></polygon>
                <polygon id="Stroke-149" stroke="#DBBB64" stroke-linecap="round" points="118.904884 112 105 103.820325 108.095116 102 122 110.179675"></polygon>
                <polygon id="Fill-151" fill="#1F1F1F" points="89 9.13177498 91.3125948 8 92 8.94323144 89.5570941 10"></polygon>
                <polygon id="Stroke-153" stroke="#DBBB64" stroke-linecap="round" points="89 9.13177498 91.3125948 8 92 8.94323144 89.5570941 10"></polygon>
                <polygon id="Fill-155" fill="#1F1F1F" points="195 112.811782 192.315609 114 192 112.254353 194.769968 111"></polygon>
                <polygon id="Stroke-157" stroke="#DBBB64" stroke-linecap="round" points="195 112.811782 192.315609 114 192 112.254353 194.769968 111"></polygon>
                <path d="M192.948392,151.633747 L93.0522416,93.9295376 C91.3668266,92.9555493 90,90.3434612 90,88.0951135 L90,9.67480198 C90,7.42645436 91.3668266,6.39289885 93.0522416,7.3662534 L192.948392,65.0704624 C194.633807,66.0444507 196,68.6565388 196,70.9048865 L196,149.325198 C196,151.573546 194.633807,152.607101 192.948392,151.633747" id="Fill-159" fill="#1F1F1F"></path>
                <path d="M192.948392,151.633747 L93.0522416,93.9295376 C91.3668266,92.9555493 90,90.3434612 90,88.0951135 L90,9.67480198 C90,7.42645436 91.3668266,6.39289885 93.0522416,7.3662534 L192.948392,65.0704624 C194.633807,66.0444507 196,68.6565388 196,70.9048865 L196,149.325198 C196,151.573546 194.633807,152.607101 192.948392,151.633747 Z" id="Stroke-161" stroke="#DBBB64" stroke-linecap="round"></path>
                <path d="M190.94841,152.633747 L91.0522234,94.9295376 C89.3668184,93.9555493 88,91.3434612 88,89.0951135 L88,10.674802 C88,8.42645436 89.3668184,7.39289885 91.0522234,8.3662534 L190.94841,66.0704624 C192.633815,67.0444507 194,69.6565388 194,71.9048865 L194,150.325198 C194,152.573546 192.633815,153.607101 190.94841,152.633747" id="Fill-163" fill="#1F1F1F"></path>
                <path d="M190.94841,152.633747 L91.0522234,94.9295376 C89.3668184,93.9555493 88,91.3434612 88,89.0951135 L88,10.674802 C88,8.42645436 89.3668184,7.39289885 91.0522234,8.3662534 L190.94841,66.0704624 C192.633815,67.0444507 194,69.6565388 194,71.9048865 L194,150.325198 C194,152.573546 192.633815,153.607101 190.94841,152.633747 Z" id="Stroke-165" stroke="#DBBB64" stroke-linecap="round"></path>
                <mask id="mask-6" fill="white">
                    <use xlink:href="#path-5"></use>
                </mask>
                <g id="Clip-168"></g>
                <polygon id="Fill-167" fill="#1F1F1F" mask="url(#mask-6)" points="17 146 27 146 27 140 17 140"></polygon>
                <polygon id="Stroke-169" stroke="#DBBB64" stroke-linecap="round" mask="url(#mask-6)" points="17 146 27 146 27 140 17 140"></polygon>
                <polygon id="Fill-170" fill="#1F1F1F" mask="url(#mask-6)" points="188 164 194 164 194 158 188 158"></polygon>
                <polygon id="Stroke-171" stroke="#DBBB64" stroke-linecap="round" mask="url(#mask-6)" points="188 164 194 164 194 158 188 158"></polygon>
                <path d="M117.977424,205.344198 L18.1371457,147.809509 C16.452684,146.839013 16.6641121,145.143806 18.6087443,144.022303 L86.4505806,104.92702 C88.3958458,103.806149 91.3381148,103.684837 93.0232095,104.655332 L192.862854,162.190022 C194.547316,163.160517 194.335888,164.856356 192.391256,165.977227 L124.549419,205.07251 C122.604787,206.194013 119.661885,206.315325 117.977424,205.344198" id="Fill-172" fill="#1F1F1F" mask="url(#mask-6)"></path>
                <path d="M117.977424,205.344198 L18.1371457,147.809509 C16.452684,146.839013 16.6641121,145.143806 18.6087443,144.022303 L86.4505806,104.92702 C88.3958458,103.806149 91.3381148,103.684837 93.0232095,104.655332 L192.862854,162.190022 C194.547316,163.160517 194.335888,164.856356 192.391256,165.977227 L124.549419,205.07251 C122.604787,206.194013 119.661885,206.315325 117.977424,205.344198 Z" id="Stroke-173" stroke="#DBBB64" stroke-linecap="round" mask="url(#mask-6)"></path>
                <path d="M117.977424,199.344723 L18.1371457,141.809104 C16.452684,140.838604 16.6641121,139.143388 18.6087443,138.021879 L86.4505806,98.9270252 C88.3958458,97.8061481 91.3381148,97.6848356 93.0232095,98.6553357 L192.862854,156.189691 C194.547316,157.160823 194.335888,158.856671 192.391256,159.977548 L124.549419,199.072402 C122.604787,200.193911 119.661885,200.315223 117.977424,199.344723" id="Fill-174" fill="#1F1F1F" mask="url(#mask-6)"></path>
                <path d="M117.977424,199.344723 L18.1371457,141.809104 C16.452684,140.838604 16.6641121,139.143388 18.6087443,138.021879 L86.4505806,98.9270252 C88.3958458,97.8061481 91.3381148,97.6848356 93.0232095,98.6553357 L192.862854,156.189691 C194.547316,157.160823 194.335888,158.856671 192.391256,159.977548 L124.549419,199.072402 C122.604787,200.193911 119.661885,200.315223 117.977424,199.344723 Z" id="Stroke-175" stroke="#DBBB64" stroke-linecap="round" mask="url(#mask-6)"></path>
                <path d="M51.2839063,124.627284 L87.4321136,103.741705 C88.9835415,102.845038 91.3305734,102.747725 92.6742603,103.524331 L184.092955,156.343641 C185.436642,157.120247 185.26805,158.476305 183.71599,159.372972 L147.568415,180.258552 C146.016355,181.155219 143.669323,181.2519 142.325636,180.475926 L50.907573,127.656616 C49.5632547,126.88001 49.731847,125.523951 51.2839063,124.627284" id="Fill-176" fill="#1F1F1F" mask="url(#mask-6)"></path>
                <path d="M51.2839063,124.627284 L87.4321136,103.741705 C88.9835415,102.845038 91.3305734,102.747725 92.6742603,103.524331 L184.092955,156.343641 C185.436642,157.120247 185.26805,158.476305 183.71599,159.372972 L147.568415,180.258552 C146.016355,181.155219 143.669323,181.2519 142.325636,180.475926 L50.907573,127.656616 C49.5632547,126.88001 49.731847,125.523951 51.2839063,124.627284 Z" id="Stroke-177" stroke="#DBBB64" stroke-linecap="round" mask="url(#mask-6)"></path>
                <path d="M59.3330582,156.824246 L73.4425635,148.761777 C75.0545503,147.840712 77.4919711,147.741036 78.887879,148.53845 L106.057728,164.064066 C107.453636,164.861481 107.27835,166.254433 105.666364,167.175497 L91.5568584,175.237967 C89.945509,176.159031 87.5080881,176.259339 86.1121803,175.461293 L58.9423315,159.936309 C57.5464236,159.138263 57.7217088,157.745311 59.3330582,156.824246" id="Fill-178" fill="#1F1F1F" mask="url(#mask-6)"></path>
                <path d="M59.3330582,156.824246 L73.4425635,148.761777 C75.0545503,147.840712 77.4919711,147.741036 78.887879,148.53845 L106.057728,164.064066 C107.453636,164.861481 107.27835,166.254433 105.666364,167.175497 L91.5568584,175.237967 C89.945509,176.159031 87.5080881,176.259339 86.1121803,175.461293 L58.9423315,159.936309 C57.5464236,159.138263 57.7217088,157.745311 59.3330582,156.824246 Z" id="Stroke-179" stroke="#DBBB64" stroke-linecap="round" mask="url(#mask-6)"></path>
                <path d="M172,175.681555 L172,174.520261 C172,174.252931 172.157196,173.941268 172.350032,173.825469 L178.649968,170.043157 C178.84344,169.928021 179,170.051098 179,170.319089 L179,171.47906 C179,171.74705 178.84344,172.058052 178.649968,172.173851 L172.350032,175.956163 C172.157196,176.072623 172,175.948884 172,175.681555" id="Fill-180" fill="#DFBA53" mask="url(#mask-6)"></path>
                <path d="M162,180.681175 L162,179.520507 C162,179.253169 162.15656,178.941496 162.350032,178.825694 L168.649968,175.043266 C168.84344,174.928125 169,175.050545 169,175.318544 L169,176.479212 C169,176.747211 168.84344,177.058223 168.649968,177.174025 L162.350032,180.956453 C162.15656,181.072256 162,180.949174 162,180.681175" id="Fill-181" fill="#DFBA53" mask="url(#mask-6)"></path>
                <g id="Group-184" mask="url(#mask-6)">
                    <g transform="translate(100.000000, 63.000000)">
                        <path d="M77.613271,48.9131677 C75.5821258,48.2110323 74.0340774,49.2480323 72.9515129,50.6789906 C70.534771,53.8732302 69.6094645,59.1459177 66.1246258,60.6664698 C65.2024645,58.774199 64.8860613,56.8279177 64.3884968,54.908324 C63.8909323,52.9893656 63.0568355,50.8200531 61.6484323,49.4570844 C59.440529,47.3201781 57.2993032,48.4486781 56.1834,50.176376 C55.7512548,50.8454698 55.2643839,51.6270323 54.3843677,51.3341052 C52.9445129,50.855001 52.0254968,48.2231052 51.7543839,46.3765844 C50.6969806,39.1823969 51.2209645,32.5238656 49.164029,25.0767823 C49.0614968,24.7037927 48.928771,24.2875948 48.6652065,23.999751 C48.1657548,23.4539281 47.6870613,23.8180219 47.4197226,24.2170635 C45.0960774,27.6851677 43.0196419,31.4589073 41.2061419,35.513501 C40.2506419,37.6497719 39.3655935,39.867376 38.2446581,41.8200115 C38.1031258,42.0659177 37.9402065,42.3181781 37.6571419,42.315001 C37.0564161,42.307376 36.4041097,41.2354281 36.0562548,40.3661781 C34.4836742,36.432949 34.4830452,32.6833552 33.6244161,28.7977823 C33.4910613,28.1928656 33.3143032,27.5352094 32.9299645,26.9938344 C32.335529,26.1563552 31.4643194,25.9434906 30.9535452,26.2503969 C30.4421419,26.5579385 30.1943032,27.2454594 29.9219323,27.8751573 C29.1972871,29.5532927 28.201529,30.9467615 26.9793194,31.9939281 C26.1622065,32.6947927 24.7148032,33.001699 23.6901097,31.4728865 C23.3158355,30.9149906 23.1239806,30.2630531 22.9616903,29.6486052 C20.556271,20.5449906 21.0878032,12.1536781 18.2452065,3.00113646 C18.0508355,2.37525104 17.8224968,1.71124062 17.4199161,1.17050104 C16.5801581,0.0426364583 15.4579645,0.0191260417 14.7018677,0.344459375 C12.6204,1.24103229 11.4636097,3.62003229 10.3036742,5.86114687 C8.42035161,9.49700104 6.36341613,12.9371469 4.1397871,16.1695115 C3.36985161,17.2891156 2.10109355,18.3470844 0.614690323,16.9675948" id="Fill-182" stroke="none" fill="#1F1F1F" fill-rule="evenodd"></path>
                        <path d="M77.613271,48.9131677 C75.5821258,48.2110323 74.0340774,49.2480323 72.9515129,50.6789906 C70.534771,53.8732302 69.6094645,59.1459177 66.1246258,60.6664698 C65.2024645,58.774199 64.8860613,56.8279177 64.3884968,54.908324 C63.8909323,52.9893656 63.0568355,50.8200531 61.6484323,49.4570844 C59.440529,47.3201781 57.2993032,48.4486781 56.1834,50.176376 C55.7512548,50.8454698 55.2643839,51.6270323 54.3843677,51.3341052 C52.9445129,50.855001 52.0254968,48.2231052 51.7543839,46.3765844 C50.6969806,39.1823969 51.2209645,32.5238656 49.164029,25.0767823 C49.0614968,24.7037927 48.928771,24.2875948 48.6652065,23.999751 C48.1657548,23.4539281 47.6870613,23.8180219 47.4197226,24.2170635 C45.0960774,27.6851677 43.0196419,31.4589073 41.2061419,35.513501 C40.2506419,37.6497719 39.3655935,39.867376 38.2446581,41.8200115 C38.1031258,42.0659177 37.9402065,42.3181781 37.6571419,42.315001 C37.0564161,42.307376 36.4041097,41.2354281 36.0562548,40.3661781 C34.4836742,36.432949 34.4830452,32.6833552 33.6244161,28.7977823 C33.4910613,28.1928656 33.3143032,27.5352094 32.9299645,26.9938344 C32.335529,26.1563552 31.4643194,25.9434906 30.9535452,26.2503969 C30.4421419,26.5579385 30.1943032,27.2454594 29.9219323,27.8751573 C29.1972871,29.5532927 28.201529,30.9467615 26.9793194,31.9939281 C26.1622065,32.6947927 24.7148032,33.001699 23.6901097,31.4728865 C23.3158355,30.9149906 23.1239806,30.2630531 22.9616903,29.6486052 C20.556271,20.5449906 21.0878032,12.1536781 18.2452065,3.00113646 C18.0508355,2.37525104 17.8224968,1.71124062 17.4199161,1.17050104 C16.5801581,0.0426364583 15.4579645,0.0191260417 14.7018677,0.344459375 C12.6204,1.24103229 11.4636097,3.62003229 10.3036742,5.86114687 C8.42035161,9.49700104 6.36341613,12.9371469 4.1397871,16.1695115 C3.36985161,17.2891156 2.10109355,18.3470844 0.614690323,16.9675948" id="Stroke-183" stroke="#DBBB64" stroke-width="1" fill="none" stroke-linecap="round"></path>
                    </g>
                </g>
                <path d="M169,92.2704538 C164.70731,89.7104827 161.227724,83.4846174 161.227724,78.3653162 C161.227724,73.2453738 164.70731,71.1694443 169,73.7300566 C173.29269,76.2900278 176.772276,82.5152519 176.772276,87.6351942 C176.772276,92.7551366 173.29269,94.830425 169,92.2704538 M169,72.2657505 C164.037586,69.3063649 160,71.7143918 160,77.6331631 C160,83.5519344 164.037586,90.7747331 169,93.7341188 C173.962414,96.6935044 178,94.2861186 178,88.3673473 C178,82.448576 173.962414,75.2257773 169,72.2657505" id="Fill-185" fill="#DFBA53" mask="url(#mask-6)"></path>
                <path d="M172.05261,88.3195302 C171.373518,88.4922978 170.573051,88.3176316 169.737386,87.8138843 C168.024181,86.7829741 166.564042,84.599014 165.995401,82.4308751 L170.199824,84.962269 C170.531177,85.1616163 170.800022,85.0002399 170.800022,84.6015454 C170.800022,84.202218 170.531177,83.7174561 170.199824,83.517476 L165.74719,80.8367298 C165.743549,80.7544595 165.736873,80.6709235 165.736873,80.5899189 C165.736873,80.5082815 165.743549,80.4336053 165.74719,80.3551321 L171.40022,83.7579584 C171.731573,83.9579385 171.999812,83.7959293 171.999812,83.3972347 C171.999812,82.9985402 171.731573,82.5131454 171.40022,82.3137982 L165.995401,79.0596913 C166.564042,77.5762945 168.024181,77.1510203 169.737386,78.1812976 C170.573051,78.685045 171.372911,79.4735742 172.051396,80.4627164 C172.320848,80.856981 172.695896,81.0057004 172.887668,80.7962275 C173.080047,80.5873875 173.016932,80.0981956 172.746873,79.703931 C171.863872,78.4167172 170.82369,77.3908699 169.737386,76.7365045 C167.355406,75.3031027 165.34726,76.0346756 164.733711,78.3002731 L164.600198,78.2199014 C164.269452,78.0205541 164,78.1819305 164,78.580625 C164,78.9578027 164.241536,79.4090236 164.5474,79.6267235 C164.544973,79.7077281 164.537083,79.7836699 164.537083,79.8672059 C164.537083,79.9507419 164.544973,80.0368093 164.5474,80.1209782 C164.241536,79.9690945 164,80.1304709 164,80.5076486 C164,80.9063431 164.269452,81.3917379 164.600198,81.5910852 L164.733711,81.671457 C165.34726,84.6755887 167.355406,87.8246427 169.737386,89.2586773 C170.82369,89.9130427 171.864479,90.1402353 172.748087,89.9162069 C173.018146,89.8472264 173.080654,89.4339764 172.888882,88.9935138 C172.69711,88.5530513 172.322668,88.2511826 172.05261,88.3195302" id="Fill-186" fill="#DFBA53" mask="url(#mask-6)"></path>
                <path d="M59.0005746,17.542334 C58.8169237,17.4268366 58.6439364,17.2281036 58.5141959,16.9835588 C58.246421,16.4776929 58.246421,15.9292415 58.5141959,15.7608346 C58.7742693,15.5982349 59.2274724,15.8834297 59.4869534,16.3725193 C59.6166939,16.6170641 59.688377,16.8790304 59.688377,17.1100252 C59.688377,17.5165245 59.9502276,18.0120665 60.2736902,18.214671 C60.5971528,18.4185658 60.8595959,18.2533852 60.8595959,17.8468859 C60.8595959,17.2222964 60.6664662,16.5138262 60.3151598,15.8511678 C60.0627879,15.3762734 59.7499889,14.9691288 59.4105309,14.6600603 L59.390981,14.1916182 C59.390981,13.7851189 59.1285379,13.2902222 58.8050753,13.0869725 C58.4822051,12.8837228 58.219762,13.0489035 58.219762,13.4554028 L58.2191696,14.0722494 C58.0242626,14.0638613 57.842389,14.0999946 57.6859895,14.1980706 C56.961457,14.6542532 56.961457,16.1370078 57.6859895,17.504265 C58.0372959,18.1662782 58.5041247,18.7031154 59.0005746,19.0154101 C59.2221406,19.1554265 59.4300808,19.3948094 59.5870727,19.6896827 C59.9099429,20.2994317 59.9099429,20.9607996 59.5864803,21.1640493 C59.4721428,21.2363158 59.3269993,21.2350254 59.1729695,21.176954 C59.0657411,21.1098494 58.9591051,21.0440352 58.8518766,20.980802 C58.6895529,20.8433665 58.5343383,20.6536668 58.414669,20.4271886 C58.2381271,20.0942463 58.1504486,19.7322684 58.1759228,19.4354594 C58.2079136,19.0508981 57.9733143,18.5418061 57.651629,18.299197 C57.3299437,18.0481998 57.0420264,18.1707948 57.0100356,18.5553561 C56.950201,19.2715692 57.1599185,20.1439296 57.5858701,20.9478949 C57.7724831,21.2995491 57.9899021,21.6176509 58.2256862,21.8912314 C58.257677,22.2803093 58.5035323,22.7235871 58.8050753,22.913932 C59.0645562,23.0765318 59.2819752,23.0003938 59.3589901,22.755849 C59.7565055,22.9152225 60.123215,22.9100606 60.4152792,22.7268133 C61.1949069,22.2364332 61.1949069,20.6401168 60.4152792,19.1689765 C60.0373137,18.4566348 59.535532,17.8791477 59.0005746,17.542334" id="Fill-187" fill="#DFBA53" mask="url(#mask-6)"></path>
                <path d="M64.0233891,28.1242807 L61.1244246,26.4525623 L56.8755754,24.0016533 L53.9766109,22.3299349 C52.9877269,21.7600309 52.1935254,20.3304413 52.281197,19.2453699 C52.594494,15.3423325 53.8818482,10.6291944 56.87622,10.7702215 L61.1244246,13.2198427 C64.1181518,16.5330133 65.405506,22.7311216 65.718803,26.99542 C65.80583,28.1815931 65.0116285,28.6941847 64.0233891,28.1242807 L64.0233891,28.1242807 Z M55.6017587,4.6442367 L62.3995306,8.56466092 L61.1244246,11.7503276 L61.1244246,11.7496836 L56.87622,9.30006244 L55.6017587,4.6442367 Z M62.3073465,12.9757821 C62.3105697,12.9680546 62.3150822,12.9629029 62.3183055,12.9545315 L63.5927668,9.76950877 C63.7397457,9.40245196 63.6855956,8.86538991 63.4470773,8.33154765 C63.2085589,7.79770539 62.81726,7.33534261 62.3995306,7.09450183 L55.6017587,3.17343366 C55.1833847,2.93259288 54.7920857,2.94289623 54.5535674,3.20241182 C54.3156937,3.46128346 54.260899,3.93588147 54.4078778,4.47229956 L55.6829838,9.12748134 C55.6855624,9.13907261 55.6900749,9.15001992 55.6932981,9.16096723 C52.0085125,9.69094573 51.1801449,16.2799373 51.0112481,18.3837523 C50.939048,19.2840074 51.2168896,20.3877537 51.7738621,21.411005 C52.3385703,22.4477795 53.1411522,23.3184124 53.9766109,23.800094 L56.8755754,25.4718123 L61.1244246,27.9227214 L64.0233891,29.5944398 C64.8588478,30.0761213 65.6614297,30.1315018 66.2261379,29.7457702 C66.7831104,29.3651903 67.060952,28.5821358 66.9887519,27.5981659 C66.8198551,25.2998752 65.9921321,17.755892 62.3073465,12.9757821 L62.3073465,12.9757821 Z" id="Fill-188" fill="#DFBA53" mask="url(#mask-6)"></path>
                <path d="M62,75.2704219 C66.2926897,77.830423 69.7722759,75.7551103 69.7722759,70.6357491 C69.7722759,65.5151056 66.2926897,59.2898085 62,56.7298074 C57.7073103,54.1691651 54.2271034,56.2451189 54.2271034,61.3651213 C54.2271034,66.4844825 57.7073103,72.7104207 62,75.2704219 M62,55.2654841 C66.9624138,58.2255456 71,65.4484289 71,71.3672696 C71,77.2861102 66.9624138,79.6935243 62,76.734104 C57.0369655,73.7746836 53,66.5518003 53,60.6329596 C53,54.714119 57.0369655,52.3067049 62,55.2654841" id="Fill-189" fill="#DFBA53" mask="url(#mask-6)"></path>
                <path d="M66.8001821,65.9472493 C66.8001821,65.4535707 66.442118,64.8523407 66.0003034,64.6055014 C65.5584888,64.358662 65.2004248,64.5590721 65.2004248,65.0527507 C65.2004248,65.547017 65.5584888,66.1476593 66.0003034,66.3944986 C66.442118,66.6419257 66.8001821,66.4415157 66.8001821,65.9472493 M64,64.3815828 C64,63.1485617 64.8975876,62.6472428 66.0003034,63.2637534 C67.1030193,63.880264 68,65.3848083 68,66.6184172 C68,67.8514383 67.1030193,68.3527572 66.0003034,67.7362466 C64.8975876,67.119736 64,65.6151917 64,64.3815828" id="Fill-190" fill="#DFBA53" mask="url(#mask-6)"></path>
                <path d="M60,69.3943236 C60.4418816,69.6411502 60.8,69.4413382 60.8,68.9470974 C60.8,68.4528565 60.4418816,67.8522452 60,67.6054186 C59.5581184,67.358592 59.2,67.558404 59.2,68.0526448 C59.2,68.5468857 59.5581184,69.147497 60,69.3943236 M60,66.2637398 C61.1028832,66.8802186 62,68.3846854 62,69.6182306 C62,70.8511882 61.1028832,71.3530689 60,70.7360024 C58.8971168,70.1195236 58,68.6144692 58,67.3815116 C58,66.148554 58.8971168,65.647261 60,66.2637398" id="Fill-191" fill="#DFBA53" mask="url(#mask-6)"></path>
                <path d="M58.1796928,59.040792 C58.4192831,58.9028145 58.8078415,59.1261772 59.0474319,59.5401099 L66.8198417,72.9604386 C67.0600528,73.3743713 67.0600528,73.8210968 66.8198417,73.9590744 C66.7006673,74.0283726 66.5436301,74.0067169 66.3865929,73.9163818 C66.2295557,73.8260467 66.0725185,73.6664135 65.9521026,73.4597565 L58.1796928,60.0394278 C57.9401024,59.6254951 57.9401024,59.1787696 58.1796928,59.040792" id="Fill-192" fill="#DFBA53" mask="url(#mask-6)"></path>
                <path d="M123,4.50948466 L123.559713,4.82067885 L123.559713,2.66432318 C123.559713,0.174769695 124.620358,-0.658853517 126.780183,0.541287291 C128.940661,1.74205677 130,3.75381717 130,6.24337065 L130,7.37750057 L127.920508,6.22136702 L127.920508,4.93195434 C127.920508,3.82045673 127.540399,3.18675221 126.840269,2.7976023 C126.140138,2.40908108 125.76003,2.62031592 125.76003,3.73181354 L125.76003,6.04345196 L128.840082,7.75533432 L128.840082,8.97810743 L125.76003,7.26622507 L125.76003,8.48899819 L128.840082,10.2002519 L128.840082,11.423025 L125.76003,9.71114262 L125.76003,12.1346852 C125.76003,13.2461828 126.140138,13.8572551 126.840269,14.246405 C127.540399,14.6355549 127.920508,14.4469523 127.920508,13.334826 L127.920508,11.9347665 L130,13.0902714 L130,14.3356768 C130,16.8252303 128.940661,17.6588535 126.780183,16.4587127 C124.620358,15.2579432 123.559713,13.2461828 123.559713,10.7566294 L123.559713,8.48899819 L123,8.17717532 L123,6.95503089 L123.559713,7.26622507 L123.559713,6.04345196 L123,5.73225777 L123,4.50948466 Z" id="Fill-193" fill="#DFBA53" mask="url(#mask-6)"></path>
                <polygon id="Fill-194" fill="#DFBA53" mask="url(#mask-6)" points="84 109.086443 165.38141 156 169 153.914191 87.6185903 107"></polygon>
                <polygon id="Fill-195" fill="#DFBA53" mask="url(#mask-6)" points="75 114.08178 150.425081 158 154 155.91822 78.5755475 112"></polygon>
                <polygon id="Fill-196" fill="#DFBA53" mask="url(#mask-6)" points="69 117.089888 158.400457 169 162 166.909476 72.599543 115"></polygon>
                <polygon id="Fill-197" fill="#DFBA53" mask="url(#mask-6)" points="63 121.089863 152.400457 173 156 170.909501 66.599543 119"></polygon>
                <polygon id="Fill-198" fill="#DFBA53" mask="url(#mask-6)" points="58 124.089888 147.400457 176 151 173.910112 61.5989107 122"></polygon>
                <polygon id="Fill-199" fill="#DFBA53" mask="url(#mask-6)" points="170 159 173.499385 161 177 159 173.499385 157"></polygon>
                <polygon id="Fill-200" fill="#DFBA53" mask="url(#mask-6)" points="157 161.950727 164.423193 166 168 164.048679 160.576178 160"></polygon>
            </g>
        </g>
    </g>
</svg>