<?xml version="1.0" encoding="UTF-8"?>
<svg width="34px" height="34px" viewBox="0 0 34 34" version="1.1" xmlns="http://www.w3.org/2000/svg" xmlns:xlink="http://www.w3.org/1999/xlink">
    <!-- Generator: Sketch 53.2 (72643) - https://sketchapp.com -->
    <title>icons / pinned-object</title>
    <desc>Created with Sketch.</desc>
    <g id="Profiles" stroke="none" stroke-width="1" fill="none" fill-rule="evenodd">
        <g id="01-Profiles-/-01-ProfessionalProfile-/-01_01_PersonalProfile-ActiveComments" transform="translate(-127.000000, -633.000000)">
            <g id="icons-/-pinned-object" transform="translate(128.000000, 634.000000)">
                <g id="Group-27" stroke="#FFFFFF">
                    <circle id="Oval" cx="16" cy="16" r="16"></circle>
                </g>
                <g id="noun_Pin_984607" transform="translate(10.000000, 10.000000)" fill="#F4F4F4">
                    <path d="M2.60839065,3.84315531 C2.36234121,3.84416098 2.1409136,3.99251414 2.04663714,4.21952168 C1.95236069,4.44652922 2.00364071,4.70787312 2.17673262,4.88254129 L7.12345652,9.82347427 C7.2983294,9.99636355 7.55997961,10.0475835 7.7872532,9.95341746 C8.0145268,9.85925137 8.16305384,9.63808296 8.16406069,9.39232157 L8.16406069,6.92281747 L10.3165697,4.77282833 L10.7019786,5.1577861 C10.8641321,5.31975875 11.0900703,5.40120479 11.3184113,5.37999729 C11.5467522,5.35878979 11.7537826,5.23713115 11.8832571,5.04807313 C12.074507,4.72644742 12.0271908,4.31685342 11.7676344,4.04718293 L7.97135621,0.245724946 C7.70794772,-0.0295710284 7.28608061,-0.0796191922 6.96543884,0.126388038 C6.77615924,0.255710961 6.65435802,0.46249893 6.63312566,0.690572595 C6.6118933,0.918646259 6.69343481,1.14431998 6.85559729,1.3062836 L7.24100625,1.69124137 L5.08078907,3.84315531 L2.60839065,3.84315531 Z" id="Shape" fill-rule="nonzero"></path>
                    <path d="M3.5,8.11425781 L0.130249023,11.4840088" id="Path-3" stroke="#FFFFFF"></path>
                </g>
            </g>
        </g>
    </g>
</svg>