<?xml version="1.0" encoding="UTF-8"?>
<svg width="24px" height="24px" viewBox="0 0 24 24" version="1.1" xmlns="http://www.w3.org/2000/svg" xmlns:xlink="http://www.w3.org/1999/xlink">
    <!-- Generator: Sketch 55.2 (78181) - https://sketchapp.com -->
    <title>icon / 24-cont / info / question-help-24</title>
    <desc>Created with Sketch.</desc>
    <defs>
        <path d="M11.3747073,14 C11.0655722,13.6448185 10.911007,13.2107143 10.911007,12.6976744 C10.911007,12.3030283 11.0187343,11.9478522 11.234192,11.6321353 C11.4496498,11.3164184 11.6838395,11.0796343 11.9367681,10.9217759 C12.1896968,10.7639175 12.4238865,10.5764634 12.6393443,10.359408 C12.854802,10.1423527 12.9625293,9.92530059 12.9625293,9.70824524 C12.9625293,9.46159144 12.8711953,9.25933835 12.6885246,9.10147992 C12.5058539,8.94362148 12.2318519,8.86469345 11.8665105,8.86469345 C11.2014018,8.86469345 10.6252952,9.17053958 10.1381733,9.78224101 L9,8.43551797 C9.77752145,7.47850121 10.8032723,7 12.0772834,7 C12.9765853,7 13.688522,7.21458559 14.2131148,7.64376321 C14.7377075,8.07294084 15,8.63776958 15,9.33826638 C15,9.73291247 14.9203755,10.0880886 14.7611241,10.4038055 C14.6018727,10.7195224 14.4074953,10.9760385 14.1779859,11.1733615 C13.9484766,11.3706846 13.7166288,11.5532056 13.4824356,11.7209302 C13.2482424,11.8886548 13.051523,12.0711759 12.8922717,12.2684989 C12.7330203,12.465822 12.6533958,12.6779411 12.6533958,12.9048626 C12.6533958,13.1613825 12.7377041,13.3685686 12.9063232,13.5264271 L11.3747073,14 Z M12.7037037,16.7037037 C12.5061719,16.9012356 12.2716063,17 12,17 C11.7283937,17 11.4938281,16.9012356 11.2962963,16.7037037 C11.0987644,16.5061719 11,16.2716063 11,16 C11,15.7283937 11.0987644,15.4938281 11.2962963,15.2962963 C11.4938281,15.0987644 11.7283937,15 12,15 C12.2716063,15 12.5061719,15.0987644 12.7037037,15.2962963 C12.9012356,15.4938281 13,15.7283937 13,16 C13,16.2716063 12.9012356,16.5061719 12.7037037,16.7037037 Z M12,21 C7.02943725,21 3,16.9705627 3,12 C3,7.02943725 7.02943725,3 12,3 C16.9705627,3 21,7.02943725 21,12 C21,16.9705627 16.9705627,21 12,21 Z M12,19 C15.8659932,19 19,15.8659932 19,12 C19,8.13400675 15.8659932,5 12,5 C8.13400675,5 5,8.13400675 5,12 C5,15.8659932 8.13400675,19 12,19 Z" id="path-1"></path>
    </defs>
    <g id="icon-/-24-cont-/-info-/-question-help-24" stroke="none" stroke-width="1" fill="none" fill-rule="evenodd">
        <mask id="mask-2" fill="white">
            <use xlink:href="#path-1"></use>
        </mask>
        <use id="Mask" fill="#7E7E7E" fill-rule="nonzero" xlink:href="#path-1"></use>
        <g id="Colors-/-Dark-Theme-/-Grayscale-/-Filled-/-$base-gray" mask="url(#mask-2)" fill="#7E7E7E">
            <rect id="Dark-Theme-/-Grayscale-/-Filled-/-$base-gray" x="0" y="0" width="24" height="24" rx="2"></rect>
        </g>
    </g>
</svg>