<?xml version="1.0" encoding="UTF-8"?>
<svg width="26px" height="26px" viewBox="0 0 26 26" version="1.1" xmlns="http://www.w3.org/2000/svg" xmlns:xlink="http://www.w3.org/1999/xlink">
    <!-- Generator: Sketch 55.1 (78136) - https://sketchapp.com -->
    <title>Group 2</title>
    <desc>Created with Sketch.</desc>
    <g id="Organization" stroke="none" stroke-width="1" fill="none" fill-rule="evenodd">
        <g id="09-Organization/-05-Settings-/-05_01_SettingsForServices" transform="translate(-599.000000, -241.000000)">
            <g id="Group-Copy-4" transform="translate(455.000000, 224.000000)">
                <g id="Group-21-Copy" transform="translate(145.000000, 18.000000)">
                    <g id="Group-22">
                        <g id="Group-2">
                            <circle id="Oval" stroke="#979797" cx="12" cy="12" r="12"></circle>
                            <path d="M11.842,14.41 C11.4779982,14.1019985 11.296,13.7240022 11.296,13.276 C11.296,12.9959986 11.3589994,12.7393345 11.485,12.506 C11.6110006,12.2726655 11.7673324,12.0813341 11.954,11.932 C12.1406676,11.7826659 12.3436656,11.6263342 12.563,11.463 C12.7823344,11.2996659 12.9853324,11.1480007 13.172,11.008 C13.3586676,10.8679993 13.5149994,10.700001 13.641,10.504 C13.7670006,10.307999 13.83,10.0933345 13.83,9.86 C13.83,9.4866648 13.6876681,9.17633457 13.403,8.929 C13.1183319,8.68166543 12.7100027,8.558 12.178,8.558 C11.2726621,8.558 10.5306696,8.94066284 9.952,9.706 L9.252,8.95 C9.98933702,7.99799524 11.0019936,7.522 12.29,7.522 C13.1206708,7.522 13.7856642,7.72966459 14.285,8.145 C14.7843358,8.56033541 15.034,9.07599692 15.034,9.692 C15.034,10.1680024 14.8916681,10.5903315 14.607,10.959 C14.3223319,11.3276685 14.0120017,11.609999 13.676,11.806 C13.3399983,12.002001 13.0296681,12.235332 12.745,12.506 C12.4603319,12.776668 12.318,13.0613318 12.318,13.36 C12.318,13.6213346 12.4439987,13.849999 12.696,14.046 L11.842,14.41 Z M12.668,16.916 C12.5186659,17.0653341 12.3413344,17.14 12.136,17.14 C11.9306656,17.14 11.7510008,17.0653341 11.597,16.916 C11.4429992,16.7666659 11.366,16.5846677 11.366,16.37 C11.366,16.1553323 11.4429992,15.9733341 11.597,15.824 C11.7510008,15.6746659 11.9306656,15.6 12.136,15.6 C12.3413344,15.6 12.5209992,15.6746659 12.675,15.824 C12.8290008,15.9733341 12.906,16.1553323 12.906,16.37 C12.906,16.5846677 12.8266675,16.7666659 12.668,16.916 Z" id="?" fill="#979797" fill-rule="nonzero"></path>
                        </g>
                    </g>
                </g>
            </g>
        </g>
    </g>
</svg>