<?xml version="1.0" encoding="UTF-8"?>
<svg width="169px" height="188px" viewBox="0 0 169 188" version="1.1" xmlns="http://www.w3.org/2000/svg" xmlns:xlink="http://www.w3.org/1999/xlink">
    <title>Group 38</title>
    <defs>
        <polygon id="path-1" points="0 0.534533597 156.435376 0.534533597 156.435376 182.434219 0 182.434219"></polygon>
    </defs>
    <g id="Page-1" stroke="none" stroke-width="1" fill="none" fill-rule="evenodd">
        <g id="42-User-profile-/-01_01_Referral-program" transform="translate(-636.000000, -287.000000)">
            <g id="Group-38" transform="translate(636.000000, 287.000000)">
                <g id="Group-3">
                    <mask id="mask-2" fill="white">
                        <use xlink:href="#path-1"></use>
                    </mask>
                    <g id="Clip-2"></g>
                    <path d="M99.1699862,10.8098751 L113.029197,2.76293834 C117.505858,0.158262451 121.578495,-0.0840498024 124.532688,1.62370909 L156.435376,20.0618632 C153.481183,18.353381 149.408546,18.5956933 144.931165,21.2010925 L128.119922,30.9854443 L64.9526284,67.7503613 L48.1356239,77.5376063 C39.1923853,82.7426182 31.8854037,95.4983692 31.9034083,105.880183 L31.9343761,125.791741 L31.9754266,151.964357 L32.0078349,171.883871 C32.0157569,177.073693 33.852945,180.727907 36.8049771,182.434219 L4.90156881,163.996788 C1.95025688,162.290476 0.113788991,158.635539 0.105146789,153.445717 L0.0734587156,133.526926 L0.0324082569,107.353587 L-2.81149384e-05,87.4420292 C-0.0165642202,77.0609383 7.28825688,64.3051874 16.2329358,59.1001755 L33.0499404,49.3122071 L56.4904725,35.6696656 L99.1699862,10.8098751 Z" id="Fill-1" fill="#1F1F1F" mask="url(#mask-2)"></path>
                </g>
                <path d="M51.303277,78.3696785 L68.1953205,68.6145167 L131.638315,31.9735467 L148.523125,22.2219894 C153.020099,19.6253228 157.109835,19.3831018 160.077679,21.0858577 C163.04263,22.7864508 164.884964,26.4276954 164.893644,31.5994018 L164.926194,51.4442209 L164.968147,77.5283931 L165,97.3825839 C165.015888,107.72888 157.678377,120.441156 148.689492,125.633048 L131.803959,135.384605 L68.3602409,172.025575 L51.4689207,181.781458 C46.9777334,184.375241 42.890167,184.615299 39.9237699,182.915427 C36.9580962,181.214834 35.1135918,177.572868 35.1049118,172.39972 L35.0738084,152.546971 L35.031855,126.461357 L35,106.616538 C34.9833915,96.2695208 42.3209023,83.5579654 51.303277,78.3696785" id="Fill-4" fill="#1F1F1F"></path>
                <path d="M105.527474,14.2810432 L119.43664,6.22970424 C123.929437,3.62360343 128.016755,3.38115862 130.981596,5.08985176 L163,23.5380927 C160.034436,21.8293996 155.947841,22.0711207 151.453599,24.6779452 L134.58176,34.4676496 L71.1875018,71.2526793 L54.3091574,81.0452786 C45.3336829,86.253138 38.0010859,99.0158671 38.0184326,109.402637 L38.0495121,129.325087 L38.0914333,155.512746 L38.1232356,175.443157 C38.131909,180.635818 39.9749964,184.292754 42.938392,186 L10.9192648,167.552483 C7.95731482,165.844513 6.11422736,162.188301 6.10627679,156.99564 L6.07375171,137.065228 L6.03255329,110.87757 L6,90.9551199 C5.98340429,80.5683499 13.3145557,67.8056207 22.2914758,62.5977614 L39.1690974,52.8044384 L62.6948439,39.1544335" id="Stroke-6" stroke="#DBBB64" stroke-linecap="round"></path>
                <path d="M73.6266439,25.3789567 L94.296253,13.4526459 C97.233311,11.7583748 99.8984863,11.5966719 101.830666,12.7047699 L111,17.9622799 C109.067095,16.8541819 106.401195,17.0158848 103.464137,18.7108777 L82.795253,30.6364667 C76.920412,34.0271744 72.1584774,42.2696911 72.1686277,49.0236748 L72.180228,56 L63.0108939,50.74249 L63,43.7661648 C62.9891433,37.0121811 67.7510778,28.7696645 73.6266439,25.3789567 Z" id="Stroke-8" stroke="#DBBB64" stroke-linecap="round"></path>
                <path d="M104.972746,29.8386274 C104.97202,29.3263005 104.783393,28.960768 104.484492,28.7878122 C104.185591,28.6155832 103.777141,28.6352042 103.332416,28.8931844 L82.6501883,40.8990743 C81.7607393,41.4150347 81.0084077,42.7252835 81.0098587,43.7477571 L81.020741,50.7706323 L72.011624,56 L72,48.9771249 C71.9898594,42.1788015 76.7548682,33.8805594 82.6335021,30.4679537 L103.31573,18.4627905 C106.254684,16.7572143 108.92158,16.5937057 110.855007,17.7091976 C112.785532,18.8217826 113.983314,21.2082812 113.989118,24.6048994 L114,31.6270479 L104.984354,36.8607758 L104.972746,29.8386274 Z" id="Stroke-10" stroke="#DBBB64" stroke-linecap="round"></path>
                <path d="M54.303277,81.3694076 L71.1953205,71.6142311 L134.638315,34.9732058 L151.523125,25.2223547 C156.019376,22.6249633 160.109835,22.3834628 163.077679,24.0855004 C166.04263,25.7860961 167.884964,29.4280671 167.893644,34.5990603 L167.926194,54.4439094 L167.968147,80.5288418 L168,100.382342 C168.015888,110.729374 160.678377,123.440949 151.689492,128.632848 L134.803959,138.385141 L71.3602409,175.025446 L54.4689207,184.780622 C49.9777334,187.37513 45.890167,187.615909 42.9237699,185.914593 C39.9580962,184.213997 38.1135918,180.572747 38.1049118,175.400312 L38.0738084,155.546812 L38.031855,129.46188 L38,109.617031 C37.9833915,99.2692769 45.3209023,86.5577024 54.303277,81.3694076 Z" id="Stroke-12" stroke="#DBBB64" stroke-linecap="round"></path>
                <polygon id="Stroke-14" stroke="#DBBB64" stroke-linecap="round" points="56.0072152 105 148 51.2122254 147.992785 47 56 100.787047"></polygon>
                <polygon id="Stroke-16" stroke="#DBBB64" stroke-linecap="round" points="148.006861 50.6620429 152 53 151.985516 44 148 46.2925599"></polygon>
                <polyline id="Stroke-18" stroke="#DBBB64" stroke-linecap="round" points="56 104.901756 59.7215642 107 152 53"></polyline>
                <polygon id="Stroke-20" stroke="#DBBB64" stroke-linecap="round" points="56.0064937 133 148 79.2122254 147.992785 75 56 128.787047"></polygon>
                <polygon id="Stroke-22" stroke="#DBBB64" stroke-linecap="round" points="148.006862 78.662603 152 81 151.986275 72 148 74.2927526"></polygon>
                <polyline id="Stroke-24" stroke="#DBBB64" stroke-linecap="round" points="56 132.901784 59.722288 135 152 81"></polyline>
                <polygon id="Stroke-26" stroke="#DBBB64" stroke-linecap="round" points="56.0064937 162 148 108.212901 147.992785 104 56 157.787099"></polygon>
                <polygon id="Stroke-28" stroke="#DBBB64" stroke-linecap="round" points="148.006862 108.662799 152 111 151.986275 102 148 104.293317"></polygon>
                <polyline id="Stroke-30" stroke="#DBBB64" stroke-linecap="round" points="56 161.902482 59.722288 164 152 110"></polyline>
                <path d="M124,93.3561851 C124,103.742567 117.73198,115.809743 110.000362,120.307157 C102.26802,124.8053 96,120.030303 96,109.643921 C96,99.2568101 102.26802,87.1903634 110.000362,82.6929491 C117.73198,78.1948062 124,82.9690741 124,93.3561851" id="Fill-32" fill="#1F1F1F"></path>
                <path d="M125,91.356282 C125,101.743474 118.73198,113.809287 111.000362,118.307465 C103.26802,122.804915 97,118.03061 97,107.643417 C97,97.2569534 103.26802,85.1904119 111.000362,80.6929623 C118.73198,76.1947842 125,80.9690896 125,91.356282 Z" id="Stroke-34" stroke="#DBBB64" stroke-linecap="round"></path>
                <path d="M112.733817,102.932254 C112.733817,102.263503 112.572111,101.835275 112.249416,101.648995 C111.92672,101.462716 111.312096,101.40776 110.406259,101.483413 C108.400681,101.780319 106.931736,101.743205 105.995848,101.373501 C105.060674,101.003083 104.593446,100.023153 104.593446,98.4329965 C104.593446,97.0027121 105.079993,95.5867021 106.052373,94.1849663 C107.025468,92.7832306 108.342724,91.6020327 110.004141,90.6392315 L110.004141,87.9913498 L111.991832,87 L111.991832,89.6857086 C113.559517,89.1125956 114.793058,89.0876156 115.690309,89.6107685 C116.588276,90.1332077 117.024022,91.1666667 116.998979,92.7104317 L116.973936,92.7860854 L112.821825,94.8565719 C112.821825,94.0200982 112.639369,93.4919493 112.274459,93.2721252 C111.909548,93.052301 111.395811,93.1079708 110.733247,93.4384207 C110.045641,93.7817175 109.559093,94.2020955 109.273605,94.6995546 C108.988831,95.1977275 108.845729,95.7430056 108.845729,96.33753 C108.845729,96.897796 108.998848,97.2675003 109.305087,97.4452153 C109.611326,97.6229302 110.230243,97.7007251 111.161123,97.6807411 C113.098728,97.333162 114.551931,97.3695615 115.520733,97.7899395 C116.489535,98.2103175 116.973936,99.2116592 116.973936,100.792537 C116.973936,102.25708 116.508139,103.664526 115.577258,105.016301 C114.646378,106.36665 113.371337,107.522154 111.752135,108.479245 L111.752135,111.002941 L109.751566,112 L109.751566,109.477732 C108.057951,110.180027 106.665566,110.337045 105.574411,109.94807 C104.484688,109.559096 103.959503,108.442132 104.002433,106.597179 L104.027476,106.509392 L108.165993,104.444616 C108.165993,105.407417 108.39925,105.977675 108.865048,106.15539 C109.33013,106.333105 109.957633,106.22462 110.746127,105.831363 C111.441604,105.484498 111.946754,105.05841 112.261579,104.554528 C112.576404,104.049931 112.733817,103.510363 112.733817,102.932254 Z" id="Stroke-36" stroke="#DBBB64" stroke-linecap="round"></path>
            </g>
        </g>
    </g>
</svg>