<?xml version="1.0" encoding="UTF-8"?>
<svg width="27px" height="34px" viewBox="0 0 27 34" version="1.1" xmlns="http://www.w3.org/2000/svg" xmlns:xlink="http://www.w3.org/1999/xlink">
    <!-- Generator: Sketch 56.3 (81716) - https://sketch.com -->
    <title>Group 28 Copy</title>
    <desc>Created with Sketch.</desc>
    <g id="Page-1" stroke="none" stroke-width="1" fill="none" fill-rule="evenodd">
        <g id="27-Dashboard-/-03-Creator-Copy-3" transform="translate(-1226.000000, -1369.000000)">
            <g id="Group-37" transform="translate(1172.000000, 1330.000000)">
                <g id="Group-34" transform="translate(20.000000, 36.000000)">
                    <g id="Group-28-Copy" transform="translate(28.000000, 0.000000)">
                        <rect id="Rectangle" x="0" y="0" width="40" height="40"></rect>
                        <path d="M23.8412698,28.3809524 L23.8412698,30.5714286 C23.8571429,31.0952381 23.4285714,31.5238095 22.8888889,31.5238095 L16.1587302,31.5238095 C15.6349206,31.5238095 15.2063492,31.0952381 15.2063492,30.5714286 L15.2063492,28.3809524 L13.8730159,28.3809524 C13.3492063,28.3809524 12.9206349,27.952381 12.9206349,27.4285714 L12.9206349,26.4285714 L7.61904762,26.4285714 C7.0952381,26.4285714 6.66666667,26 6.66666667,25.4761905 L6.66666667,21.7142857 C6.66666667,21.3809524 6.84126984,21.0793651 7.11111111,20.9047619 L12.9206349,17.1984328 L12.9206349,10.031746 C12.9206349,6.3968254 15.8888889,3.42857143 19.5238095,3.42857143 C23.1587302,3.42857143 26.1269841,6.3968254 26.1269841,10.031746 L26.1269841,17.2200522 L31.952381,20.9365079 C32.2222222,21.1111111 32.3968254,21.4126984 32.3968254,21.7460317 L32.3968254,25.5079365 C32.3968254,26 31.952381,26.4285714 31.4285714,26.4285714 L26.1269841,26.4285714 L26.1269841,27.4126984 C26.1269841,27.952381 25.6984127,28.3809524 25.1587302,28.3809524 L23.8412698,28.3809524 Z M26.1269841,24.5238095 L30.4761905,24.5238095 L30.4761905,22.2539683 L26.1269841,19.4809048 L26.1269841,24.5238095 Z M12.9206349,24.5079365 L12.9206349,19.4607488 L8.57142857,22.2380952 L8.57142857,24.5079365 L12.9206349,24.5079365 Z M14.8412698,17.8479602 L14.8412698,26.4603175 L24.2063492,26.4603175 L24.2063492,10.031746 C24.2063492,7.44444444 22.1111111,5.34920635 19.5238095,5.34920635 C16.9365079,5.34920635 14.8412698,7.44444444 14.8412698,10.031746 L14.8412698,17.5741745 C14.8543063,17.6655738 14.8541056,17.757873 14.8412698,17.8479602 Z M17.1111111,29.6031746 L21.9206349,29.6031746 L21.9206349,28.3968254 L17.1111111,28.3968254 L17.1111111,29.6031746 Z M18.047619,36.5714286 C17.5238095,36.5714286 17.0952381,36.1428571 17.0952381,35.6190476 L17.0952381,33.1746032 C17.0952381,32.6507937 17.5238095,32.2222222 18.047619,32.2222222 C18.5714286,32.2222222 19,32.6507937 19,33.1746032 L19,35.6190476 C19,36.1269841 18.5714286,36.5714286 18.047619,36.5714286 Z M21,36.5714286 C20.4761905,36.5714286 20.047619,36.1428571 20.047619,35.6190476 L20.047619,33.1746032 C20.047619,32.6507937 20.4761905,32.2222222 21,32.2222222 C21.5238095,32.2222222 21.952381,32.6507937 21.952381,33.1746032 L21.952381,35.6190476 C21.968254,36.1269841 21.5238095,36.5714286 21,36.5714286 Z M19.5238095,16.3174603 C17.6190476,16.3174603 16.0634921,14.7619048 16.0634921,12.8571429 C16.0634921,10.952381 17.6190476,9.3968254 19.5238095,9.3968254 C21.4285714,9.3968254 22.984127,10.952381 22.984127,12.8571429 C22.984127,14.7619048 21.4285714,16.3174603 19.5238095,16.3174603 Z M19.5238095,11.3015873 C18.6666667,11.3015873 17.984127,12 17.984127,12.8412698 C17.984127,13.6984127 18.6825397,14.3809524 19.5238095,14.3809524 C20.3809524,14.3809524 21.0634921,13.6825397 21.0634921,12.8412698 C21.0634921,12 20.3809524,11.3015873 19.5238095,11.3015873 Z" id="Combined-Shape" fill="#7E7E7E" fill-rule="nonzero"></path>
                    </g>
                </g>
            </g>
        </g>
    </g>
</svg>