<?xml version="1.0" encoding="utf-8"?>
<!-- Svg Vector Icons : http://www.onlinewebfonts.com/icon -->
<!DOCTYPE svg PUBLIC "-//W3C//DTD SVG 1.1//EN" "http://www.w3.org/Graphics/SVG/1.1/DTD/svg11.dtd">
<svg version="1.1" xmlns="http://www.w3.org/2000/svg" xmlns:xlink="http://www.w3.org/1999/xlink" x="0px" y="0px" viewBox="0 0 1000 1000" enable-background="new 0 0 1000 1000" xml:space="preserve">
<metadata> Svg Vector Icons : http://www.onlinewebfonts.com/icon </metadata>
<g><path fill="#363636" d="M781.1,430V282.3h-0.2C776.9,131.2,653.1,10,501,10c-152.8,0-277,122.4-279.9,274.5h0c0,0.4,0,0.7,0,1.1c0,19.3,15.7,35,35,35s35-15.7,35-35c0-0.4,0-0.7,0-1.1h0C294,171.1,386.9,80,501,80c114.2,0,207,91.1,209.9,204.5h0.1V430H220c-38.7,0-70,31.3-70,70v420c0,38.7,31.3,70,70,70h560c38.7,0,70-31.3,70-70V500C850,461.7,819.2,430.6,781.1,430z M780,885c0,19.3-15.7,35-35,35H255c-19.3,0-35-15.7-35-35V535c0-19.3,15.7-35,35-35h490c19.3,0,35,15.7,35,35V885z"/><path fill="#363636" d="M535,694.9v-57.1c0-19.3-15.7-35-35-35c-19.3,0-35,15.7-35,35v57.1c-18.4,11.6-30.6,32.1-30.6,55.5c0,36.2,29.4,65.6,65.6,65.6s65.6-29.4,65.6-65.6C565.6,727.1,553.4,706.6,535,694.9z"/></g>
</svg>