<?xml version="1.0" encoding="UTF-8"?>
<svg width="24px" height="24px" viewBox="0 0 24 24" version="1.1" xmlns="http://www.w3.org/2000/svg" xmlns:xlink="http://www.w3.org/1999/xlink">
    <!-- Generator: Sketch 55.2 (78181) - https://sketchapp.com -->
    <title>icon / 24-cont / social / group-24</title>
    <desc>Created with Sketch.</desc>
    <defs>
        <path d="M14.4791027,5.27589299 C14.0642739,4.81185828 13.5582054,4.47375271 13,4.2692697 C13.3570248,4.09535792 13.7527745,4 14.1710035,4 C15.733412,4 17,5.29310195 17,7.28913955 C17,8.87965293 16.0692798,10.4331164 15.0012279,11 C15.3733648,10.2255965 15.5974026,9.34571222 15.5974026,8.45995662 C15.5974026,7.21362256 15.2001417,6.08289226 14.4791027,5.27589299 Z M19.6191408,14.4101789 C19.7922238,14.7653736 19.2743093,13.701764 19.6191408,14.4101789 C19.7922238,14.7653736 20.1528768,15.8013415 19.9287077,16.2471611 C19.7516217,16.5999865 19.4157493,16.8232912 18.7257049,17 C18.6157172,16.5391749 18.4496872,16.1130993 18.338937,15.8858458 C17.9407318,15.0672594 17.6248745,14.6022881 17.040243,13.9728492 C16.951986,13.8778806 16.855151,13.7917967 16.7543131,13.711636 C16.6073451,13.5947515 16.4510367,13.4905032 16.2895815,13.3961268 C16.1128768,13.2926683 15.9298816,13.2012535 15.7421209,13.1216852 C15.6456672,13.0808151 15.0898194,12.9281939 15.0139526,12.803017 C14.951048,12.6993609 15.1138375,12.5544399 15.2428872,12.4715151 C15.3808961,12.3826671 15.7606111,12.1889784 16.1605318,12.0602475 C16.9460768,11.8075242 18.1492701,12.4043855 18.554147,12.8403331 C19.0226909,13.3447924 19.2741186,13.701764 19.6191408,14.4101789 Z M14,8.64039547 C14,10.8493217 12.1876485,13 10.5,13 C8.75692795,13 7,10.8495261 7,8.64039547 C7,6.43126485 8.56720872,5 10.5,5 C12.4330044,5 14,6.43126485 14,8.64039547 Z M16.5487471,16.6678994 C16.7536511,17.0602036 17.1809637,18.2041095 16.915721,18.6960308 C16.5804609,19.3187865 15.7645514,19.5764784 13.5215211,19.8413285 C12.1775975,20 10.5000612,20 10.5000612,20 C10.5000612,20 8.82190717,20 7.47860138,19.8413285 C5.23557107,19.5766773 4.41945566,19.3187865 4.08419553,18.6960308 C3.8191588,18.2041095 4.24626538,17.0602036 4.45116945,16.6678994 C4.85974199,15.885677 5.15752218,15.4915832 5.71251362,14.9346424 C6.1921333,14.4532594 7.62357873,13.7750284 8.54760343,14.0732831 C9.28464029,14.228972 9.31964903,14.6387738 10.5000612,14.6387738 C11.6804734,14.6387738 11.7152762,14.2291708 12.4523131,14.0732831 C13.3763378,13.7748296 14.8077832,14.4532594 15.2874029,14.9346424 C15.8423943,15.4915832 16.1403805,15.885677 16.5487471,16.6678994 Z" id="path-1"></path>
    </defs>
    <g id="icon-/-24-cont-/-social-/-group-24" stroke="none" stroke-width="1" fill="none" fill-rule="evenodd">
        <mask id="mask-2" fill="white">
            <use xlink:href="#path-1"></use>
        </mask>
        <use id="Mask" fill="#7E7E7E" fill-rule="nonzero" xlink:href="#path-1"></use>
        <g id="Colors-/-Dark-Theme-/-Grayscale-/-Filled-/-$base-gray" mask="url(#mask-2)" fill="#7E7E7E">
            <rect id="Dark-Theme-/-Grayscale-/-Filled-/-$base-gray" x="0" y="0" width="24" height="24" rx="2"></rect>
        </g>
    </g>
</svg>