<?xml version="1.0" encoding="utf-8"?>
<!-- Generator: Adobe Illustrator 23.0.6, SVG Export Plug-In . SVG Version: 6.00 Build 0)  -->
<svg version="1.1" id="Шар_1" xmlns="http://www.w3.org/2000/svg" xmlns:xlink="http://www.w3.org/1999/xlink" x="0px" y="0px"
	 viewBox="0 0 60 60" style="enable-background:new 0 0 60 60;" xml:space="preserve">
<style type="text/css">
	.st0{fill-rule:evenodd;clip-rule:evenodd;fill:url(#Rectangle-6-Copy-52_1_);}
	.st1{filter:url(#filter-3);}
	.st2{fill:#FFFFFF;}
	.st3{filter:url(#filter-5);}
	.st4{filter:url(#filter-7);}
	.st5{filter:url(#filter-10);}
	.st6{fill-rule:evenodd;clip-rule:evenodd;}
	.st7{fill-rule:evenodd;clip-rule:evenodd;fill:url(#SVGID_1_);}
	.st8{filter:url(#filter-12);}
</style>
<filter  filterUnits="objectBoundingBox" height="275.0%" id="filter-7" width="130.4%" x="-15.2%" y="-62.5%">
	<feOffset  dx="0" dy="2" in="SourceAlpha" result="shadowOffsetOuter1"></feOffset>
	<feGaussianBlur  in="shadowOffsetOuter1" result="shadowBlurOuter1" stdDeviation="2"></feGaussianBlur>
	<feColorMatrix  in="shadowBlurOuter1" type="matrix" values="0 0 0 0 0   0 0 0 0 0   0 0 0 0 0  0 0 0 0.2 0"></feColorMatrix>
</filter>
<filter  filterUnits="objectBoundingBox" height="158.3%" id="filter-5" width="136.8%" x="-18.4%" y="-20.8%">
	<feOffset  dx="0" dy="2" in="SourceAlpha" result="shadowOffsetOuter1"></feOffset>
	<feGaussianBlur  in="shadowOffsetOuter1" result="shadowBlurOuter1" stdDeviation="2"></feGaussianBlur>
	<feColorMatrix  in="shadowBlurOuter1" type="matrix" values="0 0 0 0 0   0 0 0 0 0   0 0 0 0 0  0 0 0 0.2 0"></feColorMatrix>
</filter>
<filter  filterUnits="objectBoundingBox" height="240.0%" id="filter-3" width="240.0%" x="-70.0%" y="-50.0%">
	<feOffset  dx="0" dy="2" in="SourceAlpha" result="shadowOffsetOuter1"></feOffset>
	<feGaussianBlur  in="shadowOffsetOuter1" result="shadowBlurOuter1" stdDeviation="2"></feGaussianBlur>
	<feColorMatrix  in="shadowBlurOuter1" type="matrix" values="0 0 0 0 0   0 0 0 0 0   0 0 0 0 0  0 0 0 0.2 0"></feColorMatrix>
</filter>
<filter  filterUnits="objectBoundingBox" height="177.8%" id="filter-12" width="177.8%" x="-38.9%" y="-27.8%">
	<feOffset  dx="0" dy="2" in="SourceAlpha" result="shadowOffsetOuter1"></feOffset>
	<feGaussianBlur  in="shadowOffsetOuter1" result="shadowBlurOuter1" stdDeviation="2"></feGaussianBlur>
	<feColorMatrix  in="shadowBlurOuter1" type="matrix" values="0 0 0 0 0   0 0 0 0 0   0 0 0 0 0  0 0 0 0.2 0"></feColorMatrix>
</filter>
<filter  filterUnits="objectBoundingBox" height="153.8%" id="filter-10" width="153.8%" x="-26.9%" y="-19.2%">
	<feOffset  dx="0" dy="2" in="SourceAlpha" result="shadowOffsetOuter1"></feOffset>
	<feGaussianBlur  in="shadowOffsetOuter1" result="shadowBlurOuter1" stdDeviation="2"></feGaussianBlur>
	<feColorMatrix  in="shadowBlurOuter1" type="matrix" values="0 0 0 0 0   0 0 0 0 0   0 0 0 0 0  0 0 0 0.2 0"></feColorMatrix>
</filter>
<title>Group 29</title>
<desc>Created with Sketch.</desc>
<g>
	<g id="Icons-Copy" transform="translate(-1064.000000, -1458.000000)">
		<g id="Group-29" transform="translate(1064.000000, 1458.000000)">
			
				<linearGradient id="Rectangle-6-Copy-52_1_" gradientUnits="userSpaceOnUse" x1="-176.0059" y1="324.8387" x2="-175.0203" y2="323.8387" gradientTransform="matrix(60 0 0 -60 10561 19490.5352)">
				<stop  offset="0" style="stop-color:#F43B47"/>
				<stop  offset="1" style="stop-color:#453A94"/>
			</linearGradient>
			<path id="Rectangle-6-Copy-52" class="st0" d="M10,0h40c5.5,0,10,4.5,10,10v40c0,5.5-4.5,10-10,10H10C4.5,60,0,55.5,0,50V10
				C0,4.5,4.5,0,10,0z"/>
			<g id="Path">
				<g class="st1">
					<polygon id="path-2_1_" points="35,46 25,46 25,56 35,51.9 					"/>
				</g>
				<g>
					<polygon class="st2" points="35,46 25,46 25,56 35,51.9 					"/>
				</g>
			</g>
			<g>
				<g class="st3">
					<polygon id="path-4_1_" points="11,16 25.2,40 34.8,40 49,16 					"/>
				</g>
				<g>
					<polygon class="st2" points="11,16 25.2,40 34.8,40 49,16 					"/>
				</g>
			</g>
			<g id="Rectangle">
				<g class="st4">
					<path id="path-6_1_" d="M9,8h42c1.1,0,2,0.9,2,2v4c0,1.1-0.9,2-2,2H9c-1.1,0-2-0.9-2-2v-4C7,8.9,7.9,8,9,8z"/>
				</g>
				<g>
					<path class="st2" d="M9,8h42c1.1,0,2,0.9,2,2v4c0,1.1-0.9,2-2,2H9c-1.1,0-2-0.9-2-2v-4C7,8.9,7.9,8,9,8z"/>
				</g>
			</g>
			<g id="Oval">
				<g class="st5">
					<circle id="path-9_1_" class="st6" cx="30" cy="35" r="13"/>
				</g>
				<g>
					
						<linearGradient id="SVGID_1_" gradientUnits="userSpaceOnUse" x1="-172.6858" y1="319.5901" x2="-171.1095" y2="318.0508" gradientTransform="matrix(26 0 0 -26 4492 8317.165)">
						<stop  offset="0" style="stop-color:#453A94"/>
						<stop  offset="1" style="stop-color:#F43B47"/>
					</linearGradient>
					<circle class="st7" cx="30" cy="35" r="13"/>
				</g>
			</g>
			<g id="Shape">
				<g class="st8">
					<path id="path-11_1_" d="M30,26c-5,0-9,4-9,9c0,5,4,9,9,9c5,0,9-4,9-9C39,30,35,26,30,26z M30.6,40.6l0,0.1c0,0.1,0,0.2,0,0.3
						h-1.4c0-0.1,0.1-0.3,0.1-0.5c0-0.3,0.1-0.5,0.1-0.6v-0.2l-0.3,0c-0.9-0.1-1.8-0.4-2.6-0.7c-0.3-0.2-0.4-0.2-0.5-0.3
						c0.2-0.3,0.5-0.9,1.1-1.6c0.1,0,0.2,0.1,0.3,0.1c0.3,0.2,0.4,0.2,0.5,0.2c0.6,0.3,1.4,0.5,2.3,0.5c1.2,0,1.4-0.6,1.4-1
						c0-0.5-0.3-1-0.9-1.3c-0.1-0.1-0.4-0.2-0.9-0.5c-0.5-0.2-0.8-0.4-1-0.5c-0.2-0.1-0.4-0.3-0.8-0.5c-0.3-0.2-0.6-0.4-0.7-0.6
						c-0.1-0.2-0.3-0.4-0.4-0.7c-0.1-0.3-0.2-0.6-0.2-0.9c0-1.4,0.9-2.3,2.6-2.6l0.2,0v-0.2c0-0.1,0-0.3,0-0.5c0-0.2,0-0.4,0-0.5
						c0,0,0,0,0-0.1h1.4c0,0.1,0,0.2,0,0.2c0,0.2,0,0.6,0,0.8l0,0.2l0.2,0c0.4,0,0.9,0.1,1.5,0.3c0,0,0.1,0.1,0.2,0.1
						c0.1,0,0.2,0.1,0.3,0.1l0.3,0.1c0,0,0.1,0,0.1,0.1c-0.1,0.1-0.2,0.3-0.4,0.7c-0.3,0.5-0.5,0.7-0.6,0.8c-0.1,0-0.3-0.1-0.6-0.2
						c-0.5-0.2-1-0.3-1.3-0.3c-0.3,0-0.6,0.1-0.9,0.2c-0.3,0.2-0.5,0.4-0.5,0.7c0,0.1,0,0.3,0.1,0.4c0,0.1,0.1,0.2,0.2,0.3
						c0.1,0.1,0.2,0.2,0.3,0.3c0.1,0.1,0.3,0.2,0.4,0.2c0.1,0.1,0.3,0.1,0.5,0.3c0.2,0.1,0.4,0.2,0.6,0.4c0.1,0.1,0.3,0.2,0.6,0.3
						l0.6,0.3c0.1,0.1,0.2,0.2,0.5,0.3c0.2,0.2,0.3,0.3,0.4,0.3c0.1,0.1,0.2,0.2,0.3,0.3c0.1,0.1,0.2,0.3,0.2,0.4
						c0.1,0.1,0.1,0.3,0.1,0.5c0,0.2,0.1,0.4,0.1,0.6c0,0.8-0.3,1.4-0.9,2c-0.6,0.5-1.4,0.9-2.3,1.1l-0.3,0v0.2
						C30.6,40.1,30.6,40.3,30.6,40.6z"/>
				</g>
				<g>
					<path class="st2" d="M30,26c-5,0-9,4-9,9c0,5,4,9,9,9c5,0,9-4,9-9C39,30,35,26,30,26z M30.6,40.6l0,0.1c0,0.1,0,0.2,0,0.3h-1.4
						c0-0.1,0.1-0.3,0.1-0.5c0-0.3,0.1-0.5,0.1-0.6v-0.2l-0.3,0c-0.9-0.1-1.8-0.4-2.6-0.7c-0.3-0.2-0.4-0.2-0.5-0.3
						c0.2-0.3,0.5-0.9,1.1-1.6c0.1,0,0.2,0.1,0.3,0.1c0.3,0.2,0.4,0.2,0.5,0.2c0.6,0.3,1.4,0.5,2.3,0.5c1.2,0,1.4-0.6,1.4-1
						c0-0.5-0.3-1-0.9-1.3c-0.1-0.1-0.4-0.2-0.9-0.5c-0.5-0.2-0.8-0.4-1-0.5c-0.2-0.1-0.4-0.3-0.8-0.5c-0.3-0.2-0.6-0.4-0.7-0.6
						c-0.1-0.2-0.3-0.4-0.4-0.7c-0.1-0.3-0.2-0.6-0.2-0.9c0-1.4,0.9-2.3,2.6-2.6l0.2,0v-0.2c0-0.1,0-0.3,0-0.5c0-0.2,0-0.4,0-0.5
						c0,0,0,0,0-0.1h1.4c0,0.1,0,0.2,0,0.2c0,0.2,0,0.6,0,0.8l0,0.2l0.2,0c0.4,0,0.9,0.1,1.5,0.3c0,0,0.1,0.1,0.2,0.1
						c0.1,0,0.2,0.1,0.3,0.1l0.3,0.1c0,0,0.1,0,0.1,0.1c-0.1,0.1-0.2,0.3-0.4,0.7c-0.3,0.5-0.5,0.7-0.6,0.8c-0.1,0-0.3-0.1-0.6-0.2
						c-0.5-0.2-1-0.3-1.3-0.3c-0.3,0-0.6,0.1-0.9,0.2c-0.3,0.2-0.5,0.4-0.5,0.7c0,0.1,0,0.3,0.1,0.4c0,0.1,0.1,0.2,0.2,0.3
						c0.1,0.1,0.2,0.2,0.3,0.3c0.1,0.1,0.3,0.2,0.4,0.2c0.1,0.1,0.3,0.1,0.5,0.3c0.2,0.1,0.4,0.2,0.6,0.4c0.1,0.1,0.3,0.2,0.6,0.3
						l0.6,0.3c0.1,0.1,0.2,0.2,0.5,0.3c0.2,0.2,0.3,0.3,0.4,0.3c0.1,0.1,0.2,0.2,0.3,0.3c0.1,0.1,0.2,0.3,0.2,0.4
						c0.1,0.1,0.1,0.3,0.1,0.5c0,0.2,0.1,0.4,0.1,0.6c0,0.8-0.3,1.4-0.9,2c-0.6,0.5-1.4,0.9-2.3,1.1l-0.3,0v0.2
						C30.6,40.1,30.6,40.3,30.6,40.6z"/>
				</g>
			</g>
		</g>
	</g>
</g>
</svg>
