<svg xmlns="http://www.w3.org/2000/svg" width="54" height="53" viewBox="0 0 54 53">
    <g fill="none" fill-rule="evenodd">
        <g transform="translate(1 1)">
            <circle cx="28" cy="27" r="25" fill="#363636" opacity=".9"/>
            <path fill="#222" fill-rule="nonzero" d="M26.638 37.733H17V34.55c0-.67.274-1.312.794-1.731 2.82-2.373 5.887-3.937 6.49-4.244.081-.028.109-.112.109-.195v-1.648a6.712 6.712 0 0 1-.767-2.261c-.246-.028-.575-.363-.93-1.648-.439-1.62-.028-1.954.383-1.954h.082a4.336 4.336 0 0 1-.11-2.625c.22-.977.74-1.759 1.314-2.373.356-.391.795-.754 1.233-1.033a4.75 4.75 0 0 1 1.177-.615c.356-.111.712-.195 1.095-.195.165-.028.301-.028.466-.028.958 0 1.697.28 2.245.614.958.53 1.314 1.257 1.314 1.257s2.41.167 1.342 5.305c.328.111.548.558.164 1.926-.356 1.313-.712 1.648-.958 1.648-.082 0-.137-.028-.192-.056a7.44 7.44 0 0 1-.547 1.787v1.926c0 .084.054.14.11.196.273.14 1.067.558 2.135 1.173-.082.083-.192.167-.274.25-.74.727-1.123 1.676-1.123 2.765 0 1.284.438 2.094.904 2.597a1.704 1.704 0 0 0-.767.474 1.634 1.634 0 0 0-.438 1.201c0 .251.055.475.082.698h-5.695v-.028zm10.87-8.935h-.93a.248.248 0 0 0-.247.252v1.116c-.712.112-1.26.363-1.698.782-.465.475-.712 1.061-.712 1.787 0 .81.22 1.396.685 1.815.465.419 1.177.81 2.163 1.229.41.167.685.363.849.558.164.196.246.447.246.782 0 .28-.082.53-.246.698a.916.916 0 0 1-.685.28c-.356 0-.657-.113-.876-.364-.192-.195-.301-.474-.328-.865 0-.14-.137-.28-.302-.28l-1.506.028a.307.307 0 0 0-.3.307c.027.81.3 1.452.766 1.9.52.474 1.177.753 1.944.865v1.06c0 .14.11.252.246.252h.931a.248.248 0 0 0 .247-.251v-1.09c.63-.11 1.122-.362 1.533-.753.466-.447.685-1.061.685-1.787 0-.782-.22-1.396-.685-1.815-.465-.419-1.177-.838-2.163-1.256-.41-.196-.712-.363-.849-.559-.164-.195-.219-.419-.219-.726 0-.279.082-.53.22-.726.136-.195.355-.279.656-.279.302 0 .52.112.712.335.137.196.22.447.247.782 0 .14.137.251.3.251l1.507-.028c.164 0 .301-.14.301-.307a2.81 2.81 0 0 0-.63-1.703 2.794 2.794 0 0 0-1.588-.922v-1.172c0-.084-.137-.196-.274-.196z"/>
            <path fill="#DCBC65" fill-rule="nonzero" d="M23.638 35.733H14V32.55c0-.67.274-1.312.794-1.731 2.82-2.373 5.887-3.937 6.49-4.244.081-.028.109-.112.109-.195v-1.648a6.712 6.712 0 0 1-.767-2.261c-.246-.028-.575-.363-.93-1.648-.439-1.62-.028-1.954.383-1.954h.082a4.336 4.336 0 0 1-.11-2.625c.22-.977.74-1.759 1.314-2.373.356-.391.795-.754 1.233-1.033a4.75 4.75 0 0 1 1.177-.615c.356-.111.712-.195 1.095-.195.165-.028.301-.028.466-.028.958 0 1.697.28 2.245.614.958.53 1.314 1.257 1.314 1.257s2.41.167 1.342 5.305c.328.111.548.558.164 1.926-.356 1.313-.712 1.648-.958 1.648a.39.39 0 0 1-.192-.056 7.44 7.44 0 0 1-.547 1.787v1.926c0 .084.054.14.11.196.273.14 1.067.558 2.135 1.173-.082.083-.192.167-.274.25-.74.727-1.123 1.676-1.123 2.765 0 1.284.438 2.094.904 2.597a1.704 1.704 0 0 0-.767.474 1.634 1.634 0 0 0-.438 1.201c0 .251.055.475.082.698h-5.695v-.028zm10.87-8.935h-.93a.248.248 0 0 0-.247.252v1.116c-.712.112-1.26.363-1.698.782-.465.475-.712 1.061-.712 1.787 0 .81.22 1.396.685 1.815.465.419 1.177.81 2.163 1.229.41.167.685.363.849.558.164.196.246.447.246.782 0 .28-.082.53-.246.698a.916.916 0 0 1-.685.28c-.356 0-.657-.113-.876-.364-.192-.195-.301-.474-.328-.865 0-.14-.137-.28-.302-.28l-1.506.028a.307.307 0 0 0-.3.307c.027.81.3 1.452.766 1.9.52.474 1.177.753 1.944.865v1.06c0 .14.11.252.246.252h.931a.248.248 0 0 0 .247-.251v-1.09c.63-.11 1.122-.362 1.533-.753.466-.447.685-1.061.685-1.787 0-.782-.22-1.396-.685-1.815-.465-.419-1.177-.838-2.163-1.256-.41-.196-.712-.363-.849-.559-.164-.195-.219-.419-.219-.726 0-.279.082-.53.22-.726.136-.195.355-.279.656-.279.302 0 .52.112.712.335.137.196.22.447.247.782 0 .14.137.251.3.251l1.507-.028c.164 0 .301-.14.301-.307a2.81 2.81 0 0 0-.63-1.703 2.794 2.794 0 0 0-1.588-.922v-1.172c0-.084-.137-.196-.274-.196z"/>
            <circle cx="25" cy="25" r="25" stroke="#DCBC65"/>
        </g>
    </g>
</svg>
