<svg xmlns="http://www.w3.org/2000/svg" width="54" height="53" viewBox="0 0 54 53">
    <g fill="none" fill-rule="evenodd">
        <g transform="translate(1 1)">
            <circle cx="28" cy="27" r="25" fill="#363636" opacity=".9"/>
            <circle cx="25" cy="25" r="25" stroke="#DCBC65"/>
        </g>
        <path fill="#222" fill-rule="nonzero" d="M31.003 34.329c.032-.266.054-.542.054-.829 0-.287-.022-.563-.065-.829l1.847-1.402a.43.43 0 0 0 .109-.542l-1.749-2.943a.45.45 0 0 0-.535-.191l-2.175.85a6.45 6.45 0 0 0-1.475-.83l-.328-2.252a.433.433 0 0 0-.437-.361H22.75a.422.422 0 0 0-.426.361l-.328 2.253c-.535.212-1.027.5-1.475.828l-2.175-.85a.438.438 0 0 0-.535.192l-1.75 2.943a.404.404 0 0 0 .11.542l1.847 1.402a5.196 5.196 0 0 0-.076.829c0 .276.022.563.065.829l-1.847 1.402a.43.43 0 0 0-.109.542l1.749 2.943a.45.45 0 0 0 .535.191l2.175-.85c.459.34.94.617 1.475.83l.328 2.252a.441.441 0 0 0 .437.361h3.498c.218 0 .404-.149.426-.361l.328-2.253a6.623 6.623 0 0 0 1.475-.829l2.175.85c.197.075.426 0 .535-.19l1.75-2.944a.404.404 0 0 0-.11-.542l-1.825-1.402zM24.5 37a3.51 3.51 0 0 1-3.5-3.5 3.51 3.51 0 0 1 3.5-3.5 3.51 3.51 0 0 1 3.5 3.5 3.51 3.51 0 0 1-3.5 3.5z"/>
        <path fill="#DCBC65" fill-rule="nonzero" d="M28.003 32.329c.032-.266.054-.542.054-.829 0-.287-.022-.563-.065-.829l1.847-1.402a.43.43 0 0 0 .109-.542l-1.749-2.943a.45.45 0 0 0-.535-.191l-2.175.85a6.45 6.45 0 0 0-1.475-.83l-.328-2.252a.433.433 0 0 0-.437-.361H19.75a.422.422 0 0 0-.426.361l-.328 2.253c-.535.212-1.027.5-1.475.828l-2.175-.85a.438.438 0 0 0-.535.192l-1.75 2.943a.404.404 0 0 0 .11.542l1.847 1.402a5.196 5.196 0 0 0-.076.829c0 .276.022.563.065.829l-1.847 1.402a.43.43 0 0 0-.109.542l1.749 2.943c.109.191.338.255.535.191l2.175-.85c.459.34.94.617 1.475.83l.328 2.252a.441.441 0 0 0 .437.361h3.498c.218 0 .404-.149.426-.361l.328-2.253a6.623 6.623 0 0 0 1.475-.829l2.175.85c.197.075.426 0 .535-.19l1.75-2.944a.404.404 0 0 0-.11-.542l-1.825-1.402zM21.5 35a3.51 3.51 0 0 1-3.5-3.5 3.51 3.51 0 0 1 3.5-3.5 3.51 3.51 0 0 1 3.5 3.5 3.51 3.51 0 0 1-3.5 3.5z"/>
        <path fill="#222" fill-rule="nonzero" d="M39.35 19.273a5.554 5.554 0 0 0-.134-.67 4.198 4.198 0 0 0-.229-.646l1.17-1.51a.355.355 0 0 0-.028-.454l-2.018-1.968a.37.37 0 0 0-.467-.038l-1.549 1.14a5.312 5.312 0 0 0-1.35-.345l-.741-1.722a.356.356 0 0 0-.425-.194l-2.782.745a.347.347 0 0 0-.262.378l.22 1.862c-.381.283-.711.616-.997.974l-1.912-.213a.36.36 0 0 0-.385.267l-.763 2.713A.333.333 0 0 0 26.9 20l1.768.722c.022.22.057.456.116.676.059.22.137.443.229.645l-1.17 1.51a.355.355 0 0 0 .028.454l2.018 1.968a.37.37 0 0 0 .467.038l1.549-1.14c.437.173.879.29 1.35.345l.741 1.722c.08.16.25.24.425.194l2.782-.745c.174-.047.29-.205.262-.378l-.22-1.862c.381-.283.711-.616.997-.974l1.912.213a.36.36 0 0 0 .385-.267l.763-2.713A.333.333 0 0 0 41.1 20l-1.75-.727zm-4.574 3.625a3.009 3.009 0 0 1-3.674-2.122 3.009 3.009 0 0 1 2.122-3.674 3.009 3.009 0 0 1 3.674 2.122 3.009 3.009 0 0 1-2.122 3.674z"/>
        <path fill="#DCBC65" fill-rule="nonzero" d="M36.35 17.273a5.554 5.554 0 0 0-.134-.67 4.198 4.198 0 0 0-.229-.646l1.17-1.51a.355.355 0 0 0-.028-.454l-2.018-1.968a.37.37 0 0 0-.467-.038l-1.549 1.14a5.312 5.312 0 0 0-1.35-.345l-.741-1.722a.356.356 0 0 0-.425-.194l-2.782.745a.347.347 0 0 0-.262.378l.22 1.862c-.381.283-.711.616-.997.974l-1.912-.213a.36.36 0 0 0-.385.267l-.763 2.713A.333.333 0 0 0 23.9 18l1.768.722c.022.22.057.456.116.676.059.22.137.443.229.645l-1.17 1.51a.355.355 0 0 0 .028.454l2.018 1.968a.37.37 0 0 0 .467.038l1.549-1.14c.437.173.879.29 1.35.345l.741 1.722c.08.16.25.24.425.194l2.782-.745c.174-.047.29-.205.262-.378l-.22-1.862c.381-.283.711-.616.997-.974l1.912.213a.36.36 0 0 0 .385-.267l.763-2.713A.333.333 0 0 0 38.1 18l-1.75-.727zm-4.574 3.625a3.009 3.009 0 0 1-3.674-2.122 3.009 3.009 0 0 1 2.122-3.674 3.009 3.009 0 0 1 3.674 2.122 3.009 3.009 0 0 1-2.122 3.674z"/>
    </g>
</svg>
