<svg xmlns="http://www.w3.org/2000/svg" width="54" height="53" viewBox="0 0 54 53">
    <g fill="none" fill-rule="evenodd">
        <g transform="translate(1 1)">
            <circle cx="28" cy="27" r="25" fill="#363636" opacity=".9"/>
            <circle cx="25" cy="25" r="25" stroke="#DCBC65"/>
        </g>
        <g fill-rule="nonzero">
            <g fill="#222">
                <path d="M18.596 22.591h3.827v1.77c0 .239.183.454.435.454h2.82c.228 0 .435-.191.435-.454v-5.835a.445.445 0 0 0-.436-.454h-2.796a.445.445 0 0 0-.435.454v1.77h-3.85c-.275 0-.481.239-.481.502v1.267c0 .311.229.526.48.526zM39.404 20.296H27.51v2.295h11.871c.275 0 .482-.239.482-.502v-1.267c.022-.311-.207-.526-.459-.526zM39.404 27.852H35.12v2.296h4.262c.275 0 .482-.24.482-.502v-1.268c.022-.31-.207-.526-.459-.526zM18.596 30.148H30.03v1.77c0 .239.184.454.436.454h2.818c.23 0 .436-.192.436-.455v-5.834a.445.445 0 0 0-.436-.455H30.49a.445.445 0 0 0-.436.455v1.77H18.596c-.275 0-.481.238-.481.501v1.268c0 .31.229.526.48.526zM39.404 35.409H27.51v2.295h11.871c.275 0 .482-.239.482-.502v-1.267c.022-.287-.207-.526-.459-.526zM25.677 33.185h-2.796a.445.445 0 0 0-.435.454v1.77h-3.85c-.275 0-.481.239-.481.502v1.267c0 .287.229.502.48.502h3.828v1.77c0 .24.183.454.435.454h2.82c.228 0 .435-.191.435-.454v-5.81c0-.264-.184-.455-.436-.455z"/>
            </g>
            <g fill="#DCBC65">
                <path d="M16.596 20.591h3.827v1.77c0 .239.183.454.435.454h2.82c.228 0 .435-.191.435-.454v-5.835a.445.445 0 0 0-.436-.454h-2.796a.445.445 0 0 0-.435.454v1.77h-3.85c-.275 0-.481.239-.481.502v1.267c0 .311.229.526.48.526zM37.404 18.296H25.51v2.295h11.871c.275 0 .482-.239.482-.502v-1.267c.022-.311-.207-.526-.459-.526zM37.404 25.852H33.12v2.296h4.262c.275 0 .482-.24.482-.502v-1.268c.022-.31-.207-.526-.459-.526zM16.596 28.148H28.03v1.77c0 .239.184.454.436.454h2.818c.23 0 .436-.192.436-.455v-5.834a.445.445 0 0 0-.436-.455H28.49a.445.445 0 0 0-.436.455v1.77H16.596c-.275 0-.481.238-.481.501v1.268c0 .31.229.526.48.526zM37.404 33.409H25.51v2.295h11.871c.275 0 .482-.239.482-.502v-1.267c.022-.287-.207-.526-.459-.526zM23.677 31.185h-2.796a.445.445 0 0 0-.435.454v1.77h-3.85c-.275 0-.481.239-.481.502v1.267c0 .287.229.502.48.502h3.828v1.77c0 .24.183.454.435.454h2.82c.228 0 .435-.191.435-.454v-5.81c0-.264-.184-.455-.436-.455z"/>
            </g>
        </g>
    </g>
</svg>
