<svg xmlns="http://www.w3.org/2000/svg" width="54" height="53" viewBox="0 0 54 53">
    <g fill="none" fill-rule="evenodd">
        <g transform="translate(1 1)">
            <circle cx="28" cy="27" r="25" fill="#363636" opacity=".9"/>
            <circle cx="25" cy="25" r="25" stroke="#DCBC65"/>
        </g>
        <path fill="#222" fill-rule="nonzero" d="M29 28c2.21 0 4-1.79 4-4s-1.79-4-4-4-4 1.79-4 4 1.79 4 4 4zm0 2c-2.67 0-8 1.34-8 4v2h16v-2c0-2.66-5.33-4-8-4z"/>
        <path fill="#DCBC65" fill-rule="nonzero" d="M26 26c2.21 0 4-1.79 4-4s-1.79-4-4-4-4 1.79-4 4 1.79 4 4 4zm0 2c-2.67 0-8 1.34-8 4v2h16v-2c0-2.66-5.33-4-8-4z"/>
    </g>
</svg>
