<svg xmlns="http://www.w3.org/2000/svg" width="54" height="53" viewBox="0 0 54 53">
    <g fill="none" fill-rule="evenodd">
        <g transform="translate(1 1)">
            <circle cx="28" cy="27" r="25" fill="#363636" opacity=".9"/>
            <circle cx="25" cy="25" r="25" stroke="#DCBC65"/>
        </g>
        <g fill="#222">
            <path fill-rule="nonzero" d="M32 30.651V32h-3v4h-9v-2c0-2.66 5.33-4 8-4 1.076 0 2.583.218 4 .651zM28 28c-2.21 0-4-1.79-4-4s1.79-4 4-4 4 1.79 4 4-1.79 4-4 4z"/>
            <path d="M34 31h2v8h-2z"/>
            <path d="M31 34h8v2h-8z"/>
        </g>
        <g fill="#DCBC65">
            <path fill-rule="nonzero" d="M30 28.651V30h-3v4h-9v-2c0-2.66 5.33-4 8-4 1.076 0 2.583.218 4 .651zM26 26c-2.21 0-4-1.79-4-4s1.79-4 4-4 4 1.79 4 4-1.79 4-4 4z"/>
            <path d="M32 29h2v8h-2z"/>
            <path d="M29 32h8v2h-8z"/>
        </g>
    </g>
</svg>
