<svg xmlns="http://www.w3.org/2000/svg" width="54" height="53" viewBox="0 0 54 53">
    <g fill="none" fill-rule="evenodd" transform="translate(1 1)">
        <circle cx="28" cy="27" r="25" fill="#363636" opacity=".9"/>
        <circle cx="25" cy="25" r="25" stroke="#DCBC65"/>
        <g fill-rule="nonzero">
            <path fill="#222" d="M18.995 33.99c-2.203 0-3.995-2.016-3.995-4.495S16.792 25 18.995 25c1.106 0 2.005.975 2.005 2.173v4.645c0 1.198-.899 2.172-2.005 2.172zM18.951 27C17.889 27.031 17 28.161 17 29.495c0 1.349.909 2.488 1.986 2.495l.014-.173v-4.645L18.951 27zm16.054 6.99C33.9 33.99 33 33.015 33 31.817v-4.645c0-1.197.899-2.172 2.005-2.172C37.208 25 39 27.017 39 29.495s-1.792 4.495-3.995 4.495zm.009-6.99l-.014.173v4.645l.049.172C36.111 31.96 37 30.83 37 29.496c0-1.35-.908-2.49-1.986-2.496zM28 40a1 1 0 1 1 0-2c4.028 0 6.489-1.746 6.928-4.916a.993.993 0 0 1 1.127-.854 1 1 0 0 1 .854 1.127C36.325 37.579 33.078 40 28 40zm0 0c-1.654 0-3-1.346-3-3s1.346-3 3-3 3 1.346 3 3-1.346 3-3 3zm0-4a1.001 1.001 0 0 0 0 2 1 1 0 0 0 0-2zm8-9a1 1 0 0 1-1-1c0-3.868-2.102-8-8-8s-8 4.132-8 8a1 1 0 0 1-2 0c0-6.075 3.925-10 10-10s10 3.925 10 10a1 1 0 0 1-1 1z"/>
            <path fill="#DCBC65" d="M15.995 30.99c-2.203 0-3.995-2.016-3.995-4.495S13.792 22 15.995 22c1.106 0 2.005.975 2.005 2.173v4.645c0 1.198-.899 2.172-2.005 2.172zM15.951 24C14.889 24.031 14 25.161 14 26.495c0 1.349.909 2.488 1.986 2.495l.014-.173v-4.645L15.951 24zm16.054 6.99C30.9 30.99 30 30.015 30 28.817v-4.645c0-1.197.899-2.172 2.005-2.172C34.208 22 36 24.017 36 26.495s-1.792 4.495-3.995 4.495zm.009-6.99l-.014.173v4.645l.049.172C33.111 28.96 34 27.83 34 26.496c0-1.35-.908-2.49-1.986-2.496zM25 37a1 1 0 1 1 0-2c4.028 0 6.489-1.746 6.928-4.916a.993.993 0 0 1 1.127-.854 1 1 0 0 1 .854 1.127C33.325 34.579 30.078 37 25 37zm0 0c-1.654 0-3-1.346-3-3s1.346-3 3-3 3 1.346 3 3-1.346 3-3 3zm0-4a1.001 1.001 0 0 0 0 2 1 1 0 0 0 0-2zm8-9a1 1 0 0 1-1-1c0-3.868-2.102-8-8-8s-8 4.132-8 8a1 1 0 0 1-2 0c0-6.075 3.925-10 10-10s10 3.925 10 10a1 1 0 0 1-1 1z"/>
        </g>
    </g>
</svg>
