<svg xmlns="http://www.w3.org/2000/svg" width="54" height="53" viewBox="0 0 54 53">
    <g fill="none" fill-rule="evenodd" transform="translate(1 1)">
        <circle cx="28" cy="27" r="25" fill="#363636" opacity=".9"/>
        <g fill="#222" fill-rule="nonzero" transform="translate(15 19)">
            <ellipse cx="14.5" cy="9" rx="3.954" ry="3.809"/>
            <path d="M14.5.113C6.59.113 0 8.365 0 9c0 .634 6.59 8.887 14.5 8.887C22.409 17.887 29 9.635 29 9 29 8.365 22.41.113 14.5.113zm0 15.235c-3.641 0-6.59-2.842-6.59-6.348 0-3.507 2.949-6.348 6.59-6.348 3.64 0 6.59 2.84 6.59 6.348 0 3.506-2.95 6.348-6.59 6.348z"/>
        </g>
        <g fill="#DCBC65" fill-rule="nonzero" transform="translate(11 17)">
            <ellipse cx="14.5" cy="9" rx="3.954" ry="3.809"/>
            <path d="M14.5.113C6.59.113 0 8.365 0 9c0 .634 6.59 8.887 14.5 8.887C22.409 17.887 29 9.635 29 9 29 8.365 22.41.113 14.5.113zm0 15.235c-3.641 0-6.59-2.842-6.59-6.348 0-3.507 2.949-6.348 6.59-6.348 3.64 0 6.59 2.84 6.59 6.348 0 3.506-2.95 6.348-6.59 6.348z"/>
        </g>
        <circle cx="25" cy="25" r="25" stroke="#DCBC65"/>
    </g>
</svg>
