<?xml version="1.0" encoding="UTF-8"?>
<svg width="62px" height="62px" viewBox="0 0 62 62" version="1.1" xmlns="http://www.w3.org/2000/svg" xmlns:xlink="http://www.w3.org/1999/xlink">
    <!-- Generator: Sketch 63.1 (92452) - https://sketch.com -->
    <title>Camera Coming icon</title>
    <desc>Created with Sketch.</desc>
    <defs>
        <path d="M10.7,0 L49.3,0 C55.2094468,-1.08554777e-15 60,4.79055318 60,10.7 L60,49.065625 C60,54.9750718 55.2094468,59.765625 49.3,59.765625 L10.7,59.765625 C4.79055318,59.765625 7.23698514e-16,54.9750718 0,49.065625 L0,10.7 C-7.23698514e-16,4.79055318 4.79055318,1.08554777e-15 10.7,0 Z" id="path-1"></path>
        <path d="M8.60736735,0.0939308531 L30.3587542,10.2367691 C30.8592942,10.4701748 31.0758494,11.0651552 30.8424438,11.5656952 L23.6579333,26.9729276 C23.4245277,27.4734675 22.8295472,27.6900227 22.3290073,27.4566171 L10.468,21.925 L10.4681873,30.275274 L4.46818731,32.234274 L4.46818731,38.275274 C4.46818731,38.8275587 4.02047206,39.275274 3.46818731,39.275274 L2.46818731,39.275274 C1.91590256,39.275274 1.46818731,38.8275587 1.46818731,38.275274 L1.46818731,27.275274 C1.46818731,26.7229892 1.91590256,26.275274 2.46818731,26.275274 L3.46818731,26.275274 C4.02047206,26.275274 4.46818731,26.7229892 4.46818731,27.275274 L4.46818731,29.248274 L7.46818731,28.219274 L7.468,20.526 L0.577620378,17.3137788 C0.077080409,17.0803732 -0.139474768,16.4853927 0.0939308531,15.9848528 L7.2784413,0.577620378 C7.51184692,0.077080409 8.10682738,-0.139474768 8.60736735,0.0939308531 Z" id="path-3"></path>
        <filter x="-24.2%" y="-14.0%" width="148.5%" height="138.2%" filterUnits="objectBoundingBox" id="filter-4">
            <feMorphology radius="0.5" operator="dilate" in="SourceAlpha" result="shadowSpreadOuter1"></feMorphology>
            <feOffset dx="0" dy="2" in="shadowSpreadOuter1" result="shadowOffsetOuter1"></feOffset>
            <feMorphology radius="1" operator="erode" in="SourceAlpha" result="shadowInner"></feMorphology>
            <feOffset dx="0" dy="2" in="shadowInner" result="shadowInner"></feOffset>
            <feComposite in="shadowOffsetOuter1" in2="shadowInner" operator="out" result="shadowOffsetOuter1"></feComposite>
            <feGaussianBlur stdDeviation="2" in="shadowOffsetOuter1" result="shadowBlurOuter1"></feGaussianBlur>
            <feColorMatrix values="0 0 0 0 0   0 0 0 0 0   0 0 0 0 0  0 0 0 0.2 0" type="matrix" in="shadowBlurOuter1"></feColorMatrix>
        </filter>
        <path d="M28.7650048,15.2486943 L32.7650048,15.2486943 C33.3172896,15.2486943 33.7650048,15.6964096 33.7650048,16.2486943 L33.7650048,26.2486943 C33.7650048,26.8009791 33.3172896,27.2486943 32.7650048,27.2486943 L28.7650048,27.2486943 L28.7650048,27.2486943 L28.7650048,15.2486943 Z" id="path-5"></path>
        <filter x="-150.0%" y="-45.8%" width="400.0%" height="225.0%" filterUnits="objectBoundingBox" id="filter-6">
            <feMorphology radius="0.5" operator="dilate" in="SourceAlpha" result="shadowSpreadOuter1"></feMorphology>
            <feOffset dx="0" dy="2" in="shadowSpreadOuter1" result="shadowOffsetOuter1"></feOffset>
            <feMorphology radius="1" operator="erode" in="SourceAlpha" result="shadowInner"></feMorphology>
            <feOffset dx="0" dy="2" in="shadowInner" result="shadowInner"></feOffset>
            <feComposite in="shadowOffsetOuter1" in2="shadowInner" operator="out" result="shadowOffsetOuter1"></feComposite>
            <feGaussianBlur stdDeviation="2" in="shadowOffsetOuter1" result="shadowBlurOuter1"></feGaussianBlur>
            <feColorMatrix values="0 0 0 0 0   0 0 0 0 0   0 0 0 0 0  0 0 0 0.2 0" type="matrix" in="shadowBlurOuter1"></feColorMatrix>
        </filter>
    </defs>
    <g id="App-icons" stroke="none" stroke-width="1" fill="none" fill-rule="evenodd">
        <g id="Categories" transform="translate(-904.000000, -986.000000)">
            <g id="Camera-Coming-icon" transform="translate(905.000000, 987.000000)">
                <g id="base'" opacity="0.300000012">
                    <g>
                        <mask id="mask-2" fill="white">
                            <use xlink:href="#path-1"></use>
                        </mask>
                        <use id="Rectangle-6-Copy-22" stroke="#DCBC65" xlink:href="#path-1"></use>
                        <g id="Group-6" mask="url(#mask-2)" stroke="#DCBC65" stroke-width="0.5">
                            <g id="guides">
                                <ellipse id="Oval-1" cx="30" cy="29.8828125" rx="11.25" ry="11.2050781"></ellipse>
                                <ellipse id="Oval-1" cx="30" cy="29.8828125" rx="15.75" ry="15.6875"></ellipse>
                                <ellipse id="Oval-1" cx="30" cy="29.8828125" rx="25.75" ry="25.6484375"></ellipse>
                                <line x1="0" y1="0" x2="60" y2="59.765625" id="Line" stroke-linecap="square"></line>
                                <line x1="0" y1="0" x2="60" y2="59.765625" id="Line" stroke-linecap="square" transform="translate(30.000000, 29.882812) scale(-1, 1) translate(-30.000000, -29.882812) "></line>
                            </g>
                        </g>
                        <g id="Group-14" mask="url(#mask-2)" stroke="#DCBC65" stroke-linecap="square" stroke-width="0.5">
                            <g transform="translate(3.461538, 0.000000)" id="Line-2">
                                <line x1="0.322802198" y1="0.962171053" x2="0.645604396" y2="59.6546053"></line>
                                <line x1="53.2516026" y1="0.962171053" x2="53.5744048" y2="59.0131579"></line>
                                <line x1="26.7925824" y1="0.320723684" x2="26.6311813" y2="60.1356908"></line>
                                <line x1="15.7366071" y1="0.881990132" x2="15.575206" y2="60.6969572"></line>
                                <line x1="38.332761" y1="0.881990132" x2="38.1713599" y2="60.6969572"></line>
                            </g>
                        </g>
                        <g id="Group-14" mask="url(#mask-2)" stroke="#DCBC65" stroke-linecap="square" stroke-width="0.5">
                            <g transform="translate(30.545673, 30.355168) rotate(90.000000) translate(-30.545673, -30.355168) translate(3.545673, -0.144832)" id="Line-2">
                                <line x1="0.322802198" y1="0.962171053" x2="0.645604396" y2="59.6546053"></line>
                                <line x1="53.2516026" y1="0.962171053" x2="53.5744048" y2="59.0131579"></line>
                                <line x1="26.7925824" y1="0.320723684" x2="26.6311813" y2="60.1356908"></line>
                                <line x1="15.7366071" y1="0.881990132" x2="15.575206" y2="60.6969572"></line>
                                <line x1="38.332761" y1="0.881990132" x2="38.1713599" y2="60.6969572"></line>
                            </g>
                        </g>
                    </g>
                </g>
                <g id="Group-25" transform="translate(12.000000, 10.000000)" fill-rule="nonzero">
                    <g id="Combined-Shape">
                        <use fill="black" fill-opacity="1" filter="url(#filter-4)" xlink:href="#path-3"></use>
                        <use stroke="#DCBC65" stroke-width="1" xlink:href="#path-3"></use>
                    </g>
                    <g id="Rectangle" transform="translate(31.265005, 21.248694) rotate(25.000000) translate(-31.265005, -21.248694) ">
                        <use fill="black" fill-opacity="1" filter="url(#filter-6)" xlink:href="#path-5"></use>
                        <use stroke="#DCBC65" stroke-width="1" xlink:href="#path-5"></use>
                    </g>
                </g>
            </g>
        </g>
    </g>
</svg>