<?xml version="1.0" encoding="UTF-8"?>
<svg width="40px" height="40px" viewBox="0 0 40 40" version="1.1" xmlns="http://www.w3.org/2000/svg" xmlns:xlink="http://www.w3.org/1999/xlink">
    <!-- Generator: Sketch 64 (93537) - https://sketch.com -->
    <title>drive</title>
    <desc>Created with Sketch.</desc>
    <defs>
        <linearGradient x1="1.44424438%" y1="0%" x2="100%" y2="100%" id="linearGradient-1">
            <stop stop-color="#2575FC" offset="0%"></stop>
            <stop stop-color="#6A11CB" offset="100%"></stop>
        </linearGradient>
        <radialGradient cx="38.9605756%" cy="12.9753092%" fx="38.9605756%" fy="12.9753092%" r="106.040764%" gradientTransform="translate(0.389606,0.129753),scale(0.825826,1.000000),rotate(63.595812),translate(-0.389606,-0.129753)" id="radialGradient-2">
            <stop stop-color="#FFFFFF" stop-opacity="0.5" offset="0%"></stop>
            <stop stop-color="#E6E6E6" stop-opacity="0.5" offset="100%"></stop>
        </radialGradient>
        <linearGradient x1="1.44424438%" y1="28.6908474%" x2="100%" y2="71.3091526%" id="linearGradient-3">
            <stop stop-color="#2575FC" offset="0%"></stop>
            <stop stop-color="#6A11CB" offset="100%"></stop>
        </linearGradient>
    </defs>
    <g id="01-Desktop" stroke="none" stroke-width="1" fill="none" fill-rule="evenodd">
        <g id="01-Desktop-/-01-HomePage-/-01_01_Home-1440" transform="translate(-760.000000, -2466.000000)">
            <g id="drive" transform="translate(760.000000, 2466.000000)">
                <path d="M6.66666667,0 L33.3333333,0 C37.0152317,0 40,2.98476833 40,6.66666667 L40,33.3333333 C40,37.0152317 37.0152317,40 33.3333333,40 L6.66666667,40 C2.98476833,40 0,37.0152317 0,33.3333333 L0,6.66666667 C0,2.98476833 2.98476833,0 6.66666667,0 Z" id="path-2" fill="url(#linearGradient-1)" fill-rule="nonzero"></path>
                <g id="Group" transform="translate(6.000000, 7.000000)">
                    <g id="Style-Copy" transform="translate(13.500000, 11.797297) rotate(180.000000) translate(-13.500000, -11.797297) translate(0.000000, 0.297297)">
                        <g id="path-5-link" fill="#000000" fill-rule="nonzero">
                            <path d="M4.49482586,0 L8.70061932,0 C9.44692976,0 9.76923794,0.0312695948 10.103349,0.107580213 C10.4374602,0.183890831 10.7330923,0.305242472 11.0237948,0.485406566 C11.3144974,0.665570658 11.5647157,0.869312791 12.0924368,1.3922797 L12.6575632,1.9523149 C13.1852844,2.4752818 13.4355026,2.67902394 13.7262051,2.85918803 C14.0169077,3.03935212 14.3125398,3.16070376 14.646651,3.23701438 C14.9807621,3.313325 15.3030703,3.34459459 16.0493806,3.34459459 L22.6734437,3.34459459 C24.1778816,3.34459459 24.7234271,3.49982661 25.2734272,3.79131989 C25.8234271,4.08281318 26.2550703,4.51056772 26.5492135,5.05561276 C26.8433568,5.6006578 27,6.14128851 27,7.63217291 L27,17.7238807 C27,19.3141573 26.8329139,19.89083 26.5191612,20.4722114 C26.2054084,21.0535927 25.744989,21.5098642 25.1583224,21.8207903 C24.5716558,22.1317165 23.9897406,22.2972973 22.3850069,22.2972973 L4.61499308,22.2972973 C3.01025945,22.2972973 2.42834426,22.1317165 1.84167762,21.8207903 C1.25501099,21.5098642 0.794591586,21.0535927 0.480838838,20.4722114 C0.16708609,19.89083 0,19.3141573 0,17.7238807 L0,4.45433193 C0,3.00695693 0.16708609,2.40646728 0.480838838,1.82508593 C0.794591586,1.24370459 1.25501099,0.787433101 1.84167762,0.476506957 C2.42834426,0.16558081 3.03429289,0 4.49482586,0 Z" id="path-5"></path>
                        </g>
                        <g id="path-5-link" fill="url(#radialGradient-2)">
                            <path d="M4.49482586,0 L8.70061932,0 C9.44692976,0 9.76923794,0.0312695948 10.103349,0.107580213 C10.4374602,0.183890831 10.7330923,0.305242472 11.0237948,0.485406566 C11.3144974,0.665570658 11.5647157,0.869312791 12.0924368,1.3922797 L12.6575632,1.9523149 C13.1852844,2.4752818 13.4355026,2.67902394 13.7262051,2.85918803 C14.0169077,3.03935212 14.3125398,3.16070376 14.646651,3.23701438 C14.9807621,3.313325 15.3030703,3.34459459 16.0493806,3.34459459 L22.6734437,3.34459459 C24.1778816,3.34459459 24.7234271,3.49982661 25.2734272,3.79131989 C25.8234271,4.08281318 26.2550703,4.51056772 26.5492135,5.05561276 C26.8433568,5.6006578 27,6.14128851 27,7.63217291 L27,17.7238807 C27,19.3141573 26.8329139,19.89083 26.5191612,20.4722114 C26.2054084,21.0535927 25.744989,21.5098642 25.1583224,21.8207903 C24.5716558,22.1317165 23.9897406,22.2972973 22.3850069,22.2972973 L4.61499308,22.2972973 C3.01025945,22.2972973 2.42834426,22.1317165 1.84167762,21.8207903 C1.25501099,21.5098642 0.794591586,21.0535927 0.480838838,20.4722114 C0.16708609,19.89083 0,19.3141573 0,17.7238807 L0,4.45433193 C0,3.00695693 0.16708609,2.40646728 0.480838838,1.82508593 C0.794591586,1.24370459 1.25501099,0.787433101 1.84167762,0.476506957 C2.42834426,0.16558081 3.03429289,0 4.49482586,0 Z" id="path-5"></path>
                        </g>
                    </g>
                    <g id="Style" transform="translate(0.000000, 2.351351)">
                        <g id="path-7-link" fill="#000000" fill-rule="nonzero">
                            <path d="M4.49482586,0 L8.70061932,0 C9.44692976,0 9.76923794,0.033164723 10.103349,0.114100223 C10.4374602,0.19503573 10.7330923,0.323742014 11.0237948,0.514825142 C11.3144974,0.705908277 11.5647157,0.921998412 12.0924368,1.47666028 L12.6575632,2.07063701 C13.1852844,2.62529889 13.4355026,2.84138902 13.7262051,3.03247216 C14.0169077,3.22355528 14.3125398,3.35226157 14.646651,3.43319707 C14.9807621,3.51413257 15.3030703,3.5472973 16.0493806,3.5472973 L22.6734437,3.5472973 C24.1778816,3.5472973 24.7234271,3.71193732 25.2734272,4.02109686 C25.8234271,4.3302564 26.2550703,4.78393545 26.5492135,5.36201353 C26.8433568,5.94009162 27,6.51348784 27,8.09472878 L27,18.7980553 C27,20.4847123 26.8329139,21.0963349 26.5191612,21.7129514 C26.2054084,22.329568 25.744989,22.8134923 25.1583224,23.1432625 C24.5716558,23.4730326 23.9897406,23.6486486 22.3850069,23.6486486 L4.61499308,23.6486486 C3.01025945,23.6486486 2.42834426,23.4730326 1.84167762,23.1432625 C1.25501099,22.8134923 0.794591586,22.329568 0.480838838,21.7129514 C0.16708609,21.0963349 0,20.4847123 0,18.7980553 L0,4.72429144 C0,3.18919674 0.16708609,2.55231378 0.480838838,1.9356972 C0.794591586,1.31908062 1.25501099,0.835156324 1.84167762,0.505386169 C2.42834426,0.175616014 3.03429289,0 4.49482586,0 Z" id="path-7"></path>
                        </g>
                        <g id="path-7-link" fill="#FFFFFF">
                            <path d="M4.49482586,0 L8.70061932,0 C9.44692976,0 9.76923794,0.033164723 10.103349,0.114100223 C10.4374602,0.19503573 10.7330923,0.323742014 11.0237948,0.514825142 C11.3144974,0.705908277 11.5647157,0.921998412 12.0924368,1.47666028 L12.6575632,2.07063701 C13.1852844,2.62529889 13.4355026,2.84138902 13.7262051,3.03247216 C14.0169077,3.22355528 14.3125398,3.35226157 14.646651,3.43319707 C14.9807621,3.51413257 15.3030703,3.5472973 16.0493806,3.5472973 L22.6734437,3.5472973 C24.1778816,3.5472973 24.7234271,3.71193732 25.2734272,4.02109686 C25.8234271,4.3302564 26.2550703,4.78393545 26.5492135,5.36201353 C26.8433568,5.94009162 27,6.51348784 27,8.09472878 L27,18.7980553 C27,20.4847123 26.8329139,21.0963349 26.5191612,21.7129514 C26.2054084,22.329568 25.744989,22.8134923 25.1583224,23.1432625 C24.5716558,23.4730326 23.9897406,23.6486486 22.3850069,23.6486486 L4.61499308,23.6486486 C3.01025945,23.6486486 2.42834426,23.4730326 1.84167762,23.1432625 C1.25501099,22.8134923 0.794591586,22.329568 0.480838838,21.7129514 C0.16708609,21.0963349 0,20.4847123 0,18.7980553 L0,4.72429144 C0,3.18919674 0.16708609,2.55231378 0.480838838,1.9356972 C0.794591586,1.31908062 1.25501099,0.835156324 1.84167762,0.505386169 C2.42834426,0.175616014 3.03429289,0 4.49482586,0 Z" id="path-7"></path>
                        </g>
                    </g>
                    <path d="M12.3589286,9.78378378 C13.9438094,9.78378378 15.1490114,10.6605453 15.7607888,11.7406793 C16.5238611,11.4264177 17.388382,11.4764418 18.088393,11.8877293 C18.802229,12.3071428 19.3193593,13.1022985 19.3648069,14.1669945 C20.6975355,14.461478 21.6,15.7236281 21.6,17.0231697 C21.6,18.6296609 20.2334304,19.9189189 18.2732144,19.9189189 L18.2732144,19.9189189 L9.40178583,19.9189189 C7.56663842,19.9189189 6.075,18.4582505 6.075,16.6612005 C6.075,15.1892712 7.08297919,13.9641651 8.45457602,13.5618364 C8.50042998,11.6116916 10.1139026,9.78378378 12.3589286,9.78378378 Z" id="Shape" fill="url(#linearGradient-3)" fill-rule="nonzero"></path>
                </g>
            </g>
        </g>
    </g>
</svg>