<?xml version="1.0" encoding="UTF-8"?>
<svg width="62px" height="62px" viewBox="0 0 62 62" version="1.1" xmlns="http://www.w3.org/2000/svg" xmlns:xlink="http://www.w3.org/1999/xlink">
    <!-- Generator: Sketch 63.1 (92452) - https://sketch.com -->
    <title>factory Coming icon</title>
    <desc>Created with Sketch.</desc>
    <defs>
        <path d="M42.983261,37.3211921 L37.9254371,0 L27.0215571,0 L24,18.0794702 L34.3127058,18.0794702 C34.7068219,18.0794702 35.0352521,18.4023179 35.0352521,18.7897351 L35.0352521,39 L41.5381684,39 C41.9979706,39 42.3920868,38.8062914 42.6548308,38.4834437 C42.9175749,38.160596 43.048947,37.7731788 42.983261,37.3211921 Z" id="path-1"></path>
        <filter x="-36.8%" y="-12.8%" width="173.7%" height="135.9%" filterUnits="objectBoundingBox" id="filter-2">
            <feOffset dx="0" dy="2" in="SourceAlpha" result="shadowOffsetOuter1"></feOffset>
            <feMorphology radius="1" operator="erode" in="SourceAlpha" result="shadowInner"></feMorphology>
            <feOffset dx="0" dy="2" in="shadowInner" result="shadowInner"></feOffset>
            <feComposite in="shadowOffsetOuter1" in2="shadowInner" operator="out" result="shadowOffsetOuter1"></feComposite>
            <feGaussianBlur stdDeviation="2" in="shadowOffsetOuter1" result="shadowBlurOuter1"></feGaussianBlur>
            <feColorMatrix values="0 0 0 0 0   0 0 0 0 0   0 0 0 0 0  0 0 0 0.2 0" type="matrix" in="shadowBlurOuter1"></feColorMatrix>
        </filter>
        <polygon id="path-3" points="0 19 0 39 34 39 34 19"></polygon>
        <filter x="-20.6%" y="-25.0%" width="141.2%" height="170.0%" filterUnits="objectBoundingBox" id="filter-4">
            <feOffset dx="0" dy="2" in="SourceAlpha" result="shadowOffsetOuter1"></feOffset>
            <feMorphology radius="1" operator="erode" in="SourceAlpha" result="shadowInner"></feMorphology>
            <feOffset dx="0" dy="2" in="shadowInner" result="shadowInner"></feOffset>
            <feComposite in="shadowOffsetOuter1" in2="shadowInner" operator="out" result="shadowOffsetOuter1"></feComposite>
            <feGaussianBlur stdDeviation="2" in="shadowOffsetOuter1" result="shadowBlurOuter1"></feGaussianBlur>
            <feColorMatrix values="0 0 0 0 0   0 0 0 0 0   0 0 0 0 0  0 0 0 0.2 0" type="matrix" in="shadowBlurOuter1"></feColorMatrix>
        </filter>
        <polygon id="path-5" points="6 0 6 18 12 18 12 0"></polygon>
        <filter x="-116.7%" y="-27.8%" width="333.3%" height="177.8%" filterUnits="objectBoundingBox" id="filter-6">
            <feOffset dx="0" dy="2" in="SourceAlpha" result="shadowOffsetOuter1"></feOffset>
            <feMorphology radius="1" operator="erode" in="SourceAlpha" result="shadowInner"></feMorphology>
            <feOffset dx="0" dy="2" in="shadowInner" result="shadowInner"></feOffset>
            <feComposite in="shadowOffsetOuter1" in2="shadowInner" operator="out" result="shadowOffsetOuter1"></feComposite>
            <feGaussianBlur stdDeviation="2" in="shadowOffsetOuter1" result="shadowBlurOuter1"></feGaussianBlur>
            <feColorMatrix values="0 0 0 0 0   0 0 0 0 0   0 0 0 0 0  0 0 0 0.2 0" type="matrix" in="shadowBlurOuter1"></feColorMatrix>
        </filter>
        <polygon id="path-7" points="16 6 16 17.9444444 22 17.9444444 22 6"></polygon>
        <filter x="-116.7%" y="-41.9%" width="333.3%" height="217.2%" filterUnits="objectBoundingBox" id="filter-8">
            <feOffset dx="0" dy="2" in="SourceAlpha" result="shadowOffsetOuter1"></feOffset>
            <feMorphology radius="1" operator="erode" in="SourceAlpha" result="shadowInner"></feMorphology>
            <feOffset dx="0" dy="2" in="shadowInner" result="shadowInner"></feOffset>
            <feComposite in="shadowOffsetOuter1" in2="shadowInner" operator="out" result="shadowOffsetOuter1"></feComposite>
            <feGaussianBlur stdDeviation="2" in="shadowOffsetOuter1" result="shadowBlurOuter1"></feGaussianBlur>
            <feColorMatrix values="0 0 0 0 0   0 0 0 0 0   0 0 0 0 0  0 0 0 0.2 0" type="matrix" in="shadowBlurOuter1"></feColorMatrix>
        </filter>
        <rect id="path-9" x="6" y="23" width="22" height="5" rx="0.5"></rect>
        <filter x="-31.8%" y="-100.0%" width="163.6%" height="380.0%" filterUnits="objectBoundingBox" id="filter-10">
            <feOffset dx="0" dy="2" in="SourceAlpha" result="shadowOffsetOuter1"></feOffset>
            <feMorphology radius="1" operator="erode" in="SourceAlpha" result="shadowInner"></feMorphology>
            <feOffset dx="0" dy="2" in="shadowInner" result="shadowInner"></feOffset>
            <feComposite in="shadowOffsetOuter1" in2="shadowInner" operator="out" result="shadowOffsetOuter1"></feComposite>
            <feGaussianBlur stdDeviation="2" in="shadowOffsetOuter1" result="shadowBlurOuter1"></feGaussianBlur>
            <feColorMatrix values="0 0 0 0 0   0 0 0 0 0   0 0 0 0 0  0 0 0 0.2 0" type="matrix" in="shadowBlurOuter1"></feColorMatrix>
        </filter>
        <path d="M11.5,31 L21.5,31 C21.7761424,31 22,31.2238576 22,31.5 L22,39 L22,39 L11,39 L11,31.5 C11,31.2238576 11.2238576,31 11.5,31 Z" id="path-11"></path>
        <filter x="-63.6%" y="-62.5%" width="227.3%" height="275.0%" filterUnits="objectBoundingBox" id="filter-12">
            <feOffset dx="0" dy="2" in="SourceAlpha" result="shadowOffsetOuter1"></feOffset>
            <feMorphology radius="1" operator="erode" in="SourceAlpha" result="shadowInner"></feMorphology>
            <feOffset dx="0" dy="2" in="shadowInner" result="shadowInner"></feOffset>
            <feComposite in="shadowOffsetOuter1" in2="shadowInner" operator="out" result="shadowOffsetOuter1"></feComposite>
            <feGaussianBlur stdDeviation="2" in="shadowOffsetOuter1" result="shadowBlurOuter1"></feGaussianBlur>
            <feColorMatrix values="0 0 0 0 0   0 0 0 0 0   0 0 0 0 0  0 0 0 0.2 0" type="matrix" in="shadowBlurOuter1"></feColorMatrix>
        </filter>
        <path d="M10.7,0 L49.3,0 C55.2094468,-1.08554777e-15 60,4.79055318 60,10.7 L60,49.065625 C60,54.9750718 55.2094468,59.765625 49.3,59.765625 L10.7,59.765625 C4.79055318,59.765625 7.23698514e-16,54.9750718 0,49.065625 L0,10.7 C-7.23698514e-16,4.79055318 4.79055318,1.08554777e-15 10.7,0 Z" id="path-13"></path>
    </defs>
    <g id="App-icons" stroke="none" stroke-width="1" fill="none" fill-rule="evenodd">
        <g id="Categories" transform="translate(-824.000000, -549.000000)">
            <g id="factory-Coming-icon" transform="translate(825.000000, 550.000000)">
                <g id="Group-21" transform="translate(9.000000, 11.000000)" fill-rule="nonzero">
                    <g id="Path">
                        <use fill="black" fill-opacity="1" filter="url(#filter-2)" xlink:href="#path-1"></use>
                        <path stroke="#DCBC65" stroke-width="1" d="M37.4886275,0.5 L27.4449286,0.5 L24.5904979,17.5794702 L34.3127058,17.5794702 C34.645158,17.5794702 34.9504562,17.7146946 35.1722825,17.9327504 C35.3972639,18.1539078 35.5352521,18.45872 35.5352521,18.7897351 L35.5352521,38.5 L41.5381684,38.5 C41.8366742,38.5 42.0955308,38.3785626 42.267027,38.1678361 C42.4420815,37.9527372 42.5323376,37.6950314 42.4884588,37.3931003 L37.4886275,0.5 Z" stroke-linejoin="square"></path>
                    </g>
                    <g id="Path">
                        <use fill="black" fill-opacity="1" filter="url(#filter-4)" xlink:href="#path-3"></use>
                        <path stroke="#DCBC65" stroke-width="1" d="M33.5,19.5 L0.5,19.5 L0.5,38.5 L33.5,38.5 L33.5,19.5 Z" stroke-linejoin="square"></path>
                    </g>
                    <g id="Path">
                        <use fill="black" fill-opacity="1" filter="url(#filter-6)" xlink:href="#path-5"></use>
                        <path stroke="#DCBC65" stroke-width="1" d="M11.5,0.5 L6.5,0.5 L6.5,17.5 L11.5,17.5 L11.5,0.5 Z" stroke-linejoin="square"></path>
                    </g>
                    <g id="Path">
                        <use fill="black" fill-opacity="1" filter="url(#filter-8)" xlink:href="#path-7"></use>
                        <path stroke="#DCBC65" stroke-width="1" d="M21.5,6.5 L16.5,6.5 L16.5,17.4444444 L21.5,17.4444444 L21.5,6.5 Z" stroke-linejoin="square"></path>
                    </g>
                    <g id="Rectangle">
                        <use fill="black" fill-opacity="1" filter="url(#filter-10)" xlink:href="#path-9"></use>
                        <rect stroke="#DCBC65" stroke-width="1" stroke-linejoin="square" x="6.5" y="23.5" width="21" height="4" rx="0.5"></rect>
                    </g>
                    <g id="Rectangle">
                        <use fill="black" fill-opacity="1" filter="url(#filter-12)" xlink:href="#path-11"></use>
                        <path stroke="#DCBC65" stroke-width="1" d="M21.0317035,31.5228664 L11.5,31.976757 L11.5,38.5 L21.4677744,38.5 L21.0317035,31.5228664 Z" stroke-linejoin="square"></path>
                    </g>
                </g>
                <g id="base'" opacity="0.300000012">
                    <g>
                        <mask id="mask-14" fill="white">
                            <use xlink:href="#path-13"></use>
                        </mask>
                        <use id="Rectangle-6-Copy-22" stroke="#DCBC65" xlink:href="#path-13"></use>
                        <g id="Group-6" mask="url(#mask-14)" stroke="#DCBC65" stroke-width="0.5">
                            <g id="guides">
                                <ellipse id="Oval-1" cx="30" cy="29.8828125" rx="11.25" ry="11.2050781"></ellipse>
                                <ellipse id="Oval-1" cx="30" cy="29.8828125" rx="15.75" ry="15.6875"></ellipse>
                                <ellipse id="Oval-1" cx="30" cy="29.8828125" rx="25.75" ry="25.6484375"></ellipse>
                                <line x1="0" y1="0" x2="60" y2="59.765625" id="Line" stroke-linecap="square"></line>
                                <line x1="0" y1="0" x2="60" y2="59.765625" id="Line" stroke-linecap="square" transform="translate(30.000000, 29.882812) scale(-1, 1) translate(-30.000000, -29.882812) "></line>
                            </g>
                        </g>
                        <g id="Group-14" mask="url(#mask-14)" stroke="#DCBC65" stroke-linecap="square" stroke-width="0.5">
                            <g transform="translate(3.461538, 0.000000)" id="Line-2">
                                <line x1="0.322802198" y1="0.962171053" x2="0.645604396" y2="59.6546053"></line>
                                <line x1="53.2516026" y1="0.962171053" x2="53.5744048" y2="59.0131579"></line>
                                <line x1="26.7925824" y1="0.320723684" x2="26.6311813" y2="60.1356908"></line>
                                <line x1="15.7366071" y1="0.881990132" x2="15.575206" y2="60.6969572"></line>
                                <line x1="38.332761" y1="0.881990132" x2="38.1713599" y2="60.6969572"></line>
                            </g>
                        </g>
                        <g id="Group-14" mask="url(#mask-14)" stroke="#DCBC65" stroke-linecap="square" stroke-width="0.5">
                            <g transform="translate(30.545673, 30.355168) rotate(90.000000) translate(-30.545673, -30.355168) translate(3.545673, -0.144832)" id="Line-2">
                                <line x1="0.322802198" y1="0.962171053" x2="0.645604396" y2="59.6546053"></line>
                                <line x1="53.2516026" y1="0.962171053" x2="53.5744048" y2="59.0131579"></line>
                                <line x1="26.7925824" y1="0.320723684" x2="26.6311813" y2="60.1356908"></line>
                                <line x1="15.7366071" y1="0.881990132" x2="15.575206" y2="60.6969572"></line>
                                <line x1="38.332761" y1="0.881990132" x2="38.1713599" y2="60.6969572"></line>
                            </g>
                        </g>
                    </g>
                </g>
            </g>
        </g>
    </g>
</svg>