<?xml version="1.0" encoding="UTF-8"?>
<svg width="40px" height="40px" viewBox="0 0 40 40" version="1.1" xmlns="http://www.w3.org/2000/svg" xmlns:xlink="http://www.w3.org/1999/xlink">
    <!-- Generator: Sketch 64 (93537) - https://sketch.com -->
    <title>iot</title>
    <desc>Created with Sketch.</desc>
    <defs>
        <linearGradient x1="0%" y1="0%" x2="117.692718%" y2="111.015449%" id="linearGradient-1">
            <stop stop-color="#9B3CB7" offset="0%"></stop>
            <stop stop-color="#FF396F" offset="100%"></stop>
        </linearGradient>
        <path d="M6,0 L34,0 C37.3137085,-6.08718376e-16 40,2.6862915 40,6 L40,34 C40,37.3137085 37.3137085,40 34,40 L6,40 C2.6862915,40 4.05812251e-16,37.3137085 0,34 L0,6 C-4.05812251e-16,2.6862915 2.6862915,6.08718376e-16 6,0 Z" id="path-2"></path>
        <linearGradient x1="2.46875%" y1="0%" x2="114.35039%" y2="111.015449%" id="linearGradient-4">
            <stop stop-color="#9B3CB7" offset="0%"></stop>
            <stop stop-color="#FF396F" offset="100%"></stop>
        </linearGradient>
        <ellipse id="path-5" cx="6.5" cy="6.71018065" rx="6.5" ry="6.66666667"></ellipse>
        <filter x="-53.8%" y="-37.5%" width="207.7%" height="205.0%" filterUnits="objectBoundingBox" id="filter-6">
            <feOffset dx="0" dy="2" in="SourceAlpha" result="shadowOffsetOuter1"></feOffset>
            <feGaussianBlur stdDeviation="2" in="shadowOffsetOuter1" result="shadowBlurOuter1"></feGaussianBlur>
            <feColorMatrix values="0 0 0 0 0   0 0 0 0 0   0 0 0 0 0  0 0 0 0.2 0" type="matrix" in="shadowBlurOuter1"></feColorMatrix>
        </filter>
        <path d="M6.5,8.37684731 C3.61227448,8.37684731 1.20827964,6.23223947 0.8125,3.4595679 C1.9558634,1.40687182 4.08134665,0.0435139805 6.5,0.0435139805 C8.91865335,0.0435139805 11.0441366,1.40687182 12.1875,3.44424927 C11.7917204,6.23223947 9.38772552,8.37684731 6.5,8.37684731 Z M12.8076691,5.04351398 C12.4779589,5.71435477 11.9833937,6.62371672 11.4476147,7.07094391 C10.5409118,7.83123014 8.75498188,9.08346628 8.75498188,9.08346628 C7.87575483,9.8437525 7.3125,11.0065432 7.3125,12.3333172 C7.3125,12.691099 7.35371377,13.0339731 7.4361413,13.3768473 C10.5683877,13.0339731 13,10.1717191 13,6.69825459 C13,6.13176681 12.9313104,5.58018661 12.8076691,5.04351398 Z M4.24152542,9.09070633 C4.24152542,9.09070633 2.46504237,7.83622605 1.54237288,7.0745773 C1.00529661,6.62654863 0.509533898,5.71555699 0.179025424,5.04351398 C0.0688559322,5.5662141 0,6.1187828 0,6.68628578 C0,10.1659752 2.4375,13.0184244 5.56355932,13.3768473 C5.64618644,13.048293 5.6875,12.7048043 5.6875,12.3463814 C5.6875,11.3756526 5.37076271,10.4646609 4.86122881,9.76274934 C4.6684322,9.50886643 4.46186441,9.28485209 4.24152542,9.09070633 Z" id="path-7"></path>
        <filter x="-53.8%" y="-37.5%" width="207.7%" height="205.0%" filterUnits="objectBoundingBox" id="filter-8">
            <feOffset dx="0" dy="2" in="SourceAlpha" result="shadowOffsetOuter1"></feOffset>
            <feGaussianBlur stdDeviation="2" in="shadowOffsetOuter1" result="shadowBlurOuter1"></feGaussianBlur>
            <feColorMatrix values="0 0 0 0 0   0 0 0 0 0   0 0 0 0 0  0 0 0 0.2 0" type="matrix" in="shadowBlurOuter1"></feColorMatrix>
        </filter>
        <linearGradient x1="0%" y1="32.4243466%" x2="117.692718%" y2="71.4477278%" id="linearGradient-9">
            <stop stop-color="#9B3CB7" offset="0%"></stop>
            <stop stop-color="#FF396F" offset="100%"></stop>
        </linearGradient>
        <linearGradient x1="30.46875%" y1="0%" x2="76.4424681%" y2="111.015449%" id="linearGradient-10">
            <stop stop-color="#9B3CB7" offset="0%"></stop>
            <stop stop-color="#FF396F" offset="100%"></stop>
        </linearGradient>
        <linearGradient x1="0%" y1="37.5%" x2="117.692718%" y2="65.2538623%" id="linearGradient-11">
            <stop stop-color="#9B3CB7" offset="0%"></stop>
            <stop stop-color="#FF396F" offset="100%"></stop>
        </linearGradient>
    </defs>
    <g id="01-Desktop" stroke="none" stroke-width="1" fill="none" fill-rule="evenodd">
        <g id="01-Desktop-/-01-HomePage-/-01_01_Home-1440" transform="translate(-991.000000, -2342.000000)">
            <g id="iot" transform="translate(991.000000, 2342.000000)">
                <mask id="mask-3" fill="white">
                    <use xlink:href="#path-2"></use>
                </mask>
                <use id="Rectangle-6-Copy-18" fill="url(#linearGradient-1)" xlink:href="#path-2"></use>
                <circle id="Oval" stroke="#FFFFFF" fill="url(#linearGradient-1)" mask="url(#mask-3)" cx="19.5" cy="19.5" r="14.5"></circle>
                <g id="Group-16" transform="translate(13.000000, 3.000000)">
                    <g id="Oval">
                        <use fill="black" fill-opacity="1" filter="url(#filter-6)" xlink:href="#path-5"></use>
                        <use fill="url(#linearGradient-4)" fill-rule="evenodd" xlink:href="#path-5"></use>
                    </g>
                    <g id="Shape" fill-rule="nonzero">
                        <use fill="black" fill-opacity="1" filter="url(#filter-8)" xlink:href="#path-7"></use>
                        <use fill="#FFFFFF" xlink:href="#path-7"></use>
                    </g>
                </g>
                <g id="Group-17" transform="translate(25.000000, 20.000000)">
                    <ellipse id="Oval" fill="url(#linearGradient-9)" cx="5.5" cy="3.30343759" rx="5.5" ry="3.26086957"></ellipse>
                    <path d="M0,12.3407047 C0,13.6934997 2.772,14.3903941 5.5,14.3903941 C8.228,14.3903941 11,13.6934997 11,12.3407047 L11,2.19474194 C11,2.17424504 11,2.17424504 11,2.15374815 C11,2.13325125 11,2.11275436 11,2.09225747 C11,0.739462434 8.228,0.0425680244 5.5,0.0425680244 C2.772,0.0425680244 0,0.739462434 0,2.09225747 C0,2.11275436 0,2.13325125 0,2.15374815 C0,2.17424504 0,2.17424504 0,2.19474194 L0,12.3407047 Z M5.5,0.939307155 C8.51391941,0.939307155 10.1538462,1.83604629 10.1538462,2.28441585 C10.1538462,2.73278542 8.51391941,3.62952455 5.5,3.62952455 C2.48608059,3.62952455 0.846153846,2.73278542 0.846153846,2.28441585 C0.846153846,1.83604629 2.48608059,0.939307155 5.5,0.939307155 Z" id="Shape" fill="#FFFFFF" fill-rule="nonzero"></path>
                </g>
                <g id="Group-15" transform="translate(3.000000, 19.000000)">
                    <g id="Group" transform="translate(0.000000, 0.666667)">
                        <path d="M7.33161064,6.29636824 L7.33333333,6.29711957 L7.33333333,14 L7.331,13.9986667 L7.331,14.0946667 L7.33052804,14.1617587 C7.3250226,14.4036324 7.28890571,14.538156 7.08474228,14.5745475 L7.051,14.5776667 L6.99120139,14.6124662 L6.99120139,14.6124662 L6.91087993,14.6436246 C6.75353273,14.6901342 6.61335067,14.6526265 6.47030776,14.5836123 L6.47030776,14.5836123 L6.46029476,14.5791114 L6.46029476,14.5791114 L5.7064586,14.2130363 C5.19293455,13.9639852 4.68084092,13.714934 4.16731686,13.4658829 C3.56939749,13.1748232 2.97290854,12.8852638 2.37498916,12.5957044 C1.88435197,12.3571554 1.39371478,12.1201068 0.90307759,11.8815578 L0.90307759,11.8815578 L0.285132206,11.5814962 C0.107758994,11.4959787 0.00190723884,11.25893 0.00190723884,11.06389 L0.00190723884,11.06389 L0.00190723884,11.0503872 C-0.00238404855,10.7353226 0.00190723884,10.4187576 0.00190723884,10.1036929 L0.00190723884,10.1036929 L0.00190723884,3.26678983 C0.00190723884,3.05524641 0.110619853,2.85570546 0.285132206,2.7491836 C0.375249241,2.69367221 0.471087993,2.66666667 0.57407889,2.66666667 C0.677069788,2.66816697 0.774338968,2.69517252 0.863025574,2.7491836 C0.865886433,2.75068391 0.87017772,2.75218422 0.873038578,2.75368452 C1.1247941,2.87520946 1.3751192,2.99823471 1.62687473,3.11975965 C2.14039879,3.36881076 2.65249241,3.61786188 3.16601647,3.86691299 L3.16601647,3.86691299 L4.95834417,4.73709157 L4.95834417,4.73709157 L6.43025574,5.45123813 L6.43025574,5.45123813 L7.04820113,5.75129971 C7.22557434,5.83681726 7.33142609,6.07386591 7.33142609,6.26890594 L7.33142609,6.26890594 L7.33161064,6.29636824 L7.33161064,6.29636824 Z M7.00003538,14.5836123 L7.051,14.5776667 L7.06973767,14.567193 C7.14598526,14.5155584 7.21327265,14.4458841 7.25275249,14.367568 C7.2807889,14.3117565 7.30333247,14.2513841 7.31717902,14.1891394 L7.331,14.0946667 L7.32942349,13.9994764 C7.32938758,13.9991397 7.32935133,13.9988031 7.32931474,13.9984664 L6.89675109,13.8073803 C6.90866294,14.2887441 6.93929294,14.5865619 7.00003538,14.5836123 Z" id="Combined-Shape" fill="#FFFFFF" fill-rule="nonzero"></path>
                        <polygon id="Path" fill="url(#linearGradient-10)" transform="translate(10.000000, 8.666667) scale(-1, 1) translate(-10.000000, -8.666667) " points="13.3333333 14 6.66666667 11.0362138 6.66666667 3.33333333 13.3333333 6.29711957"></polygon>
                        <polygon id="Path-2" fill="url(#linearGradient-11)" points="6.49876306 0 0.666666667 2.89763406 6.77627041 6 12.6666667 3.3455944"></polygon>
                    </g>
                    <path d="M13.9984503,3.97299425 L14,3.99965066 C14,4.00773694 13.9998463,4.01589391 13.9995408,4.02410989 C14.0016814,4.31427331 13.9981213,4.60472783 13.9981213,4.89391855 L13.9981213,4.89391855 L13.9981213,9.08799133 C13.9981213,9.70922429 13.9783955,11.2683089 13.9783955,11.8910425 L13.978,11.8830983 L13.9800546,11.8965558 C13.9813838,11.9112815 13.9783955,11.9112733 13.9783955,11.8910425 L13.9500804,11.9728532 C13.9021972,12.0849752 13.8160796,12.2028594 13.7191409,12.249677 C13.714914,12.2511775 13.710687,12.2526781 13.707869,12.2541787 C13.4612954,12.3817265 13.2076769,12.4957692 12.9568763,12.6173148 C12.4397763,12.8679088 11.9212672,13.1185028 11.4041672,13.3690967 L11.4041672,13.3690967 L9.61474745,14.2349214 C9.12160027,14.4735109 8.6284531,14.7121004 8.13530592,14.9506898 C7.9295931,15.0512275 7.72247129,15.1502647 7.51675846,15.2508024 C7.42799197,15.3063232 7.33358951,15.3333333 7.23214209,15.3333333 C7.13069468,15.3318328 7.03488322,15.3048226 6.94752572,15.2508024 C6.77562871,15.1442624 6.66854532,14.9446876 6.66854532,14.7331082 L6.66854532,14.7331082 L6.66854532,14.7196032 C6.66431835,14.404485 6.66854532,14.0878663 6.66854532,13.7727481 L6.66854532,13.7727481 L6.66662163,7.94049738 C4.07960395,7.13206041 6.69214383,7.93601961 6.64581146,7.91137914 C6.6443418,7.91137914 6.6443418,7.90971174 6.64287214,7.90971174 C6.40184758,7.78632388 6.16082301,7.65793382 5.91979845,7.53121116 C5.38925047,7.25275478 1.44908671,5.18517451 0.934705018,4.91505515 L0.934705018,4.91505515 L0.290993072,4.57657225 C0.108754986,4.48153025 0,4.21808051 0,4.00131806 C0,3.78455561 0.108754986,3.52277327 0.290993072,3.42606387 C0.293932396,3.42439647 0.298341381,3.42272907 0.301280705,3.42106166 C0.555532228,3.27766497 6.43418014,0.201305608 6.64581146,0.0895895772 C6.79571699,0.0112216152 6.93533487,-0.0187916468 7.09846735,0.0228934393 C7.10592377,0.0248010129 7.11106504,0.0303599638 7.11425163,0.0391032593 L7.115,0.0510983124 L7.16811817,0.078612188 C7.93439448,0.472342971 12.2535471,2.6749962 12.9980593,3.05710703 L13.0638253,3.09091578 L13.0638253,3.09091578 L13.5761631,3.35322652 C13.6258503,3.36692015 13.6736422,3.38772873 13.7191409,3.41586428 C13.891038,3.52240423 13.9981213,3.72197908 13.9981213,3.93355842 L13.9981213,3.93355842 L13.9984503,3.97299425 L13.9984503,3.97299425 Z M12.8720015,5.00545458 L12.7581356,5.06512146 C12.2040731,5.35191485 11.6485408,5.63704084 11.0930086,5.92383423 L11.0930086,5.92383423 L9.23976485,6.87925641 C8.75036742,7.13270173 8.25950031,7.38447965 7.76863321,7.63792498 L7.795,7.62309831 L7.795,13.8050983 L8.48614491,13.4718853 L8.48614491,13.4718853 L9.26249947,13.0959943 C9.85850305,12.8078863 10.4559156,12.5182777 11.0519192,12.2301696 L11.0519192,12.2301696 L12.5313607,11.5144012 C12.6074361,11.4772211 12.7368882,11.4154145 12.8750362,11.3522049 L12.874,11.3520983 L12.8709278,11.3522049 L12.8709588,6.45624942 C12.8711952,5.95955922 12.8726873,5.27177832 12.8720015,5.00545458 Z M7,1.33347255 L6.99311015,1.35277999 C6.7860525,1.60871995 2.5208148,3.70970258 1.99081744,3.9726579 L1.93693034,3.99965066 C2.19706051,4.12970813 2.72181398,4.39149047 3.24942263,4.66827944 C3.86374134,4.99175571 4.47659038,5.31356457 5.09090909,5.63537344 C5.59500315,5.90049059 6.28280495,6.28004887 6.78689901,6.54516602 C6.78942537,6.54649963 6.7926387,6.54743913 6.79652222,6.54799374 C6.8394772,6.4904762 6.88963405,6.44533069 6.94752572,6.4169897 C6.9517527,6.41548914 6.95597968,6.41398858 6.95879766,6.41248802 C7.20537125,6.28494019 7.4589898,6.17089742 7.70979036,6.04935184 C8.2268904,5.79875787 8.74539943,5.54816389 9.26249947,5.29756992 C9.85850305,5.00946188 10.4559156,4.71985328 11.0519192,4.43174524 L11.0519192,4.43174524 L11.9846326,3.980234 C11.4715044,3.71675078 7.49644428,1.58934458 7,1.33347255 L7,1.33347255 Z" id="Combined-Shape" fill="#FFFFFF" fill-rule="nonzero"></path>
                </g>
            </g>
        </g>
    </g>
</svg>