<?xml version="1.0" encoding="UTF-8"?>
<svg width="40px" height="40px" viewBox="0 0 40 40" version="1.1" xmlns="http://www.w3.org/2000/svg" xmlns:xlink="http://www.w3.org/1999/xlink">
    <!-- Generator: Sketch 64 (93537) - https://sketch.com -->
    <title>items</title>
    <desc>Created with Sketch.</desc>
    <defs>
        <linearGradient x1="1.44424438%" y1="0%" x2="100%" y2="100%" id="linearGradient-1">
            <stop stop-color="#16A085" offset="0%"></stop>
            <stop stop-color="#F4D03F" offset="100%"></stop>
        </linearGradient>
        <path d="M7.5,0 L32.5,0 C36.6421356,-7.6089797e-16 40,3.35786438 40,7.5 L40,32.5 C40,36.6421356 36.6421356,40 32.5,40 L7.5,40 C3.35786438,40 5.07265313e-16,36.6421356 0,32.5 L0,7.5 C-5.07265313e-16,3.35786438 3.35786438,7.6089797e-16 7.5,0 Z" id="path-2"></path>
        <path d="M8.5,9 L34.1666667,9 C34.9950938,9 35.6666667,9.67157288 35.6666667,10.5 L35.6666667,27.5 C35.6666667,28.3284271 34.9950938,29 34.1666667,29 L8.5,29 C7.67157288,29 7,28.3284271 7,27.5 L7,10.5 C7,9.67157288 7.67157288,9 8.5,9 Z" id="path-4"></path>
        <filter x="-19.2%" y="-17.5%" width="138.4%" height="155.0%" filterUnits="objectBoundingBox" id="filter-5">
            <feOffset dx="0" dy="2" in="SourceAlpha" result="shadowOffsetOuter1"></feOffset>
            <feGaussianBlur stdDeviation="1.5" in="shadowOffsetOuter1" result="shadowBlurOuter1"></feGaussianBlur>
            <feColorMatrix values="0 0 0 0 0   0 0 0 0 0   0 0 0 0 0  0 0 0 0.2 0" type="matrix" in="shadowBlurOuter1"></feColorMatrix>
        </filter>
        <path d="M6.83333333,10.6666667 L32.5,10.6666667 C33.3284271,10.6666667 34,11.3382395 34,12.1666667 L34,29.8333333 C34,30.6617605 33.3284271,31.3333333 32.5,31.3333333 L6.83333333,31.3333333 C6.00490621,31.3333333 5.33333333,30.6617605 5.33333333,29.8333333 L5.33333333,12.1666667 C5.33333333,11.3382395 6.00490621,10.6666667 6.83333333,10.6666667 Z" id="path-6"></path>
        <filter x="-15.7%" y="-21.8%" width="131.4%" height="143.5%" filterUnits="objectBoundingBox" id="filter-7">
            <feOffset dx="0" dy="0" in="SourceAlpha" result="shadowOffsetOuter1"></feOffset>
            <feGaussianBlur stdDeviation="1.5" in="shadowOffsetOuter1" result="shadowBlurOuter1"></feGaussianBlur>
            <feColorMatrix values="0 0 0 0 0   0 0 0 0 0   0 0 0 0 0  0 0 0 0.2 0" type="matrix" in="shadowBlurOuter1"></feColorMatrix>
        </filter>
        <linearGradient x1="1.44424438%" y1="47.7040816%" x2="100%" y2="52.2959184%" id="linearGradient-8">
            <stop stop-color="#16A085" offset="0%"></stop>
            <stop stop-color="#F4D03F" offset="100%"></stop>
        </linearGradient>
        <linearGradient x1="1.44424438%" y1="49.21875%" x2="100%" y2="50.78125%" id="linearGradient-9">
            <stop stop-color="#16A085" offset="0%"></stop>
            <stop stop-color="#F4D03F" offset="100%"></stop>
        </linearGradient>
    </defs>
    <g id="01-Desktop" stroke="none" stroke-width="1" fill="none" fill-rule="evenodd">
        <g id="01-Desktop-/-01-HomePage-/-01_01_Home-1440" transform="translate(-991.000000, -2038.000000)">
            <g id="Item-manager-1" transform="translate(991.000000, 2038.000000)">
                <g id="Group-36">
                    <mask id="mask-3" fill="white">
                        <use xlink:href="#path-2"></use>
                    </mask>
                    <use id="Mask-Copy-4" fill="url(#linearGradient-1)" xlink:href="#path-2"></use>
                    <g id="Rectangle-Copy-31" opacity="0.5" transform="translate(21.333333, 19.000000) rotate(90.000000) translate(-21.333333, -19.000000) ">
                        <use fill="black" fill-opacity="1" filter="url(#filter-5)" xlink:href="#path-4"></use>
                        <use fill="#FFFFFF" fill-rule="evenodd" xlink:href="#path-4"></use>
                    </g>
                    <g id="Rectangle-Copy-32" transform="translate(19.666667, 21.000000) rotate(90.000000) translate(-19.666667, -21.000000) ">
                        <use fill="black" fill-opacity="1" filter="url(#filter-7)" xlink:href="#path-6"></use>
                        <use fill="#FFFFFF" fill-rule="evenodd" xlink:href="#path-6"></use>
                    </g>
                    <circle id="Oval" fill="url(#linearGradient-1)" cx="14.3333333" cy="15" r="2.33333333"></circle>
                    <rect id="Rectangle" fill="url(#linearGradient-8)" x="18.6666667" y="14" width="9.33333333" height="2" rx="1"></rect>
                    <rect id="Rectangle-Copy-15" fill="url(#linearGradient-9)" x="12" y="20" width="16" height="2" rx="1"></rect>
                    <rect id="Rectangle-Copy-28" fill="url(#linearGradient-9)" x="12" y="26" width="16" height="2" rx="1"></rect>
                </g>
            </g>
        </g>
    </g>
</svg>