<?xml version="1.0" encoding="UTF-8"?>
<svg width="62px" height="62px" viewBox="0 0 62 62" version="1.1" xmlns="http://www.w3.org/2000/svg" xmlns:xlink="http://www.w3.org/1999/xlink">
    <!-- Generator: Sketch 63.1 (92452) - https://sketch.com -->
    <title>Machines Coming icon</title>
    <desc>Created with Sketch.</desc>
    <defs>
        <path d="M10.7,0 L49.3,0 C55.2094468,-1.08554777e-15 60,4.79055318 60,10.7 L60,49.065625 C60,54.9750718 55.2094468,59.765625 49.3,59.765625 L10.7,59.765625 C4.79055318,59.765625 7.23698514e-16,54.9750718 0,49.065625 L0,10.7 C-7.23698514e-16,4.79055318 4.79055318,1.08554777e-15 10.7,0 Z" id="path-1"></path>
        <path d="M1,28 L47,28 C47.5522847,28 48,28.4477153 48,29 L48,33 C48,34.1045695 47.1045695,35 46,35 L2,35 C0.8954305,35 1.3527075e-16,34.1045695 0,33 L0,29 C-6.76353751e-17,28.4477153 0.44771525,28 1,28 Z" id="path-3"></path>
        <filter x="-14.6%" y="-71.5%" width="129.2%" height="300.1%" filterUnits="objectBoundingBox" id="filter-4">
            <feOffset dx="0" dy="2" in="SourceAlpha" result="shadowOffsetOuter1"></feOffset>
            <feMorphology radius="1" operator="erode" in="SourceAlpha" result="shadowInner"></feMorphology>
            <feOffset dx="0" dy="2" in="shadowInner" result="shadowInner"></feOffset>
            <feComposite in="shadowOffsetOuter1" in2="shadowInner" operator="out" result="shadowOffsetOuter1"></feComposite>
            <feGaussianBlur stdDeviation="2" in="shadowOffsetOuter1" result="shadowBlurOuter1"></feGaussianBlur>
            <feColorMatrix values="0 0 0 0 0   0 0 0 0 0   0 0 0 0 0  0 0 0 0.2 0" type="matrix" in="shadowBlurOuter1"></feColorMatrix>
        </filter>
        <rect id="path-5" x="41" y="12" width="7" height="15" rx="1"></rect>
        <filter x="-100.2%" y="-33.6%" width="300.5%" height="193.9%" filterUnits="objectBoundingBox" id="filter-6">
            <feOffset dx="0" dy="2" in="SourceAlpha" result="shadowOffsetOuter1"></feOffset>
            <feMorphology radius="1" operator="erode" in="SourceAlpha" result="shadowInner"></feMorphology>
            <feOffset dx="0" dy="2" in="shadowInner" result="shadowInner"></feOffset>
            <feComposite in="shadowOffsetOuter1" in2="shadowInner" operator="out" result="shadowOffsetOuter1"></feComposite>
            <feGaussianBlur stdDeviation="2" in="shadowOffsetOuter1" result="shadowBlurOuter1"></feGaussianBlur>
            <feColorMatrix values="0 0 0 0 0   0 0 0 0 0   0 0 0 0 0  0 0 0 0.2 0" type="matrix" in="shadowBlurOuter1"></feColorMatrix>
        </filter>
        <path d="M9.53600814,0.975243261 L14.5360081,4.14984644 C14.8249531,4.33330353 15,4.65179375 15,4.99405925 L15,15.0059407 C15,15.3482062 14.8249531,15.6666965 14.5360081,15.8501536 L9.53600814,19.0247567 C9.06976227,19.3207859 8.4518163,19.1827979 8.15578718,18.7165521 C8.05403436,18.5562914 8,18.3703784 8,18.1805439 L8,1.81945608 C8,1.26717133 8.44771525,0.819456077 9,0.819456077 C9.18983448,0.819456077 9.37574743,0.873490434 9.53600814,0.975243261 Z" id="path-7"></path>
        <filter x="-100.0%" y="-20.7%" width="300.0%" height="161.6%" filterUnits="objectBoundingBox" id="filter-8">
            <feOffset dx="0" dy="2" in="SourceAlpha" result="shadowOffsetOuter1"></feOffset>
            <feMorphology radius="1" operator="erode" in="SourceAlpha" result="shadowInner"></feMorphology>
            <feOffset dx="0" dy="2" in="shadowInner" result="shadowInner"></feOffset>
            <feComposite in="shadowOffsetOuter1" in2="shadowInner" operator="out" result="shadowOffsetOuter1"></feComposite>
            <feGaussianBlur stdDeviation="2" in="shadowOffsetOuter1" result="shadowBlurOuter1"></feGaussianBlur>
            <feColorMatrix values="0 0 0 0 0   0 0 0 0 0   0 0 0 0 0  0 0 0 0.2 0" type="matrix" in="shadowBlurOuter1"></feColorMatrix>
        </filter>
        <path d="M34.5,4.35714286 L35.8436615,6.46861091 C35.9457666,6.62906184 36,6.81530238 36,7.0054864 L36,7.9945136 C36,8.18469762 35.9457666,8.37093816 35.8436615,8.53138909 L34.5,10.6428571 C34.2587615,11.0219463 33.7558865,11.1336963 33.3767973,10.8924577 C33.1421164,10.7431153 33,10.4842257 33,10.2060561 L33,4.79394389 C33,4.34460591 33.3642604,3.98034551 33.8135984,3.98034551 C34.091768,3.98034551 34.3506576,4.12246189 34.5,4.35714286 Z" id="path-9"></path>
        <filter x="-233.3%" y="-27.0%" width="566.7%" height="190.9%" filterUnits="objectBoundingBox" id="filter-10">
            <feOffset dx="0" dy="2" in="SourceAlpha" result="shadowOffsetOuter1"></feOffset>
            <feMorphology radius="1" operator="erode" in="SourceAlpha" result="shadowInner"></feMorphology>
            <feOffset dx="0" dy="2" in="shadowInner" result="shadowInner"></feOffset>
            <feComposite in="shadowOffsetOuter1" in2="shadowInner" operator="out" result="shadowOffsetOuter1"></feComposite>
            <feGaussianBlur stdDeviation="2" in="shadowOffsetOuter1" result="shadowBlurOuter1"></feGaussianBlur>
            <feColorMatrix values="0 0 0 0 0   0 0 0 0 0   0 0 0 0 0  0 0 0 0.2 0" type="matrix" in="shadowBlurOuter1"></feColorMatrix>
        </filter>
        <path d="M25,23 L33,23 C34.1045695,23 35,23.8954305 35,25 L35,26 C35,26.5522847 34.5522847,27 34,27 L24,27 C23.4477153,27 23,26.5522847 23,26 L23,25 C23,23.8954305 23.8954305,23 25,23 Z" id="path-11"></path>
        <filter x="-58.3%" y="-125.0%" width="216.7%" height="450.4%" filterUnits="objectBoundingBox" id="filter-12">
            <feOffset dx="0" dy="2" in="SourceAlpha" result="shadowOffsetOuter1"></feOffset>
            <feMorphology radius="1" operator="erode" in="SourceAlpha" result="shadowInner"></feMorphology>
            <feOffset dx="0" dy="2" in="shadowInner" result="shadowInner"></feOffset>
            <feComposite in="shadowOffsetOuter1" in2="shadowInner" operator="out" result="shadowOffsetOuter1"></feComposite>
            <feGaussianBlur stdDeviation="2" in="shadowOffsetOuter1" result="shadowBlurOuter1"></feGaussianBlur>
            <feColorMatrix values="0 0 0 0 0   0 0 0 0 0   0 0 0 0 0  0 0 0 0.2 0" type="matrix" in="shadowBlurOuter1"></feColorMatrix>
        </filter>
        <path d="M38,4 L46,4 C47.1045695,4 48,4.8954305 48,6 L48,10 C48,10.5522847 47.5522847,11 47,11 L38,11 C37.4477153,11 37,10.5522847 37,10 L37,5 C37,4.44771525 37.4477153,4 38,4 Z" id="path-13"></path>
        <filter x="-64.0%" y="-71.4%" width="227.7%" height="300.4%" filterUnits="objectBoundingBox" id="filter-14">
            <feOffset dx="0" dy="2" in="SourceAlpha" result="shadowOffsetOuter1"></feOffset>
            <feMorphology radius="1" operator="erode" in="SourceAlpha" result="shadowInner"></feMorphology>
            <feOffset dx="0" dy="2" in="shadowInner" result="shadowInner"></feOffset>
            <feComposite in="shadowOffsetOuter1" in2="shadowInner" operator="out" result="shadowOffsetOuter1"></feComposite>
            <feGaussianBlur stdDeviation="2" in="shadowOffsetOuter1" result="shadowBlurOuter1"></feGaussianBlur>
            <feColorMatrix values="0 0 0 0 0   0 0 0 0 0   0 0 0 0 0  0 0 0 0.2 0" type="matrix" in="shadowBlurOuter1"></feColorMatrix>
        </filter>
        <path d="M16,5 L18,5 C18.5522847,5 19,5.44771525 19,6 L19,8 C19,8.55228475 18.5522847,9 18,9 L16,9 L16,9 L16,5 Z" id="path-15"></path>
        <filter x="-233.3%" y="-125.0%" width="569.5%" height="453.5%" filterUnits="objectBoundingBox" id="filter-16">
            <feOffset dx="0" dy="2" in="SourceAlpha" result="shadowOffsetOuter1"></feOffset>
            <feMorphology radius="1" operator="erode" in="SourceAlpha" result="shadowInner"></feMorphology>
            <feOffset dx="0" dy="2" in="shadowInner" result="shadowInner"></feOffset>
            <feComposite in="shadowOffsetOuter1" in2="shadowInner" operator="out" result="shadowOffsetOuter1"></feComposite>
            <feGaussianBlur stdDeviation="2" in="shadowOffsetOuter1" result="shadowBlurOuter1"></feGaussianBlur>
            <feColorMatrix values="0 0 0 0 0   0 0 0 0 0   0 0 0 0 0  0 0 0 0.2 0" type="matrix" in="shadowBlurOuter1"></feColorMatrix>
        </filter>
        <path d="M28.5,7 L32,7 L32,7 L32,8 L28.5,8 C28.2238576,8 28,7.77614237 28,7.5 C28,7.22385763 28.2238576,7 28.5,7 Z" id="path-17"></path>
        <filter x="-175.0%" y="-500.0%" width="350.0%" height="1400.0%" filterUnits="objectBoundingBox" id="filter-18">
            <feOffset dx="0" dy="2" in="SourceAlpha" result="shadowOffsetOuter1"></feOffset>
            <feMorphology radius="1" operator="erode" in="SourceAlpha" result="shadowInner"></feMorphology>
            <feOffset dx="0" dy="2" in="shadowInner" result="shadowInner"></feOffset>
            <feComposite in="shadowOffsetOuter1" in2="shadowInner" operator="out" result="shadowOffsetOuter1"></feComposite>
            <feGaussianBlur stdDeviation="2" in="shadowOffsetOuter1" result="shadowBlurOuter1"></feGaussianBlur>
            <feColorMatrix values="0 0 0 0 0   0 0 0 0 0   0 0 0 0 0  0 0 0 0.2 0" type="matrix" in="shadowBlurOuter1"></feColorMatrix>
        </filter>
        <path d="M16,11 L18,11 C18.5522847,11 19,11.4477153 19,12 L19,14 C19,14.5522847 18.5522847,15 18,15 L16,15 L16,15 L16,11 Z" id="path-19"></path>
        <filter x="-233.3%" y="-125.0%" width="569.5%" height="453.5%" filterUnits="objectBoundingBox" id="filter-20">
            <feOffset dx="0" dy="2" in="SourceAlpha" result="shadowOffsetOuter1"></feOffset>
            <feMorphology radius="1" operator="erode" in="SourceAlpha" result="shadowInner"></feMorphology>
            <feOffset dx="0" dy="2" in="shadowInner" result="shadowInner"></feOffset>
            <feComposite in="shadowOffsetOuter1" in2="shadowInner" operator="out" result="shadowOffsetOuter1"></feComposite>
            <feGaussianBlur stdDeviation="2" in="shadowOffsetOuter1" result="shadowBlurOuter1"></feGaussianBlur>
            <feColorMatrix values="0 0 0 0 0   0 0 0 0 0   0 0 0 0 0  0 0 0 0.2 0" type="matrix" in="shadowBlurOuter1"></feColorMatrix>
        </filter>
        <path d="M2,1 L6,1 C6.55228475,1 7,1.44771525 7,2 L7,26 C7,26.5522847 6.55228475,27 6,27 L1,27 C0.44771525,27 6.76353751e-17,26.5522847 0,26 L0,3 C-1.3527075e-16,1.8954305 0.8954305,1 2,1 Z" id="path-21"></path>
        <filter x="-100.0%" y="-19.2%" width="300.1%" height="154.0%" filterUnits="objectBoundingBox" id="filter-22">
            <feOffset dx="0" dy="2" in="SourceAlpha" result="shadowOffsetOuter1"></feOffset>
            <feMorphology radius="1" operator="erode" in="SourceAlpha" result="shadowInner"></feMorphology>
            <feOffset dx="0" dy="2" in="shadowInner" result="shadowInner"></feOffset>
            <feComposite in="shadowOffsetOuter1" in2="shadowInner" operator="out" result="shadowOffsetOuter1"></feComposite>
            <feGaussianBlur stdDeviation="2" in="shadowOffsetOuter1" result="shadowBlurOuter1"></feGaussianBlur>
            <feColorMatrix values="0 0 0 0 0   0 0 0 0 0   0 0 0 0 0  0 0 0 0.2 0" type="matrix" in="shadowBlurOuter1"></feColorMatrix>
        </filter>
    </defs>
    <g id="App-icons" stroke="none" stroke-width="1" fill="none" fill-rule="evenodd">
        <g id="Categories" transform="translate(-738.000000, -987.000000)">
            <g id="Machines-Coming-icon" transform="translate(739.000000, 988.000000)">
                <g id="base'" opacity="0.300000012">
                    <g>
                        <mask id="mask-2" fill="white">
                            <use xlink:href="#path-1"></use>
                        </mask>
                        <use id="Rectangle-6-Copy-22" stroke="#DCBC65" xlink:href="#path-1"></use>
                        <g id="Group-6" mask="url(#mask-2)" stroke="#DCBC65" stroke-width="0.5">
                            <g id="guides">
                                <ellipse id="Oval-1" cx="30" cy="29.8828125" rx="11.25" ry="11.2050781"></ellipse>
                                <ellipse id="Oval-1" cx="30" cy="29.8828125" rx="15.75" ry="15.6875"></ellipse>
                                <ellipse id="Oval-1" cx="30" cy="29.8828125" rx="25.75" ry="25.6484375"></ellipse>
                                <line x1="0" y1="0" x2="60" y2="59.765625" id="Line" stroke-linecap="square"></line>
                                <line x1="0" y1="0" x2="60" y2="59.765625" id="Line" stroke-linecap="square" transform="translate(30.000000, 29.882812) scale(-1, 1) translate(-30.000000, -29.882812) "></line>
                            </g>
                        </g>
                        <g id="Group-14" mask="url(#mask-2)" stroke="#DCBC65" stroke-linecap="square" stroke-width="0.5">
                            <g transform="translate(3.461538, 0.000000)" id="Line-2">
                                <line x1="0.322802198" y1="0.962171053" x2="0.645604396" y2="59.6546053"></line>
                                <line x1="53.2516026" y1="0.962171053" x2="53.5744048" y2="59.0131579"></line>
                                <line x1="26.7925824" y1="0.320723684" x2="26.6311813" y2="60.1356908"></line>
                                <line x1="15.7366071" y1="0.881990132" x2="15.575206" y2="60.6969572"></line>
                                <line x1="38.332761" y1="0.881990132" x2="38.1713599" y2="60.6969572"></line>
                            </g>
                        </g>
                        <g id="Group-14" mask="url(#mask-2)" stroke="#DCBC65" stroke-linecap="square" stroke-width="0.5">
                            <g transform="translate(30.545673, 30.355168) rotate(90.000000) translate(-30.545673, -30.355168) translate(3.545673, -0.144832)" id="Line-2">
                                <line x1="0.322802198" y1="0.962171053" x2="0.645604396" y2="59.6546053"></line>
                                <line x1="53.2516026" y1="0.962171053" x2="53.5744048" y2="59.0131579"></line>
                                <line x1="26.7925824" y1="0.320723684" x2="26.6311813" y2="60.1356908"></line>
                                <line x1="15.7366071" y1="0.881990132" x2="15.575206" y2="60.6969572"></line>
                                <line x1="38.332761" y1="0.881990132" x2="38.1713599" y2="60.6969572"></line>
                            </g>
                        </g>
                    </g>
                </g>
                <g id="Group-24" transform="translate(6.000000, 13.000000)" fill-rule="nonzero">
                    <g id="Rectangle">
                        <use fill="black" fill-opacity="1" filter="url(#filter-4)" xlink:href="#path-3"></use>
                        <path stroke="#DCBC65" stroke-width="1" d="M47,28.5 L0.5,29 L0.5,33 C0.5,33.4142136 0.667893219,33.7892136 0.939339828,34.0606602 C1.21078644,34.3321068 1.58578644,34.5 2,34.5 L46,34.5 C46.4142136,34.5 46.7892136,34.3321068 47.0606602,34.0606602 C47.3321068,33.7892136 47.5,33.4142136 47.5,33 L47,28.5 Z" stroke-linejoin="square"></path>
                    </g>
                    <g id="Rectangle">
                        <use fill="black" fill-opacity="1" filter="url(#filter-6)" xlink:href="#path-5"></use>
                        <rect stroke="#DCBC65" stroke-width="1" stroke-linejoin="square" x="41.5" y="12.5" width="6" height="14" rx="1"></rect>
                    </g>
                    <g id="Rectangle">
                        <use fill="black" fill-opacity="1" filter="url(#filter-8)" xlink:href="#path-7"></use>
                        <path stroke="#DCBC65" stroke-width="1" d="M8.64644661,1.46590269 C8.55596441,1.55638489 8.5,1.68138489 8.5,1.81945608 L8.5,18.1805439 C8.5,18.2754612 8.52701718,18.3684176 8.57789359,18.448548 C8.65190087,18.5651095 8.76614776,18.6406387 8.89103319,18.6685257 C9.01591862,18.6964128 9.1514426,18.6766576 9.26800407,18.6026503 L14.2680041,15.4280472 C14.4124765,15.3363186 14.5,15.1770735 14.5,15.0059407 L14.5,4.99405925 C14.5,4.8229265 14.4124765,4.66368139 14.2680041,4.57195284 L9.26800407,1.39734967 C9.18787372,1.34647326 9.09491724,1.31945608 8.64644661,1.46590269 Z" stroke-linejoin="square"></path>
                    </g>
                    <g id="Rectangle" transform="translate(34.500000, 7.500000) scale(-1, 1) translate(-34.500000, -7.500000) ">
                        <use fill="black" fill-opacity="1" filter="url(#filter-10)" xlink:href="#path-9"></use>
                        <path stroke="#DCBC65" stroke-width="1" d="M33.5918508,4.57219635 C33.5351007,4.62894649 33.5,4.70734609 33.5,4.79394389 L33.5,10.2060561 C33.5,10.3132755 33.5547782,10.4130635 33.6452351,10.470627 C33.7182943,10.5171192 33.8032817,10.5295969 33.8816274,10.5121868 C33.9599731,10.4947766 34.031677,10.4474786 34.0781693,10.3744194 L35.4218307,8.26295134 C35.4728833,8.18272588 35.5,8.08960561 35.5,7.9945136 L35.5,7.0054864 C35.5,6.91039439 35.4728833,6.81727412 35.4218307,6.73704866 L34.0781693,4.6255806 C34.0206058,4.53512372 33.9208178,4.48034551 33.5918508,4.57219635 Z" stroke-linejoin="square"></path>
                    </g>
                    <g id="Rectangle">
                        <use fill="black" fill-opacity="1" filter="url(#filter-12)" xlink:href="#path-11"></use>
                        <path stroke="#DCBC65" stroke-width="1" d="M33,23.5 L25,23.5 C24.5857864,23.5 24.2107864,23.6678932 23.9393398,23.9393398 C23.6678932,24.2107864 23.5,24.5857864 23.5,25 L24,26.5 L34.5,26 L34.5,25 C34.5,24.5857864 34.3321068,24.2107864 34.0606602,23.9393398 C33.7892136,23.6678932 33.4142136,23.5 33,23.5 Z" stroke-linejoin="square"></path>
                    </g>
                    <g id="Rectangle">
                        <use fill="black" fill-opacity="1" filter="url(#filter-14)" xlink:href="#path-13"></use>
                        <path stroke="#DCBC65" stroke-width="1" d="M46,4.5 L37.5,5 L38,10.5 L47.5,10 L47.5,6 C47.5,5.58578644 47.3321068,5.21078644 47.0606602,4.93933983 C46.7892136,4.66789322 46.4142136,4.5 46,4.5 Z" stroke-linejoin="square"></path>
                    </g>
                    <g id="Rectangle">
                        <use fill="black" fill-opacity="1" filter="url(#filter-16)" xlink:href="#path-15"></use>
                        <path stroke="#DCBC65" stroke-width="1" d="M18,5.5 L16.5,5.5 L16.5,8.5 L18.5,8 L18,5.5 Z" stroke-linejoin="square"></path>
                    </g>
                    <g id="Rectangle">
                        <use fill="black" fill-opacity="1" filter="url(#filter-18)" xlink:href="#path-17"></use>
                        <path stroke="#DCBC65" stroke-width="1" d="" stroke-linejoin="square"></path>
                    </g>
                    <g id="Rectangle">
                        <use fill="black" fill-opacity="1" filter="url(#filter-20)" xlink:href="#path-19"></use>
                        <path stroke="#DCBC65" stroke-width="1" d="M18,11.5 L16.5,11.5 L16.5,14.5 L18.5,14 L18,11.5 Z" stroke-linejoin="square"></path>
                    </g>
                    <g id="Rectangle">
                        <use fill="black" fill-opacity="1" filter="url(#filter-22)" xlink:href="#path-21"></use>
                        <path stroke="#DCBC65" stroke-width="1" d="M6,1.5 L2,1.5 C1.58578644,1.5 1.21078644,1.66789322 0.939339828,1.93933983 C0.667893219,2.21078644 0.5,2.58578644 0.5,3 L1,26.5 L6.5,26 L6,1.5 Z" stroke-linejoin="square"></path>
                    </g>
                </g>
            </g>
        </g>
    </g>
</svg>