<?xml version="1.0" encoding="UTF-8"?>
<svg width="40px" height="40px" viewBox="0 0 40 40" version="1.1" xmlns="http://www.w3.org/2000/svg" xmlns:xlink="http://www.w3.org/1999/xlink">
    <!-- Generator: Sketch 64 (93537) - https://sketch.com -->
    <title>orchestrator</title>
    <desc>Created with Sketch.</desc>
    <defs>
        <linearGradient x1="1.44424438%" y1="0%" x2="100%" y2="100%" id="linearGradient-1">
            <stop stop-color="#2575FC" offset="0%"></stop>
            <stop stop-color="#6A11CB" offset="100%"></stop>
        </linearGradient>
        <path d="M6,0 L34,0 C37.3137085,-6.08718376e-16 40,2.6862915 40,6 L40,34 C40,37.3137085 37.3137085,40 34,40 L6,40 C2.6862915,40 4.05812251e-16,37.3137085 0,34 L0,6 C-4.05812251e-16,2.6862915 2.6862915,6.08718376e-16 6,0 Z" id="path-2"></path>
        <path d="M12.6666667,15.4617886 C14.3857143,15.4617886 15.8031746,14.0479675 15.8031746,12.3333333 C15.8031746,11.6414634 15.5619048,10.9495935 15.1396825,10.4081301 L19.9349206,5.62520325 C20.5079365,6.13658537 21.2619048,6.43739837 22.015873,6.43739837 C23.7349206,6.43739837 25.152381,5.02357724 25.152381,3.30894309 C25.152381,1.59430894 23.7349206,0.180487805 22.015873,0.180487805 C20.2968254,0.180487805 18.8793651,1.59430894 18.8793651,3.30894309 C18.8793651,3.7 18.9396825,4.03089431 19.0904762,4.42195122 L13.9936508,9.50569106 C13.5714286,9.29512195 13.1190476,9.20487805 12.6666667,9.20487805 C10.947619,9.20487805 9.53015873,10.6186992 9.53015873,12.3333333 C9.53015873,14.0479675 10.947619,15.4617886 12.6666667,15.4617886 Z" id="path-4"></path>
        <filter x="-44.8%" y="-32.7%" width="189.6%" height="191.6%" filterUnits="objectBoundingBox" id="filter-5">
            <feOffset dx="0" dy="2" in="SourceAlpha" result="shadowOffsetOuter1"></feOffset>
            <feGaussianBlur stdDeviation="2" in="shadowOffsetOuter1" result="shadowBlurOuter1"></feGaussianBlur>
            <feColorMatrix values="0 0 0 0 0   0 0 0 0 0   0 0 0 0 0  0 0 0 0.2 0" type="matrix" in="shadowBlurOuter1"></feColorMatrix>
        </filter>
        <path d="M22.015873,18.2292683 C20.568254,18.2292683 19.3015873,19.2219512 18.9698413,20.6357724 L15.7126984,20.6357724 C15.3809524,19.2219512 14.1142857,18.2292683 12.6666667,18.2292683 C11.7619048,18.2292683 10.9174603,18.6203252 10.3444444,19.2821138 L5.51904762,14.5292683 C6.09206349,13.9276423 6.42380952,13.1455285 6.42380952,12.3333333 C6.42380952,10.8894309 5.42857143,9.62601626 4.01111111,9.29512195 L4.01111111,6.34715447 C5.42857143,6.01626016 6.42380952,4.75284553 6.42380952,3.30894309 C6.42380952,1.59430894 5.00634921,0.180487805 3.28730159,0.180487805 C1.56825397,0.180487805 0.180952381,1.59430894 0.180952381,3.30894309 C0.180952381,4.75284553 1.17619048,6.01626016 2.59365079,6.34715447 L2.59365079,9.29512195 C1.17619048,9.62601626 0.180952381,10.8894309 0.180952381,12.3333333 C0.180952381,14.0479675 1.5984127,15.4617886 3.31746032,15.4617886 C3.64920635,15.4617886 3.98095238,15.401626 4.28253968,15.3113821 L9.62063492,20.6357724 C9.56031746,20.9065041 9.53015873,21.1170732 9.53015873,21.3878049 C9.53015873,23.102439 10.947619,24.5162602 12.6666667,24.5162602 C14.1142857,24.5162602 15.3809524,23.5235772 15.7126984,22.1097561 L18.9698413,22.1097561 C19.3015873,23.5235772 20.568254,24.5162602 22.015873,24.5162602 C23.7349206,24.5162602 25.152381,23.102439 25.152381,21.3878049 C25.152381,19.6731707 23.7349206,18.2292683 22.015873,18.2292683 Z" id="path-6"></path>
        <filter x="-28.0%" y="-20.5%" width="156.1%" height="157.5%" filterUnits="objectBoundingBox" id="filter-7">
            <feOffset dx="0" dy="2" in="SourceAlpha" result="shadowOffsetOuter1"></feOffset>
            <feGaussianBlur stdDeviation="2" in="shadowOffsetOuter1" result="shadowBlurOuter1"></feGaussianBlur>
            <feColorMatrix values="0 0 0 0 0   0 0 0 0 0   0 0 0 0 0  0 0 0 0.2 0" type="matrix" in="shadowBlurOuter1"></feColorMatrix>
        </filter>
    </defs>
    <g id="01-Desktop" stroke="none" stroke-width="1" fill="none" fill-rule="evenodd">
        <g id="01-Desktop-/-01-HomePage-/-01_01_Home-1440" transform="translate(-656.000000, -2466.000000)">
            <g id="orchestrator" transform="translate(656.000000, 2466.000000)">
                <g id="Group-30">
                    <mask id="mask-3" fill="white">
                        <use xlink:href="#path-2"></use>
                    </mask>
                    <use id="Rectangle-6-Copy-22" fill="url(#linearGradient-1)" xlink:href="#path-2"></use>
                    <g id="noun_Technology_909469" mask="url(#mask-3)">
                        <g transform="translate(7.333333, 8.000000)" id="Group">
                            <g>
                                <g id="Path" opacity="0.699999988" fill-rule="nonzero">
                                    <use fill="black" fill-opacity="1" filter="url(#filter-5)" xlink:href="#path-4"></use>
                                    <use fill="#FFFFFF" xlink:href="#path-4"></use>
                                </g>
                                <path d="M12.6666667,6.43739837 C14.3857143,6.43739837 15.8031746,5.02357724 15.8031746,3.30894309 C15.8031746,1.59430894 14.3857143,0.180487805 12.6666667,0.180487805 C10.947619,0.180487805 9.53015873,1.59430894 9.53015873,3.30894309 C9.53015873,5.02357724 10.947619,6.43739837 12.6666667,6.43739837 Z" id="Path" fill="#FFFFFF" fill-rule="nonzero" opacity="0.5"></path>
                                <path d="M22.015873,9.20487805 C20.2968254,9.20487805 18.8793651,10.6186992 18.8793651,12.3333333 C18.8793651,14.0479675 20.2968254,15.4617886 22.015873,15.4617886 C23.7349206,15.4617886 25.152381,14.0479675 25.152381,12.3333333 C25.152381,10.6186992 23.7349206,9.20487805 22.015873,9.20487805 Z" id="Path" fill="#FFFFFF" fill-rule="nonzero" opacity="0.400000006"></path>
                                <path d="M3.31746032,18.2292683 C1.5984127,18.2292683 0.180952381,19.6430894 0.180952381,21.3577236 C0.180952381,23.0723577 1.5984127,24.4861789 3.31746032,24.4861789 C5.03650794,24.4861789 6.45396825,23.0723577 6.45396825,21.3577236 C6.45396825,19.6430894 5.03650794,18.2292683 3.31746032,18.2292683 Z" id="Path" fill="#FFFFFF" fill-rule="nonzero" opacity="0.400000006"></path>
                                <g id="Path" fill-rule="nonzero">
                                    <use fill="black" fill-opacity="1" filter="url(#filter-7)" xlink:href="#path-6"></use>
                                    <use fill="#FFFFFF" xlink:href="#path-6"></use>
                                </g>
                            </g>
                        </g>
                    </g>
                </g>
            </g>
        </g>
    </g>
</svg>