<?xml version="1.0" encoding="UTF-8"?>
<svg width="40px" height="40px" viewBox="0 0 40 40" version="1.1" xmlns="http://www.w3.org/2000/svg" xmlns:xlink="http://www.w3.org/1999/xlink">
    <!-- Generator: Sketch 64 (93537) - https://sketch.com -->
    <title>phones</title>
    <desc>Created with Sketch.</desc>
    <defs>
        <linearGradient x1="0%" y1="0%" x2="117.692718%" y2="111.015449%" id="linearGradient-1">
            <stop stop-color="#9B3CB7" offset="0%"></stop>
            <stop stop-color="#FF396F" offset="100%"></stop>
        </linearGradient>
        <path d="M6,0 L34,0 C37.3137085,-6.08718376e-16 40,2.6862915 40,6 L40,34 C40,37.3137085 37.3137085,40 34,40 L6,40 C2.6862915,40 4.05812251e-16,37.3137085 0,34 L0,6 C-4.05812251e-16,2.6862915 2.6862915,6.08718376e-16 6,0 Z" id="path-2"></path>
        <linearGradient x1="38.3021225%" y1="-9.69057436%" x2="44.6737141%" y2="120.608181%" id="linearGradient-4">
            <stop stop-color="#FFFFFF" stop-opacity="0" offset="0%"></stop>
            <stop stop-color="#FFFFFF" offset="100%"></stop>
        </linearGradient>
        <linearGradient x1="18.6767578%" y1="39.8619204%" x2="35.7378791%" y2="61.9923684%" id="linearGradient-5">
            <stop stop-color="#FFFFFF" stop-opacity="0" offset="0%"></stop>
            <stop stop-color="#FFFFFF" offset="100%"></stop>
        </linearGradient>
        <path d="M2.56868132,0 L14.4313187,0 C15.8324176,0 17,1.171875 17,2.578125 L17,24.421875 C17,25.828125 15.8324176,27 14.4313187,27 L2.56868132,27 C1.16758242,27 0,25.828125 0,24.421875 L0,2.578125 C0,1.171875 1.16758242,0 2.56868132,0 Z" id="path-6"></path>
        <filter x="-41.2%" y="-18.5%" width="182.4%" height="151.9%" filterUnits="objectBoundingBox" id="filter-7">
            <feOffset dx="0" dy="2" in="SourceAlpha" result="shadowOffsetOuter1"></feOffset>
            <feGaussianBlur stdDeviation="2" in="shadowOffsetOuter1" result="shadowBlurOuter1"></feGaussianBlur>
            <feColorMatrix values="0 0 0 0 0   0 0 0 0 0   0 0 0 0 0  0 0 0 0.2 0" type="matrix" in="shadowBlurOuter1"></feColorMatrix>
        </filter>
        <linearGradient x1="32.5737777%" y1="0%" x2="73.5925672%" y2="111.015449%" id="linearGradient-8">
            <stop stop-color="#9B3CB7" offset="0%"></stop>
            <stop stop-color="#FF396F" offset="100%"></stop>
        </linearGradient>
    </defs>
    <g id="01-Desktop" stroke="none" stroke-width="1" fill="none" fill-rule="evenodd">
        <g id="01-Desktop-/-01-HomePage-/-01_01_Home-1440" transform="translate(-991.000000, -2466.000000)">
            <g id="phones" transform="translate(991.000000, 2466.000000)">
                <g id="Group-11">
                    <mask id="mask-3" fill="white">
                        <use xlink:href="#path-2"></use>
                    </mask>
                    <use id="Rectangle-6-Copy-19" fill="url(#linearGradient-1)" xlink:href="#path-2"></use>
                </g>
                <g id="Group-5" transform="translate(25.000000, 12.000000)">
                    <g id="Group-6">
                        <path d="M1.66208791,0 L9.33791209,0 C10.2445055,0 11,0.78125 11,1.71875 L11,16.28125 C11,17.21875 10.2445055,18 9.33791209,18 L1.66208791,18 C0.755494505,18 0,17.21875 0,16.28125 L0,1.71875 C0,0.78125 0.755494505,0 1.66208791,0 Z M8.90221057,1.33333333 L2.09778943,1.33333333 C1.66916448,1.33333333 1.29411765,1.74222222 1.29411765,2.20952381 L1.29411765,15.8196825 C1.29411765,16.2869841 1.66916448,16.6666667 2.09778943,16.6666667 L8.90221057,16.6666667 C9.33083552,16.6666667 9.70588235,16.2869841 9.70588235,15.8196825 L9.70588235,2.20952381 C9.70588235,1.74222222 9.33083552,1.33333333 8.90221057,1.33333333 Z" id="Shape" fill="url(#linearGradient-4)"></path>
                        <path d="M4.55637255,16 C4.19689542,16 3.88235294,15.7241379 3.88235294,15.3103448 C3.88235294,14.9425287 4.19689542,14.6666667 4.55637255,14.6666667 L6.44362745,14.6666667 C6.80310458,14.6666667 7.11764706,14.9425287 7.11764706,15.3103448 C7.11764706,15.7241379 6.80310458,16 6.44362745,16 L4.55637255,16 Z" id="Path" fill="url(#linearGradient-5)"></path>
                    </g>
                </g>
                <g id="Group-5" transform="translate(4.000000, 12.000000)">
                    <path d="M4.55637255,16 C4.19689542,16 3.88235294,15.7241379 3.88235294,15.3103448 C3.88235294,14.9425287 4.19689542,14.6666667 4.55637255,14.6666667 L6.44362745,14.6666667 C6.80310458,14.6666667 7.11764706,14.9425287 7.11764706,15.3103448 C7.11764706,15.7241379 6.80310458,16 6.44362745,16 L4.55637255,16 Z" id="Path" fill="url(#linearGradient-5)"></path>
                    <path d="M1.66208791,0 L9.33791209,0 C10.2445055,0 11,0.78125 11,1.71875 L11,16.28125 C11,17.21875 10.2445055,18 9.33791209,18 L1.66208791,18 C0.755494505,18 0,17.21875 0,16.28125 L0,1.71875 C0,0.78125 0.755494505,0 1.66208791,0 Z M8.90221057,1.33333333 L2.09778943,1.33333333 C1.66916448,1.33333333 1.29411765,1.74222222 1.29411765,2.20952381 L1.29411765,15.8196825 C1.29411765,16.2869841 1.66916448,16.6666667 2.09778943,16.6666667 L8.90221057,16.6666667 C9.33083552,16.6666667 9.70588235,16.2869841 9.70588235,15.8196825 L9.70588235,2.20952381 C9.70588235,1.74222222 9.33083552,1.33333333 8.90221057,1.33333333 Z" id="Shape" fill="url(#linearGradient-4)"></path>
                </g>
                <g id="Group-5" transform="translate(11.000000, 7.000000)">
                    <g id="Path" fill-rule="nonzero">
                        <use fill="black" fill-opacity="1" filter="url(#filter-7)" xlink:href="#path-6"></use>
                        <use fill="#FFFFFF" xlink:href="#path-6"></use>
                    </g>
                    <path d="M14.3179814,1.31707317 L2.68201862,1.31707317 C1.94904459,1.31707317 1.30769231,1.96682927 1.30769231,2.70940767 L1.30769231,24.3370035 C1.30769231,25.0795819 1.94904459,25.6829268 2.68201862,25.6829268 L14.3179814,25.6829268 C15.0509554,25.6829268 15.6923077,25.0795819 15.6923077,24.3370035 L15.6923077,2.70940767 C15.6923077,1.96682927 15.0509554,1.31707317 14.3179814,1.31707317 Z" id="Path" fill="url(#linearGradient-8)"></path>
                    <path d="M1.82570009,1.63761597 L15.4256151,25.1236782 C15.1709455,25.4623022 14.7612151,25.6829268 14.3179814,25.6829268 L14.3179814,25.6829268 L2.68201862,25.6829268 C1.94904459,25.6829268 1.30769231,25.0795819 1.30769231,24.3370035 L1.30769231,24.3370035 L1.30769231,2.70940767 C1.30769231,2.28852224 1.51372674,1.89745598 1.82570009,1.63761597 Z" id="Combined-Shape" fill="#FFFFFF" opacity="0.15"></path>
                </g>
            </g>
        </g>
    </g>
</svg>