<?xml version="1.0" encoding="UTF-8"?>
<svg width="70px" height="70px" viewBox="0 0 70 70" version="1.1" xmlns="http://www.w3.org/2000/svg" xmlns:xlink="http://www.w3.org/1999/xlink">
    <!-- Generator: Sketch 63.1 (92452) - https://sketch.com -->
    <title>Pilot Coming icon</title>
    <desc>Created with Sketch.</desc>
    <defs>
        <path d="M10.7,0 L49.3,0 C55.2094468,-1.08554777e-15 60,4.79055318 60,10.7 L60,49.065625 C60,54.9750718 55.2094468,59.765625 49.3,59.765625 L10.7,59.765625 C4.79055318,59.765625 7.23698514e-16,54.9750718 0,49.065625 L0,10.7 C-7.23698514e-16,4.79055318 4.79055318,1.08554777e-15 10.7,0 Z" id="path-1"></path>
        <path d="M30,7 C17.29756,7 7,17.29756 7,30 C7,42.70198 17.29756,53 30,53 C42.70198,53 53,42.70198 53,30 C53,17.29756 42.70198,7 30,7 Z M30.1576206,11 C38.3105524,11 45.2650201,16.0226597 48,23.0881693 C47.9708025,24.0901023 47.6934268,25.2394575 46.6341068,25.5459522 C42.0952719,27.2607991 38.3041655,23.5739007 29.9249534,23.4596373 C21.5452852,23.5739007 17.7920442,27.2607991 13.2536655,25.5459522 C12.4995501,25.3277316 12.1473559,24.6824795 12,23.9673252 C14.4808709,16.4434178 21.6702868,11 30.1576206,11 Z M36,31.9997265 C36,35.3138247 33.3142492,38 30,38 C26.6857508,38 24,35.3138247 24,31.9997265 C24,28.6861753 26.6862977,26 30,26 C33.3137023,26 36,28.6867223 36,31.9997265 Z M17.0191181,42.8835965 C16.4006496,43.1557384 15.7427147,42.9218082 15.1285779,42.4809757 C12.8823581,39.6863958 11.4014029,36.2874186 11,32.5748259 C11.5443485,32.0347362 12.4005784,31.8119899 13.5850538,32.184321 C16.2673299,33.0268423 19.7206461,41.6943739 17.0191181,42.8835965 Z M36.5299673,47.6836454 C36.3862094,47.7804362 36.2820062,47.8664724 36.2114033,47.9421843 C34.3314929,48.6261725 32.3061234,49 30.1935635,49 C27.7960398,49 25.5103751,48.5169065 23.4233343,47.6479403 C21.034317,46.0179836 22.119306,44.5945138 23.3038197,42.5249118 C24.497265,40.4398233 29.9766508,41.098861 29.9766508,41.098861 C29.9766508,41.098861 35.4909127,40.4402535 36.6843581,42.5249118 C37.8782288,44.6104305 38.9900128,46.0386323 36.5299673,47.6836454 Z M46.1828054,40.9592979 C45.3367308,42.0590776 44.0669319,43.4072397 42.9327248,42.8834463 C40.3624355,41.694193 43.6509949,33.0264379 46.2038771,32.1838949 C47.615681,31.7188185 48.5368807,32.1838949 49,33.0404182 C48.6339937,35.9259418 47.6486627,38.6115479 46.1828054,40.9592979 Z" id="path-3"></path>
        <filter x="-16.3%" y="-12.0%" width="132.6%" height="132.6%" filterUnits="objectBoundingBox" id="filter-4">
            <feMorphology radius="0.5" operator="dilate" in="SourceAlpha" result="shadowSpreadOuter1"></feMorphology>
            <feOffset dx="0" dy="2" in="shadowSpreadOuter1" result="shadowOffsetOuter1"></feOffset>
            <feMorphology radius="1" operator="erode" in="SourceAlpha" result="shadowInner"></feMorphology>
            <feOffset dx="0" dy="2" in="shadowInner" result="shadowInner"></feOffset>
            <feComposite in="shadowOffsetOuter1" in2="shadowInner" operator="out" result="shadowOffsetOuter1"></feComposite>
            <feGaussianBlur stdDeviation="2" in="shadowOffsetOuter1" result="shadowBlurOuter1"></feGaussianBlur>
            <feColorMatrix values="0 0 0 0 0   0 0 0 0 0   0 0 0 0 0  0 0 0 0.2 0" type="matrix" in="shadowBlurOuter1"></feColorMatrix>
        </filter>
    </defs>
    <g id="App-icons" stroke="none" stroke-width="1" fill="none" fill-rule="evenodd">
        <g id="Categories" transform="translate(-913.000000, -784.000000)">
            <g id="Pilot-Coming-icon" transform="translate(918.000000, 787.000000)">
                <g id="base'" opacity="0.300000012">
                    <g>
                        <mask id="mask-2" fill="white">
                            <use xlink:href="#path-1"></use>
                        </mask>
                        <use id="Rectangle-6-Copy-22" stroke="#DCBC65" xlink:href="#path-1"></use>
                        <g id="Group-6" mask="url(#mask-2)" stroke="#DCBC65" stroke-width="0.5">
                            <g id="guides">
                                <ellipse id="Oval-1" cx="30" cy="29.8828125" rx="11.25" ry="11.2050781"></ellipse>
                                <ellipse id="Oval-1" cx="30" cy="29.8828125" rx="15.75" ry="15.6875"></ellipse>
                                <ellipse id="Oval-1" cx="30" cy="29.8828125" rx="25.75" ry="25.6484375"></ellipse>
                                <line x1="0" y1="0" x2="60" y2="59.765625" id="Line" stroke-linecap="square"></line>
                                <line x1="0" y1="0" x2="60" y2="59.765625" id="Line" stroke-linecap="square" transform="translate(30.000000, 29.882812) scale(-1, 1) translate(-30.000000, -29.882812) "></line>
                            </g>
                        </g>
                        <g id="Group-14" mask="url(#mask-2)" stroke="#DCBC65" stroke-linecap="square" stroke-width="0.5">
                            <g transform="translate(3.461538, 0.000000)" id="Line-2">
                                <line x1="0.322802198" y1="0.962171053" x2="0.645604396" y2="59.6546053"></line>
                                <line x1="53.2516026" y1="0.962171053" x2="53.5744048" y2="59.0131579"></line>
                                <line x1="26.7925824" y1="0.320723684" x2="26.6311813" y2="60.1356908"></line>
                                <line x1="15.7366071" y1="0.881990132" x2="15.575206" y2="60.6969572"></line>
                                <line x1="38.332761" y1="0.881990132" x2="38.1713599" y2="60.6969572"></line>
                            </g>
                        </g>
                        <g id="Group-14" mask="url(#mask-2)" stroke="#DCBC65" stroke-linecap="square" stroke-width="0.5">
                            <g transform="translate(30.545673, 30.355168) rotate(90.000000) translate(-30.545673, -30.355168) translate(3.545673, -0.144832)" id="Line-2">
                                <line x1="0.322802198" y1="0.962171053" x2="0.645604396" y2="59.6546053"></line>
                                <line x1="53.2516026" y1="0.962171053" x2="53.5744048" y2="59.0131579"></line>
                                <line x1="26.7925824" y1="0.320723684" x2="26.6311813" y2="60.1356908"></line>
                                <line x1="15.7366071" y1="0.881990132" x2="15.575206" y2="60.6969572"></line>
                                <line x1="38.332761" y1="0.881990132" x2="38.1713599" y2="60.6969572"></line>
                            </g>
                        </g>
                    </g>
                </g>
                <g id="Shape" fill-rule="nonzero">
                    <use fill="black" fill-opacity="1" filter="url(#filter-4)" xlink:href="#path-3"></use>
                    <use stroke="#DCBC65" stroke-width="1" xlink:href="#path-3"></use>
                </g>
            </g>
        </g>
    </g>
</svg>