<?xml version="1.0" encoding="UTF-8"?>
<svg width="40px" height="40px" viewBox="0 0 40 40" version="1.1" xmlns="http://www.w3.org/2000/svg" xmlns:xlink="http://www.w3.org/1999/xlink">
    <!-- Generator: Sketch 64 (93537) - https://sketch.com -->
    <title>procurement</title>
    <desc>Created with Sketch.</desc>
    <defs>
        <linearGradient x1="1.44424438%" y1="0%" x2="100%" y2="100%" id="linearGradient-1">
            <stop stop-color="#2575FC" offset="0%"></stop>
            <stop stop-color="#6A11CB" offset="100%"></stop>
        </linearGradient>
        <path d="M34.7201878,4 C35.4262911,4 36,4.70204842 36,5.62011173 L36,5.62011173 L36,21.7132216 C36,22.6312849 35.4262911,23.3333333 34.7201878,23.3333333 L34.7201878,23.3333333 L5.94647887,23.3333333 C5.24037559,23.3333333 4.66666667,22.5772812 4.66666667,21.7132216 L4.66666667,21.7132216 L4.66666667,5.62011173 C4.66666667,4.70204842 5.24037559,4 5.94647887,4 L5.94647887,4 Z M20.6666667,6.66666667 L19.8,6.66666667 C19.7333333,6.66666667 19.6666667,6.73333333 19.6666667,6.8 L19.6666667,8.06666667 C19.6666667,8.13333333 19.6,8.2 19.5333333,8.2 C18.7333333,8.33333333 18.1333333,8.6 17.6666667,9.06666667 C17.2,9.53333333 16.9333333,10.2 16.9333333,11 C16.9333333,11.8666667 17.2,12.4666667 17.6666667,12.9333333 C18.1333333,13.4 18.8666667,13.8 19.8666667,14.2 C20.4,14.4 20.7333333,14.6 20.9333333,14.8666667 C21.1333333,15.1333333 21.2666667,15.4 21.2666667,15.8 C21.2666667,16.2 21.1333333,16.4666667 20.9333333,16.7333333 C20.7333333,16.9333333 20.4,17.0666667 20,17.0666667 C19.6,17.0666667 19.2,16.9333333 18.9333333,16.6666667 C18.6666667,16.4 18.5333333,16 18.5333333,15.4 C18.5333333,15.3333333 18.4666667,15.3333333 18.4666667,15.3333333 L16.7333333,15.3333333 C16.6666667,15.3333333 16.6666667,15.4 16.6666667,15.4 L16.6666667,15.6666667 L16.6666667,15.6666667 C16.7333333,16.5333333 17,17.2 17.4666667,17.6666667 C18,18.2 18.6666667,18.4666667 19.4666667,18.6 C19.52,18.6 19.5306667,18.6426667 19.5328,18.6938667 L19.5333333,19.9333333 C19.5333333,20 19.6,20.0666667 19.6666667,20.0666667 L20.5333333,20.0666667 C20.6,20.0666667 20.6666667,20 20.6666667,19.9333333 L20.6666667,18.7333333 C20.6666667,18.6666667 20.7333333,18.6666667 20.7333333,18.6 C21.5333333,18.5333333 22.1333333,18.2 22.6,17.7333333 C23.0666667,17.2666667 23.3333333,16.6 23.3333333,15.8 C23.3333333,15 23.0666667,14.3333333 22.6,13.8666667 C22.2,13.4 21.4666667,12.9333333 20.4666667,12.5333333 C19.9333333,12.3333333 19.5333333,12.0666667 19.3333333,11.8666667 C19.1333333,11.6666667 19,11.3333333 19,11 C19,10.6 19.0666667,10.3333333 19.2666667,10.0666667 C19.4666667,9.86666667 19.7333333,9.73333333 20.1333333,9.73333333 C20.5333333,9.73333333 20.8,9.86666667 21,10.2 C21.2,10.4666667 21.3333333,10.8666667 21.3333333,11.3333333 C21.3333333,11.4 21.4,11.4666667 21.4666667,11.4666667 L23.1333333,11.4666667 C23.1888889,11.4666667 23.2907407,11.4203704 23.3231481,11.3277778 L23.3333333,11.2666667 L23.3333333,11.2666667 C23.3333333,10.4666667 23.0666667,9.8 22.6666667,9.26666667 C22.2,8.73333333 21.6666667,8.4 20.8666667,8.26666667 C20.8133333,8.26666667 20.8026667,8.224 20.8005333,8.1728 L20.8,6.8 C20.8,6.73333333 20.7333333,6.66666667 20.6666667,6.66666667 Z" id="path-2"></path>
        <filter x="-22.3%" y="-25.9%" width="144.7%" height="172.4%" filterUnits="objectBoundingBox" id="filter-3">
            <feOffset dx="0" dy="2" in="SourceAlpha" result="shadowOffsetOuter1"></feOffset>
            <feGaussianBlur stdDeviation="2" in="shadowOffsetOuter1" result="shadowBlurOuter1"></feGaussianBlur>
            <feColorMatrix values="0 0 0 0 0   0 0 0 0 0   0 0 0 0 0  0 0 0 0.2 0" type="matrix" in="shadowBlurOuter1"></feColorMatrix>
        </filter>
        <path d="M32.856338,23.638163 L7.14366197,23.638163 C6.82816901,23.638163 6.55211268,23.5300022 6.27605634,23.3677609 C6.15774648,23.2596001 6,23.4218413 6,23.638163 L6,24.8279323 C6,25.8554603 6.51267606,26.6666667 7.14366197,26.6666667 L32.856338,26.6666667 C33.4873239,26.6666667 34,25.8554603 34,24.8279323 L34,23.638163 C34,23.4218413 33.8816901,23.2596001 33.7239437,23.3677609 C33.4873239,23.5300022 33.171831,23.638163 32.856338,23.638163 Z" id="path-4"></path>
        <filter x="-25.0%" y="-150.0%" width="150.0%" height="520.0%" filterUnits="objectBoundingBox" id="filter-5">
            <feOffset dx="0" dy="2" in="SourceAlpha" result="shadowOffsetOuter1"></feOffset>
            <feGaussianBlur stdDeviation="2" in="shadowOffsetOuter1" result="shadowBlurOuter1"></feGaussianBlur>
            <feColorMatrix values="0 0 0 0 0   0 0 0 0 0   0 0 0 0 0  0 0 0 0.2 0" type="matrix" in="shadowBlurOuter1"></feColorMatrix>
        </filter>
        <path d="M31.6319249,26.9714963 L8.36807512,26.9714963 C8.08262911,26.9714963 7.83286385,26.8633355 7.58309859,26.7010942 C7.47605634,26.5929334 7.33333333,26.7551747 7.33333333,26.9714963 L7.33333333,28.1612656 C7.33333333,29.1887937 7.7971831,30 8.36807512,30 L31.6319249,30 C32.2028169,30 32.6666667,29.1887937 32.6666667,28.1612656 L32.6666667,26.9714963 C32.6666667,26.7551747 32.5596244,26.5929334 32.4169014,26.7010942 C32.2028169,26.8633355 31.9173709,26.9714963 31.6319249,26.9714963 Z" id="path-6"></path>
        <filter x="-27.6%" y="-150.0%" width="155.3%" height="520.0%" filterUnits="objectBoundingBox" id="filter-7">
            <feOffset dx="0" dy="2" in="SourceAlpha" result="shadowOffsetOuter1"></feOffset>
            <feGaussianBlur stdDeviation="2" in="shadowOffsetOuter1" result="shadowBlurOuter1"></feGaussianBlur>
            <feColorMatrix values="0 0 0 0 0   0 0 0 0 0   0 0 0 0 0  0 0 0 0.2 0" type="matrix" in="shadowBlurOuter1"></feColorMatrix>
        </filter>
        <path d="M30.4075117,30.3048297 L9.59248826,30.3048297 C9.3370892,30.3048297 9.11361502,30.1966688 8.89014085,30.0344276 C8.7943662,29.9262667 8.66666667,30.088508 8.66666667,30.3048297 L8.66666667,31.494599 C8.66666667,32.522127 9.08169014,33.3333333 9.59248826,33.3333333 L30.4075117,33.3333333 C30.9183099,33.3333333 31.3333333,32.522127 31.3333333,31.494599 L31.3333333,30.3048297 C31.3333333,30.088508 31.2375587,29.9262667 31.1098592,30.0344276 C30.9183099,30.1966688 30.6629108,30.3048297 30.4075117,30.3048297 Z" id="path-8"></path>
        <filter x="-30.9%" y="-150.0%" width="161.8%" height="520.0%" filterUnits="objectBoundingBox" id="filter-9">
            <feOffset dx="0" dy="2" in="SourceAlpha" result="shadowOffsetOuter1"></feOffset>
            <feGaussianBlur stdDeviation="2" in="shadowOffsetOuter1" result="shadowBlurOuter1"></feGaussianBlur>
            <feColorMatrix values="0 0 0 0 0   0 0 0 0 0   0 0 0 0 0  0 0 0 0.2 0" type="matrix" in="shadowBlurOuter1"></feColorMatrix>
        </filter>
    </defs>
    <g id="01-Desktop" stroke="none" stroke-width="1" fill="none" fill-rule="evenodd">
        <g id="01-Desktop-/-01-HomePage-/-01_01_Home-1440" transform="translate(-864.000000, -2342.000000)">
            <g id="procurement" transform="translate(864.000000, 2342.000000)">
                <g id="Group-14">
                    <path d="M6,0 L34,0 C37.3137085,-6.08718376e-16 40,2.6862915 40,6 L40,34 C40,37.3137085 37.3137085,40 34,40 L6,40 C2.6862915,40 4.05812251e-16,37.3137085 0,34 L0,6 C-4.05812251e-16,2.6862915 2.6862915,6.08718376e-16 6,0 Z" id="Rectangle-6-Copy" fill="url(#linearGradient-1)"></path>
                    <g id="Combined-Shape" fill-rule="nonzero">
                        <use fill="black" fill-opacity="1" filter="url(#filter-3)" xlink:href="#path-2"></use>
                        <use fill="#FFFFFF" xlink:href="#path-2"></use>
                    </g>
                    <g id="Path" opacity="0.800000012" fill-rule="nonzero">
                        <use fill="black" fill-opacity="1" filter="url(#filter-5)" xlink:href="#path-4"></use>
                        <use fill="#FFFFFF" xlink:href="#path-4"></use>
                    </g>
                    <g id="Path" opacity="0.5" fill-rule="nonzero">
                        <use fill="black" fill-opacity="1" filter="url(#filter-7)" xlink:href="#path-6"></use>
                        <use fill="#FFFFFF" xlink:href="#path-6"></use>
                    </g>
                    <path d="M29.2103286,33.638163 L11.456338,33.638163 C11.2384977,33.638163 11.0478873,33.5300022 10.857277,33.3677609 C10.7755869,33.2596001 10.6666667,33.4218413 10.6666667,33.638163 L10.6666667,34.8279323 C10.6666667,35.8554603 11.0206573,36.6666667 11.456338,36.6666667 L29.2103286,36.6666667 C29.6460094,36.6666667 30,35.8554603 30,34.8279323 L30,33.638163 C30,33.4218413 29.9183099,33.2596001 29.8093897,33.3677609 C29.6460094,33.5300022 29.428169,33.638163 29.2103286,33.638163 Z" id="Path" fill="#FFFFFF" fill-rule="nonzero" opacity="0.100000001"></path>
                    <g id="Path-Copy-3" opacity="0.300000012" fill-rule="nonzero">
                        <use fill="black" fill-opacity="1" filter="url(#filter-9)" xlink:href="#path-8"></use>
                        <use fill="#FFFFFF" xlink:href="#path-8"></use>
                    </g>
                </g>
            </g>
        </g>
    </g>
</svg>