<?xml version="1.0" encoding="UTF-8"?>
<svg width="40px" height="40px" viewBox="0 0 40 40" version="1.1" xmlns="http://www.w3.org/2000/svg" xmlns:xlink="http://www.w3.org/1999/xlink">
    <!-- Generator: Sketch 64 (93537) - https://sketch.com -->
    <title>requests</title>
    <desc>Created with Sketch.</desc>
    <defs>
        <linearGradient x1="1.44424438%" y1="0%" x2="100%" y2="100%" id="linearGradient-1">
            <stop stop-color="#2575FC" offset="0%"></stop>
            <stop stop-color="#6A11CB" offset="100%"></stop>
        </linearGradient>
        <linearGradient x1="1.44424438%" y1="16.9921875%" x2="141.375411%" y2="121.191515%" id="linearGradient-2">
            <stop stop-color="#2575FC" offset="0%"></stop>
            <stop stop-color="#6A11CB" offset="100%"></stop>
        </linearGradient>
    </defs>
    <g id="01-Desktop" stroke="none" stroke-width="1" fill="none" fill-rule="evenodd">
        <g id="01-Desktop-/-01-HomePage-/-01_01_Home-1440" transform="translate(-552.000000, -2466.000000)">
            <g id="requests" transform="translate(552.000000, 2466.000000)">
                <path d="M6.66666667,0 L33.3333333,0 C37.0152317,0 40,2.98476833 40,6.66666667 L40,33.3333333 C40,37.0152317 37.0152317,40 33.3333333,40 L6.66666667,40 C2.98476833,40 0,37.0152317 0,33.3333333 L0,6.66666667 C0,2.98476833 2.98476833,0 6.66666667,0 Z" id="Rectangle-6-Copy-4" fill="url(#linearGradient-1)" fill-rule="nonzero"></path>
                <g id="Shape" opacity="0.8" transform="translate(6.000000, 6.000000)">
                    <g id="path-2-link" fill="#000000" fill-rule="nonzero">
                        <path d="M0,26 L14.3564079,26 L15.3768272,25.9550096 C21.8844884,25.4387336 27,19.74767 27,13 C27,5.83182567 21.3344659,0 14.3706886,0 C7.40691119,0 1.74137712,5.83182567 1.74137712,13 C1.74137712,15.8504317 2.62180247,18.5565378 4.28723234,20.8261033 L4.55164123,21.1864721 L4.33396914,21.5784677 C3.60392358,22.8920984 2.252885,24.7465049 0,26 Z" id="path-2"></path>
                    </g>
                    <g id="path-2-link" fill="#FFFFFF">
                        <path d="M0,26 L14.3564079,26 L15.3768272,25.9550096 C21.8844884,25.4387336 27,19.74767 27,13 C27,5.83182567 21.3344659,0 14.3706886,0 C7.40691119,0 1.74137712,5.83182567 1.74137712,13 C1.74137712,15.8504317 2.62180247,18.5565378 4.28723234,20.8261033 L4.55164123,21.1864721 L4.33396914,21.5784677 C3.60392358,22.8920984 2.252885,24.7465049 0,26 Z" id="path-2"></path>
                    </g>
                </g>
                <circle id="Oval" fill="#FFFFFF" fill-rule="nonzero" cx="20" cy="19" r="11"></circle>
                <g id="Path" transform="translate(21.000000, 18.500000) scale(-1, 1) translate(-21.000000, -18.500000) translate(13.000000, 12.000000)" fill="url(#linearGradient-2)">
                    <g id="path-5-link">
                        <path d="M15.9996246,4.12699937 L15.9996246,8.89632114 C15.9996246,8.89632114 16.0345407,9.50961109 15.43088,9.50961109 C14.8272193,9.50961109 7.03601273,9.50961109 7.03601273,9.50961109 C7.03601273,9.50961109 6.3790726,9.37645417 6.3790726,10.4007381 C6.3790726,11.4250219 6.3790726,12.7586395 6.3790726,12.7586395 C6.3790726,12.7586395 6.35476067,13.2397968 5.9691316,12.843399 C5.5835026,12.4470011 0.183920267,6.89973583 0.183920267,6.89973583 C0.183920267,6.89973583 -0.229900333,6.52920112 0.183920267,6.10437939 C0.5977408,5.67981375 6.06974173,0.065201695 6.06974173,0.065201695 C6.06974173,0.065201695 6.3790726,-0.17806568 6.3790726,0.275179905 C6.3790726,0.72868159 6.3790726,2.92679478 6.3790726,2.92679478 C6.3790726,2.92679478 6.270962,3.49399193 7.1006722,3.49399193 C7.9303824,3.49399193 15.458037,3.49399193 15.458037,3.49399193 C15.458037,3.49399193 15.9996246,3.45481312 15.9996246,4.12699937 Z" id="path-5"></path>
                    </g>
                </g>
            </g>
        </g>
    </g>
</svg>