<?xml version="1.0" encoding="UTF-8"?>
<svg width="109px" height="51px" viewBox="0 0 109 51" version="1.1" xmlns="http://www.w3.org/2000/svg" xmlns:xlink="http://www.w3.org/1999/xlink">
    <!-- Generator: Sketch 61.2 (89653) - https://sketch.com -->
    <title>Group 48</title>
    <desc>Created with Sketch.</desc>
    <g id="01-Desktop" stroke="none" stroke-width="1" fill="none" fill-rule="evenodd">
        <g id="01-Desktop-/-01-HomePage-/-01_01_Home-Copy-4" transform="translate(-778.000000, -1565.000000)">
            <g id="Group-48" transform="translate(779.500000, 1566.250000)">
                <g id="Items-2-OMS..." transform="translate(75.000000, 13.500000) scale(-1, 1) translate(-75.000000, -13.500000) translate(44.500000, 0.000000)">
                    <circle id="Oval" stroke="#383838" stroke-width="1.5" cx="1.5" cy="1.875" r="2.25"></circle>
                    <polygon id="Path-19" fill="#383838" transform="translate(55.750000, 24.000000) rotate(90.000000) translate(-55.750000, -24.000000) " points="53.5 19.5 53.5 28.5 58 24"></polygon>
                    <path d="M1.5,3.75 L1.5,10.5 C1.5,12.1568542 2.84314575,13.5 4.5,13.5 L52.5,13.5 C54.1568542,13.5 55.5,14.8431458 55.5,16.5 L55.5,21.75 L55.5,21.75" id="Path-18" stroke="#383838" stroke-width="1.5" stroke-linejoin="round"></path>
                </g>
                <g id="OMS-PM" transform="translate(53.000000, 40.000000) scale(1, -1) translate(-53.000000, -40.000000) translate(0.000000, 32.000000)" stroke="#383838" stroke-width="1.5">
                    <circle id="Oval" cx="1.5" cy="1.5" r="2.25"></circle>
                    <circle id="Oval-Copy" cx="104.5" cy="1.5" r="2.25"></circle>
                    <path d="M1.5,3.75 L1.5,12.75 C1.5,14.4068542 2.84314575,15.75 4.5,15.75 L101.5,15.75 C103.156854,15.75 104.5,14.4068542 104.5,12.75 L104.5,3.75 L104.5,3.75" id="Path-18" stroke-linejoin="round"></path>
                </g>
            </g>
        </g>
    </g>
</svg>