<?xml version="1.0" encoding="UTF-8"?>
<svg width="207px" height="33px" viewBox="0 0 207 33" version="1.1" xmlns="http://www.w3.org/2000/svg" xmlns:xlink="http://www.w3.org/1999/xlink">
    <!-- Generator: Sketch 61.2 (89653) - https://sketch.com -->
    <title>Group 44</title>
    <desc>Created with Sketch.</desc>
    <g id="01-Desktop" stroke="none" stroke-width="1" fill="none" fill-rule="evenodd">
        <g id="01-Desktop-/-01-HomePage-/-01_01_Home-Copy-4" transform="translate(-1025.000000, -2232.000000)">
            <g id="Group-44" transform="translate(1027.000000, 2234.000000)">
                <polygon id="Path-19" fill="#383838" transform="translate(102.250000, 28.500000) rotate(90.000000) translate(-102.250000, -28.500000) " points="100 24 100 33 104.5 28.5"></polygon>
                <g id="Group-43" transform="translate(102.000000, 8.000000) scale(1, -1) translate(-102.000000, -8.000000) " stroke="#383838" stroke-width="1.5">
                    <circle id="Oval" transform="translate(1.500000, 14.250000) scale(1, -1) translate(-1.500000, -14.250000) " cx="1.5" cy="14.25" r="2.25"></circle>
                    <circle id="Oval-Copy" transform="translate(201.750000, 14.250000) scale(1, -1) translate(-201.750000, -14.250000) " cx="201.75" cy="14.25" r="2.25"></circle>
                    <circle id="Oval-Copy-5" transform="translate(102.000000, 14.250000) scale(1, -1) translate(-102.000000, -14.250000) " cx="102" cy="14.25" r="2.25"></circle>
                    <path d="M1.5,0 L1.5,9 C1.5,10.6568542 2.84314575,12 4.5,12 L198.75,12 C200.406854,12 201.75,10.6568542 201.75,9 L201.75,0 L201.75,0" id="Path-18" stroke-linejoin="round" transform="translate(101.625000, 6.000000) scale(1, -1) translate(-101.625000, -6.000000) "></path>
                    <line x1="102" y1="12.75" x2="102" y2="0.75" id="Path-20" transform="translate(102.000000, 6.750000) scale(1, -1) translate(-102.000000, -6.750000) "></line>
                </g>
                <line x1="102" y1="15.9146729" x2="102" y2="26.7440186" id="Path-17" stroke="#383838" stroke-width="1.5"></line>
            </g>
        </g>
    </g>
</svg>