<?xml version="1.0" encoding="UTF-8"?>
<svg width="307px" height="103px" viewBox="0 0 307 103" version="1.1" xmlns="http://www.w3.org/2000/svg" xmlns:xlink="http://www.w3.org/1999/xlink">
    <!-- Generator: Sketch 61.2 (89653) - https://sketch.com -->
    <title>Group 8</title>
    <desc>Created with Sketch.</desc>
    <g id="Page-1" stroke="none" stroke-width="1" fill="none" fill-rule="evenodd">
        <g id="1" transform="translate(-192.000000, -19.000000)">
            <g id="Group-8" transform="translate(194.000000, 20.000000)">
                <g id="Group-30-Copy-7" transform="translate(171.000000, 40.000000) rotate(90.000000) translate(-171.000000, -40.000000) translate(131.500000, -92.000000)">
                    <circle id="Oval" stroke="#383838" stroke-width="1.5" cx="1.875" cy="1.5" r="2.25"></circle>
                    <polygon id="Path-19" fill="#383838" points="73.5 255 73.5 264 78 259.5"></polygon>
                    <path d="M1.875,3.75 L1.875,256.5 C1.875,258.156854 3.21814575,259.5 4.875,259.5 L73.5,259.5 L73.5,259.5" id="Path-18" stroke="#383838" stroke-width="1.5" stroke-linejoin="round"></path>
                </g>
                <g id="Group-30-Copy-4" transform="translate(46.500000, 92.250000) scale(1, -1) translate(-46.500000, -92.250000) translate(0.000000, 84.250000)" stroke="#383838" stroke-width="1.5">
                    <circle id="Oval" cx="1.5" cy="1.5" r="2.25"></circle>
                    <circle id="Oval-Copy" cx="91.5" cy="1.5" r="2.25"></circle>
                    <path d="M1.5,3.75 L1.5,12.75 C1.5,14.4068542 2.84314575,15.75 4.5,15.75 L88.5,15.75 C90.1568542,15.75 91.5,14.4068542 91.5,12.75 L91.5,3.75 L91.5,3.75" id="Path-18" stroke-linejoin="round"></path>
                </g>
            </g>
        </g>
    </g>
</svg>